G04 #@! TF.GenerationSoftware,KiCad,Pcbnew,5.1.4*
G04 #@! TF.CreationDate,2019-10-08T23:19:43+02:00*
G04 #@! TF.ProjectId,rc-29f001,72632d32-3966-4303-9031-2e6b69636164,rev?*
G04 #@! TF.SameCoordinates,Original*
G04 #@! TF.FileFunction,Soldermask,Bot*
G04 #@! TF.FilePolarity,Negative*
%FSLAX46Y46*%
G04 Gerber Fmt 4.6, Leading zero omitted, Abs format (unit mm)*
G04 Created by KiCad (PCBNEW 5.1.4) date 2019-10-08 23:19:43*
%MOMM*%
%LPD*%
G04 APERTURE LIST*
%ADD10C,0.100000*%
G04 APERTURE END LIST*
D10*
G36*
X47570442Y-187355518D02*
G01*
X47636627Y-187362037D01*
X47806466Y-187413557D01*
X47962991Y-187497222D01*
X47998729Y-187526552D01*
X48100186Y-187609814D01*
X48183448Y-187711271D01*
X48212778Y-187747009D01*
X48296443Y-187903534D01*
X48347963Y-188073373D01*
X48365359Y-188250000D01*
X48347963Y-188426627D01*
X48296443Y-188596466D01*
X48212778Y-188752991D01*
X48183448Y-188788729D01*
X48100186Y-188890186D01*
X47998729Y-188973448D01*
X47962991Y-189002778D01*
X47806466Y-189086443D01*
X47636627Y-189137963D01*
X47570442Y-189144482D01*
X47504260Y-189151000D01*
X47415740Y-189151000D01*
X47349558Y-189144482D01*
X47283373Y-189137963D01*
X47113534Y-189086443D01*
X46957009Y-189002778D01*
X46921271Y-188973448D01*
X46819814Y-188890186D01*
X46736552Y-188788729D01*
X46707222Y-188752991D01*
X46623557Y-188596466D01*
X46572037Y-188426627D01*
X46554641Y-188250000D01*
X46572037Y-188073373D01*
X46623557Y-187903534D01*
X46707222Y-187747009D01*
X46736552Y-187711271D01*
X46819814Y-187609814D01*
X46921271Y-187526552D01*
X46957009Y-187497222D01*
X47113534Y-187413557D01*
X47283373Y-187362037D01*
X47349558Y-187355518D01*
X47415740Y-187349000D01*
X47504260Y-187349000D01*
X47570442Y-187355518D01*
X47570442Y-187355518D01*
G37*
G36*
X22961000Y-189151000D02*
G01*
X21159000Y-189151000D01*
X21159000Y-187349000D01*
X22961000Y-187349000D01*
X22961000Y-189151000D01*
X22961000Y-189151000D01*
G37*
G36*
X24710442Y-187355518D02*
G01*
X24776627Y-187362037D01*
X24946466Y-187413557D01*
X25102991Y-187497222D01*
X25138729Y-187526552D01*
X25240186Y-187609814D01*
X25323448Y-187711271D01*
X25352778Y-187747009D01*
X25436443Y-187903534D01*
X25487963Y-188073373D01*
X25505359Y-188250000D01*
X25487963Y-188426627D01*
X25436443Y-188596466D01*
X25352778Y-188752991D01*
X25323448Y-188788729D01*
X25240186Y-188890186D01*
X25138729Y-188973448D01*
X25102991Y-189002778D01*
X24946466Y-189086443D01*
X24776627Y-189137963D01*
X24710442Y-189144482D01*
X24644260Y-189151000D01*
X24555740Y-189151000D01*
X24489558Y-189144482D01*
X24423373Y-189137963D01*
X24253534Y-189086443D01*
X24097009Y-189002778D01*
X24061271Y-188973448D01*
X23959814Y-188890186D01*
X23876552Y-188788729D01*
X23847222Y-188752991D01*
X23763557Y-188596466D01*
X23712037Y-188426627D01*
X23694641Y-188250000D01*
X23712037Y-188073373D01*
X23763557Y-187903534D01*
X23847222Y-187747009D01*
X23876552Y-187711271D01*
X23959814Y-187609814D01*
X24061271Y-187526552D01*
X24097009Y-187497222D01*
X24253534Y-187413557D01*
X24423373Y-187362037D01*
X24489558Y-187355518D01*
X24555740Y-187349000D01*
X24644260Y-187349000D01*
X24710442Y-187355518D01*
X24710442Y-187355518D01*
G37*
G36*
X27250442Y-187355518D02*
G01*
X27316627Y-187362037D01*
X27486466Y-187413557D01*
X27642991Y-187497222D01*
X27678729Y-187526552D01*
X27780186Y-187609814D01*
X27863448Y-187711271D01*
X27892778Y-187747009D01*
X27976443Y-187903534D01*
X28027963Y-188073373D01*
X28045359Y-188250000D01*
X28027963Y-188426627D01*
X27976443Y-188596466D01*
X27892778Y-188752991D01*
X27863448Y-188788729D01*
X27780186Y-188890186D01*
X27678729Y-188973448D01*
X27642991Y-189002778D01*
X27486466Y-189086443D01*
X27316627Y-189137963D01*
X27250442Y-189144482D01*
X27184260Y-189151000D01*
X27095740Y-189151000D01*
X27029558Y-189144482D01*
X26963373Y-189137963D01*
X26793534Y-189086443D01*
X26637009Y-189002778D01*
X26601271Y-188973448D01*
X26499814Y-188890186D01*
X26416552Y-188788729D01*
X26387222Y-188752991D01*
X26303557Y-188596466D01*
X26252037Y-188426627D01*
X26234641Y-188250000D01*
X26252037Y-188073373D01*
X26303557Y-187903534D01*
X26387222Y-187747009D01*
X26416552Y-187711271D01*
X26499814Y-187609814D01*
X26601271Y-187526552D01*
X26637009Y-187497222D01*
X26793534Y-187413557D01*
X26963373Y-187362037D01*
X27029558Y-187355518D01*
X27095740Y-187349000D01*
X27184260Y-187349000D01*
X27250442Y-187355518D01*
X27250442Y-187355518D01*
G37*
G36*
X29790442Y-187355518D02*
G01*
X29856627Y-187362037D01*
X30026466Y-187413557D01*
X30182991Y-187497222D01*
X30218729Y-187526552D01*
X30320186Y-187609814D01*
X30403448Y-187711271D01*
X30432778Y-187747009D01*
X30516443Y-187903534D01*
X30567963Y-188073373D01*
X30585359Y-188250000D01*
X30567963Y-188426627D01*
X30516443Y-188596466D01*
X30432778Y-188752991D01*
X30403448Y-188788729D01*
X30320186Y-188890186D01*
X30218729Y-188973448D01*
X30182991Y-189002778D01*
X30026466Y-189086443D01*
X29856627Y-189137963D01*
X29790442Y-189144482D01*
X29724260Y-189151000D01*
X29635740Y-189151000D01*
X29569558Y-189144482D01*
X29503373Y-189137963D01*
X29333534Y-189086443D01*
X29177009Y-189002778D01*
X29141271Y-188973448D01*
X29039814Y-188890186D01*
X28956552Y-188788729D01*
X28927222Y-188752991D01*
X28843557Y-188596466D01*
X28792037Y-188426627D01*
X28774641Y-188250000D01*
X28792037Y-188073373D01*
X28843557Y-187903534D01*
X28927222Y-187747009D01*
X28956552Y-187711271D01*
X29039814Y-187609814D01*
X29141271Y-187526552D01*
X29177009Y-187497222D01*
X29333534Y-187413557D01*
X29503373Y-187362037D01*
X29569558Y-187355518D01*
X29635740Y-187349000D01*
X29724260Y-187349000D01*
X29790442Y-187355518D01*
X29790442Y-187355518D01*
G37*
G36*
X32330442Y-187355518D02*
G01*
X32396627Y-187362037D01*
X32566466Y-187413557D01*
X32722991Y-187497222D01*
X32758729Y-187526552D01*
X32860186Y-187609814D01*
X32943448Y-187711271D01*
X32972778Y-187747009D01*
X33056443Y-187903534D01*
X33107963Y-188073373D01*
X33125359Y-188250000D01*
X33107963Y-188426627D01*
X33056443Y-188596466D01*
X32972778Y-188752991D01*
X32943448Y-188788729D01*
X32860186Y-188890186D01*
X32758729Y-188973448D01*
X32722991Y-189002778D01*
X32566466Y-189086443D01*
X32396627Y-189137963D01*
X32330442Y-189144482D01*
X32264260Y-189151000D01*
X32175740Y-189151000D01*
X32109558Y-189144482D01*
X32043373Y-189137963D01*
X31873534Y-189086443D01*
X31717009Y-189002778D01*
X31681271Y-188973448D01*
X31579814Y-188890186D01*
X31496552Y-188788729D01*
X31467222Y-188752991D01*
X31383557Y-188596466D01*
X31332037Y-188426627D01*
X31314641Y-188250000D01*
X31332037Y-188073373D01*
X31383557Y-187903534D01*
X31467222Y-187747009D01*
X31496552Y-187711271D01*
X31579814Y-187609814D01*
X31681271Y-187526552D01*
X31717009Y-187497222D01*
X31873534Y-187413557D01*
X32043373Y-187362037D01*
X32109558Y-187355518D01*
X32175740Y-187349000D01*
X32264260Y-187349000D01*
X32330442Y-187355518D01*
X32330442Y-187355518D01*
G37*
G36*
X34870442Y-187355518D02*
G01*
X34936627Y-187362037D01*
X35106466Y-187413557D01*
X35262991Y-187497222D01*
X35298729Y-187526552D01*
X35400186Y-187609814D01*
X35483448Y-187711271D01*
X35512778Y-187747009D01*
X35596443Y-187903534D01*
X35647963Y-188073373D01*
X35665359Y-188250000D01*
X35647963Y-188426627D01*
X35596443Y-188596466D01*
X35512778Y-188752991D01*
X35483448Y-188788729D01*
X35400186Y-188890186D01*
X35298729Y-188973448D01*
X35262991Y-189002778D01*
X35106466Y-189086443D01*
X34936627Y-189137963D01*
X34870442Y-189144482D01*
X34804260Y-189151000D01*
X34715740Y-189151000D01*
X34649558Y-189144482D01*
X34583373Y-189137963D01*
X34413534Y-189086443D01*
X34257009Y-189002778D01*
X34221271Y-188973448D01*
X34119814Y-188890186D01*
X34036552Y-188788729D01*
X34007222Y-188752991D01*
X33923557Y-188596466D01*
X33872037Y-188426627D01*
X33854641Y-188250000D01*
X33872037Y-188073373D01*
X33923557Y-187903534D01*
X34007222Y-187747009D01*
X34036552Y-187711271D01*
X34119814Y-187609814D01*
X34221271Y-187526552D01*
X34257009Y-187497222D01*
X34413534Y-187413557D01*
X34583373Y-187362037D01*
X34649558Y-187355518D01*
X34715740Y-187349000D01*
X34804260Y-187349000D01*
X34870442Y-187355518D01*
X34870442Y-187355518D01*
G37*
G36*
X37410442Y-187355518D02*
G01*
X37476627Y-187362037D01*
X37646466Y-187413557D01*
X37802991Y-187497222D01*
X37838729Y-187526552D01*
X37940186Y-187609814D01*
X38023448Y-187711271D01*
X38052778Y-187747009D01*
X38136443Y-187903534D01*
X38187963Y-188073373D01*
X38205359Y-188250000D01*
X38187963Y-188426627D01*
X38136443Y-188596466D01*
X38052778Y-188752991D01*
X38023448Y-188788729D01*
X37940186Y-188890186D01*
X37838729Y-188973448D01*
X37802991Y-189002778D01*
X37646466Y-189086443D01*
X37476627Y-189137963D01*
X37410442Y-189144482D01*
X37344260Y-189151000D01*
X37255740Y-189151000D01*
X37189558Y-189144482D01*
X37123373Y-189137963D01*
X36953534Y-189086443D01*
X36797009Y-189002778D01*
X36761271Y-188973448D01*
X36659814Y-188890186D01*
X36576552Y-188788729D01*
X36547222Y-188752991D01*
X36463557Y-188596466D01*
X36412037Y-188426627D01*
X36394641Y-188250000D01*
X36412037Y-188073373D01*
X36463557Y-187903534D01*
X36547222Y-187747009D01*
X36576552Y-187711271D01*
X36659814Y-187609814D01*
X36761271Y-187526552D01*
X36797009Y-187497222D01*
X36953534Y-187413557D01*
X37123373Y-187362037D01*
X37189558Y-187355518D01*
X37255740Y-187349000D01*
X37344260Y-187349000D01*
X37410442Y-187355518D01*
X37410442Y-187355518D01*
G37*
G36*
X39950442Y-187355518D02*
G01*
X40016627Y-187362037D01*
X40186466Y-187413557D01*
X40342991Y-187497222D01*
X40378729Y-187526552D01*
X40480186Y-187609814D01*
X40563448Y-187711271D01*
X40592778Y-187747009D01*
X40676443Y-187903534D01*
X40727963Y-188073373D01*
X40745359Y-188250000D01*
X40727963Y-188426627D01*
X40676443Y-188596466D01*
X40592778Y-188752991D01*
X40563448Y-188788729D01*
X40480186Y-188890186D01*
X40378729Y-188973448D01*
X40342991Y-189002778D01*
X40186466Y-189086443D01*
X40016627Y-189137963D01*
X39950442Y-189144482D01*
X39884260Y-189151000D01*
X39795740Y-189151000D01*
X39729558Y-189144482D01*
X39663373Y-189137963D01*
X39493534Y-189086443D01*
X39337009Y-189002778D01*
X39301271Y-188973448D01*
X39199814Y-188890186D01*
X39116552Y-188788729D01*
X39087222Y-188752991D01*
X39003557Y-188596466D01*
X38952037Y-188426627D01*
X38934641Y-188250000D01*
X38952037Y-188073373D01*
X39003557Y-187903534D01*
X39087222Y-187747009D01*
X39116552Y-187711271D01*
X39199814Y-187609814D01*
X39301271Y-187526552D01*
X39337009Y-187497222D01*
X39493534Y-187413557D01*
X39663373Y-187362037D01*
X39729558Y-187355518D01*
X39795740Y-187349000D01*
X39884260Y-187349000D01*
X39950442Y-187355518D01*
X39950442Y-187355518D01*
G37*
G36*
X42490442Y-187355518D02*
G01*
X42556627Y-187362037D01*
X42726466Y-187413557D01*
X42882991Y-187497222D01*
X42918729Y-187526552D01*
X43020186Y-187609814D01*
X43103448Y-187711271D01*
X43132778Y-187747009D01*
X43216443Y-187903534D01*
X43267963Y-188073373D01*
X43285359Y-188250000D01*
X43267963Y-188426627D01*
X43216443Y-188596466D01*
X43132778Y-188752991D01*
X43103448Y-188788729D01*
X43020186Y-188890186D01*
X42918729Y-188973448D01*
X42882991Y-189002778D01*
X42726466Y-189086443D01*
X42556627Y-189137963D01*
X42490442Y-189144482D01*
X42424260Y-189151000D01*
X42335740Y-189151000D01*
X42269558Y-189144482D01*
X42203373Y-189137963D01*
X42033534Y-189086443D01*
X41877009Y-189002778D01*
X41841271Y-188973448D01*
X41739814Y-188890186D01*
X41656552Y-188788729D01*
X41627222Y-188752991D01*
X41543557Y-188596466D01*
X41492037Y-188426627D01*
X41474641Y-188250000D01*
X41492037Y-188073373D01*
X41543557Y-187903534D01*
X41627222Y-187747009D01*
X41656552Y-187711271D01*
X41739814Y-187609814D01*
X41841271Y-187526552D01*
X41877009Y-187497222D01*
X42033534Y-187413557D01*
X42203373Y-187362037D01*
X42269558Y-187355518D01*
X42335740Y-187349000D01*
X42424260Y-187349000D01*
X42490442Y-187355518D01*
X42490442Y-187355518D01*
G37*
G36*
X72970442Y-187355518D02*
G01*
X73036627Y-187362037D01*
X73206466Y-187413557D01*
X73362991Y-187497222D01*
X73398729Y-187526552D01*
X73500186Y-187609814D01*
X73583448Y-187711271D01*
X73612778Y-187747009D01*
X73696443Y-187903534D01*
X73747963Y-188073373D01*
X73765359Y-188250000D01*
X73747963Y-188426627D01*
X73696443Y-188596466D01*
X73612778Y-188752991D01*
X73583448Y-188788729D01*
X73500186Y-188890186D01*
X73398729Y-188973448D01*
X73362991Y-189002778D01*
X73206466Y-189086443D01*
X73036627Y-189137963D01*
X72970442Y-189144482D01*
X72904260Y-189151000D01*
X72815740Y-189151000D01*
X72749558Y-189144482D01*
X72683373Y-189137963D01*
X72513534Y-189086443D01*
X72357009Y-189002778D01*
X72321271Y-188973448D01*
X72219814Y-188890186D01*
X72136552Y-188788729D01*
X72107222Y-188752991D01*
X72023557Y-188596466D01*
X71972037Y-188426627D01*
X71954641Y-188250000D01*
X71972037Y-188073373D01*
X72023557Y-187903534D01*
X72107222Y-187747009D01*
X72136552Y-187711271D01*
X72219814Y-187609814D01*
X72321271Y-187526552D01*
X72357009Y-187497222D01*
X72513534Y-187413557D01*
X72683373Y-187362037D01*
X72749558Y-187355518D01*
X72815740Y-187349000D01*
X72904260Y-187349000D01*
X72970442Y-187355518D01*
X72970442Y-187355518D01*
G37*
G36*
X50110442Y-187355518D02*
G01*
X50176627Y-187362037D01*
X50346466Y-187413557D01*
X50502991Y-187497222D01*
X50538729Y-187526552D01*
X50640186Y-187609814D01*
X50723448Y-187711271D01*
X50752778Y-187747009D01*
X50836443Y-187903534D01*
X50887963Y-188073373D01*
X50905359Y-188250000D01*
X50887963Y-188426627D01*
X50836443Y-188596466D01*
X50752778Y-188752991D01*
X50723448Y-188788729D01*
X50640186Y-188890186D01*
X50538729Y-188973448D01*
X50502991Y-189002778D01*
X50346466Y-189086443D01*
X50176627Y-189137963D01*
X50110442Y-189144482D01*
X50044260Y-189151000D01*
X49955740Y-189151000D01*
X49889558Y-189144482D01*
X49823373Y-189137963D01*
X49653534Y-189086443D01*
X49497009Y-189002778D01*
X49461271Y-188973448D01*
X49359814Y-188890186D01*
X49276552Y-188788729D01*
X49247222Y-188752991D01*
X49163557Y-188596466D01*
X49112037Y-188426627D01*
X49094641Y-188250000D01*
X49112037Y-188073373D01*
X49163557Y-187903534D01*
X49247222Y-187747009D01*
X49276552Y-187711271D01*
X49359814Y-187609814D01*
X49461271Y-187526552D01*
X49497009Y-187497222D01*
X49653534Y-187413557D01*
X49823373Y-187362037D01*
X49889558Y-187355518D01*
X49955740Y-187349000D01*
X50044260Y-187349000D01*
X50110442Y-187355518D01*
X50110442Y-187355518D01*
G37*
G36*
X52650442Y-187355518D02*
G01*
X52716627Y-187362037D01*
X52886466Y-187413557D01*
X53042991Y-187497222D01*
X53078729Y-187526552D01*
X53180186Y-187609814D01*
X53263448Y-187711271D01*
X53292778Y-187747009D01*
X53376443Y-187903534D01*
X53427963Y-188073373D01*
X53445359Y-188250000D01*
X53427963Y-188426627D01*
X53376443Y-188596466D01*
X53292778Y-188752991D01*
X53263448Y-188788729D01*
X53180186Y-188890186D01*
X53078729Y-188973448D01*
X53042991Y-189002778D01*
X52886466Y-189086443D01*
X52716627Y-189137963D01*
X52650442Y-189144482D01*
X52584260Y-189151000D01*
X52495740Y-189151000D01*
X52429558Y-189144482D01*
X52363373Y-189137963D01*
X52193534Y-189086443D01*
X52037009Y-189002778D01*
X52001271Y-188973448D01*
X51899814Y-188890186D01*
X51816552Y-188788729D01*
X51787222Y-188752991D01*
X51703557Y-188596466D01*
X51652037Y-188426627D01*
X51634641Y-188250000D01*
X51652037Y-188073373D01*
X51703557Y-187903534D01*
X51787222Y-187747009D01*
X51816552Y-187711271D01*
X51899814Y-187609814D01*
X52001271Y-187526552D01*
X52037009Y-187497222D01*
X52193534Y-187413557D01*
X52363373Y-187362037D01*
X52429558Y-187355518D01*
X52495740Y-187349000D01*
X52584260Y-187349000D01*
X52650442Y-187355518D01*
X52650442Y-187355518D01*
G37*
G36*
X55190442Y-187355518D02*
G01*
X55256627Y-187362037D01*
X55426466Y-187413557D01*
X55582991Y-187497222D01*
X55618729Y-187526552D01*
X55720186Y-187609814D01*
X55803448Y-187711271D01*
X55832778Y-187747009D01*
X55916443Y-187903534D01*
X55967963Y-188073373D01*
X55985359Y-188250000D01*
X55967963Y-188426627D01*
X55916443Y-188596466D01*
X55832778Y-188752991D01*
X55803448Y-188788729D01*
X55720186Y-188890186D01*
X55618729Y-188973448D01*
X55582991Y-189002778D01*
X55426466Y-189086443D01*
X55256627Y-189137963D01*
X55190442Y-189144482D01*
X55124260Y-189151000D01*
X55035740Y-189151000D01*
X54969558Y-189144482D01*
X54903373Y-189137963D01*
X54733534Y-189086443D01*
X54577009Y-189002778D01*
X54541271Y-188973448D01*
X54439814Y-188890186D01*
X54356552Y-188788729D01*
X54327222Y-188752991D01*
X54243557Y-188596466D01*
X54192037Y-188426627D01*
X54174641Y-188250000D01*
X54192037Y-188073373D01*
X54243557Y-187903534D01*
X54327222Y-187747009D01*
X54356552Y-187711271D01*
X54439814Y-187609814D01*
X54541271Y-187526552D01*
X54577009Y-187497222D01*
X54733534Y-187413557D01*
X54903373Y-187362037D01*
X54969558Y-187355518D01*
X55035740Y-187349000D01*
X55124260Y-187349000D01*
X55190442Y-187355518D01*
X55190442Y-187355518D01*
G37*
G36*
X57730442Y-187355518D02*
G01*
X57796627Y-187362037D01*
X57966466Y-187413557D01*
X58122991Y-187497222D01*
X58158729Y-187526552D01*
X58260186Y-187609814D01*
X58343448Y-187711271D01*
X58372778Y-187747009D01*
X58456443Y-187903534D01*
X58507963Y-188073373D01*
X58525359Y-188250000D01*
X58507963Y-188426627D01*
X58456443Y-188596466D01*
X58372778Y-188752991D01*
X58343448Y-188788729D01*
X58260186Y-188890186D01*
X58158729Y-188973448D01*
X58122991Y-189002778D01*
X57966466Y-189086443D01*
X57796627Y-189137963D01*
X57730442Y-189144482D01*
X57664260Y-189151000D01*
X57575740Y-189151000D01*
X57509558Y-189144482D01*
X57443373Y-189137963D01*
X57273534Y-189086443D01*
X57117009Y-189002778D01*
X57081271Y-188973448D01*
X56979814Y-188890186D01*
X56896552Y-188788729D01*
X56867222Y-188752991D01*
X56783557Y-188596466D01*
X56732037Y-188426627D01*
X56714641Y-188250000D01*
X56732037Y-188073373D01*
X56783557Y-187903534D01*
X56867222Y-187747009D01*
X56896552Y-187711271D01*
X56979814Y-187609814D01*
X57081271Y-187526552D01*
X57117009Y-187497222D01*
X57273534Y-187413557D01*
X57443373Y-187362037D01*
X57509558Y-187355518D01*
X57575740Y-187349000D01*
X57664260Y-187349000D01*
X57730442Y-187355518D01*
X57730442Y-187355518D01*
G37*
G36*
X60270442Y-187355518D02*
G01*
X60336627Y-187362037D01*
X60506466Y-187413557D01*
X60662991Y-187497222D01*
X60698729Y-187526552D01*
X60800186Y-187609814D01*
X60883448Y-187711271D01*
X60912778Y-187747009D01*
X60996443Y-187903534D01*
X61047963Y-188073373D01*
X61065359Y-188250000D01*
X61047963Y-188426627D01*
X60996443Y-188596466D01*
X60912778Y-188752991D01*
X60883448Y-188788729D01*
X60800186Y-188890186D01*
X60698729Y-188973448D01*
X60662991Y-189002778D01*
X60506466Y-189086443D01*
X60336627Y-189137963D01*
X60270442Y-189144482D01*
X60204260Y-189151000D01*
X60115740Y-189151000D01*
X60049558Y-189144482D01*
X59983373Y-189137963D01*
X59813534Y-189086443D01*
X59657009Y-189002778D01*
X59621271Y-188973448D01*
X59519814Y-188890186D01*
X59436552Y-188788729D01*
X59407222Y-188752991D01*
X59323557Y-188596466D01*
X59272037Y-188426627D01*
X59254641Y-188250000D01*
X59272037Y-188073373D01*
X59323557Y-187903534D01*
X59407222Y-187747009D01*
X59436552Y-187711271D01*
X59519814Y-187609814D01*
X59621271Y-187526552D01*
X59657009Y-187497222D01*
X59813534Y-187413557D01*
X59983373Y-187362037D01*
X60049558Y-187355518D01*
X60115740Y-187349000D01*
X60204260Y-187349000D01*
X60270442Y-187355518D01*
X60270442Y-187355518D01*
G37*
G36*
X62810442Y-187355518D02*
G01*
X62876627Y-187362037D01*
X63046466Y-187413557D01*
X63202991Y-187497222D01*
X63238729Y-187526552D01*
X63340186Y-187609814D01*
X63423448Y-187711271D01*
X63452778Y-187747009D01*
X63536443Y-187903534D01*
X63587963Y-188073373D01*
X63605359Y-188250000D01*
X63587963Y-188426627D01*
X63536443Y-188596466D01*
X63452778Y-188752991D01*
X63423448Y-188788729D01*
X63340186Y-188890186D01*
X63238729Y-188973448D01*
X63202991Y-189002778D01*
X63046466Y-189086443D01*
X62876627Y-189137963D01*
X62810442Y-189144482D01*
X62744260Y-189151000D01*
X62655740Y-189151000D01*
X62589558Y-189144482D01*
X62523373Y-189137963D01*
X62353534Y-189086443D01*
X62197009Y-189002778D01*
X62161271Y-188973448D01*
X62059814Y-188890186D01*
X61976552Y-188788729D01*
X61947222Y-188752991D01*
X61863557Y-188596466D01*
X61812037Y-188426627D01*
X61794641Y-188250000D01*
X61812037Y-188073373D01*
X61863557Y-187903534D01*
X61947222Y-187747009D01*
X61976552Y-187711271D01*
X62059814Y-187609814D01*
X62161271Y-187526552D01*
X62197009Y-187497222D01*
X62353534Y-187413557D01*
X62523373Y-187362037D01*
X62589558Y-187355518D01*
X62655740Y-187349000D01*
X62744260Y-187349000D01*
X62810442Y-187355518D01*
X62810442Y-187355518D01*
G37*
G36*
X65350442Y-187355518D02*
G01*
X65416627Y-187362037D01*
X65586466Y-187413557D01*
X65742991Y-187497222D01*
X65778729Y-187526552D01*
X65880186Y-187609814D01*
X65963448Y-187711271D01*
X65992778Y-187747009D01*
X66076443Y-187903534D01*
X66127963Y-188073373D01*
X66145359Y-188250000D01*
X66127963Y-188426627D01*
X66076443Y-188596466D01*
X65992778Y-188752991D01*
X65963448Y-188788729D01*
X65880186Y-188890186D01*
X65778729Y-188973448D01*
X65742991Y-189002778D01*
X65586466Y-189086443D01*
X65416627Y-189137963D01*
X65350442Y-189144482D01*
X65284260Y-189151000D01*
X65195740Y-189151000D01*
X65129558Y-189144482D01*
X65063373Y-189137963D01*
X64893534Y-189086443D01*
X64737009Y-189002778D01*
X64701271Y-188973448D01*
X64599814Y-188890186D01*
X64516552Y-188788729D01*
X64487222Y-188752991D01*
X64403557Y-188596466D01*
X64352037Y-188426627D01*
X64334641Y-188250000D01*
X64352037Y-188073373D01*
X64403557Y-187903534D01*
X64487222Y-187747009D01*
X64516552Y-187711271D01*
X64599814Y-187609814D01*
X64701271Y-187526552D01*
X64737009Y-187497222D01*
X64893534Y-187413557D01*
X65063373Y-187362037D01*
X65129558Y-187355518D01*
X65195740Y-187349000D01*
X65284260Y-187349000D01*
X65350442Y-187355518D01*
X65350442Y-187355518D01*
G37*
G36*
X67890442Y-187355518D02*
G01*
X67956627Y-187362037D01*
X68126466Y-187413557D01*
X68282991Y-187497222D01*
X68318729Y-187526552D01*
X68420186Y-187609814D01*
X68503448Y-187711271D01*
X68532778Y-187747009D01*
X68616443Y-187903534D01*
X68667963Y-188073373D01*
X68685359Y-188250000D01*
X68667963Y-188426627D01*
X68616443Y-188596466D01*
X68532778Y-188752991D01*
X68503448Y-188788729D01*
X68420186Y-188890186D01*
X68318729Y-188973448D01*
X68282991Y-189002778D01*
X68126466Y-189086443D01*
X67956627Y-189137963D01*
X67890442Y-189144482D01*
X67824260Y-189151000D01*
X67735740Y-189151000D01*
X67669558Y-189144482D01*
X67603373Y-189137963D01*
X67433534Y-189086443D01*
X67277009Y-189002778D01*
X67241271Y-188973448D01*
X67139814Y-188890186D01*
X67056552Y-188788729D01*
X67027222Y-188752991D01*
X66943557Y-188596466D01*
X66892037Y-188426627D01*
X66874641Y-188250000D01*
X66892037Y-188073373D01*
X66943557Y-187903534D01*
X67027222Y-187747009D01*
X67056552Y-187711271D01*
X67139814Y-187609814D01*
X67241271Y-187526552D01*
X67277009Y-187497222D01*
X67433534Y-187413557D01*
X67603373Y-187362037D01*
X67669558Y-187355518D01*
X67735740Y-187349000D01*
X67824260Y-187349000D01*
X67890442Y-187355518D01*
X67890442Y-187355518D01*
G37*
G36*
X95830442Y-187355518D02*
G01*
X95896627Y-187362037D01*
X96066466Y-187413557D01*
X96222991Y-187497222D01*
X96258729Y-187526552D01*
X96360186Y-187609814D01*
X96443448Y-187711271D01*
X96472778Y-187747009D01*
X96556443Y-187903534D01*
X96607963Y-188073373D01*
X96625359Y-188250000D01*
X96607963Y-188426627D01*
X96556443Y-188596466D01*
X96472778Y-188752991D01*
X96443448Y-188788729D01*
X96360186Y-188890186D01*
X96258729Y-188973448D01*
X96222991Y-189002778D01*
X96066466Y-189086443D01*
X95896627Y-189137963D01*
X95830442Y-189144482D01*
X95764260Y-189151000D01*
X95675740Y-189151000D01*
X95609558Y-189144482D01*
X95543373Y-189137963D01*
X95373534Y-189086443D01*
X95217009Y-189002778D01*
X95181271Y-188973448D01*
X95079814Y-188890186D01*
X94996552Y-188788729D01*
X94967222Y-188752991D01*
X94883557Y-188596466D01*
X94832037Y-188426627D01*
X94814641Y-188250000D01*
X94832037Y-188073373D01*
X94883557Y-187903534D01*
X94967222Y-187747009D01*
X94996552Y-187711271D01*
X95079814Y-187609814D01*
X95181271Y-187526552D01*
X95217009Y-187497222D01*
X95373534Y-187413557D01*
X95543373Y-187362037D01*
X95609558Y-187355518D01*
X95675740Y-187349000D01*
X95764260Y-187349000D01*
X95830442Y-187355518D01*
X95830442Y-187355518D01*
G37*
G36*
X118690442Y-187355518D02*
G01*
X118756627Y-187362037D01*
X118926466Y-187413557D01*
X119082991Y-187497222D01*
X119118729Y-187526552D01*
X119220186Y-187609814D01*
X119303448Y-187711271D01*
X119332778Y-187747009D01*
X119416443Y-187903534D01*
X119467963Y-188073373D01*
X119485359Y-188250000D01*
X119467963Y-188426627D01*
X119416443Y-188596466D01*
X119332778Y-188752991D01*
X119303448Y-188788729D01*
X119220186Y-188890186D01*
X119118729Y-188973448D01*
X119082991Y-189002778D01*
X118926466Y-189086443D01*
X118756627Y-189137963D01*
X118690442Y-189144482D01*
X118624260Y-189151000D01*
X118535740Y-189151000D01*
X118469558Y-189144482D01*
X118403373Y-189137963D01*
X118233534Y-189086443D01*
X118077009Y-189002778D01*
X118041271Y-188973448D01*
X117939814Y-188890186D01*
X117856552Y-188788729D01*
X117827222Y-188752991D01*
X117743557Y-188596466D01*
X117692037Y-188426627D01*
X117674641Y-188250000D01*
X117692037Y-188073373D01*
X117743557Y-187903534D01*
X117827222Y-187747009D01*
X117856552Y-187711271D01*
X117939814Y-187609814D01*
X118041271Y-187526552D01*
X118077009Y-187497222D01*
X118233534Y-187413557D01*
X118403373Y-187362037D01*
X118469558Y-187355518D01*
X118535740Y-187349000D01*
X118624260Y-187349000D01*
X118690442Y-187355518D01*
X118690442Y-187355518D01*
G37*
G36*
X75510442Y-187355518D02*
G01*
X75576627Y-187362037D01*
X75746466Y-187413557D01*
X75902991Y-187497222D01*
X75938729Y-187526552D01*
X76040186Y-187609814D01*
X76123448Y-187711271D01*
X76152778Y-187747009D01*
X76236443Y-187903534D01*
X76287963Y-188073373D01*
X76305359Y-188250000D01*
X76287963Y-188426627D01*
X76236443Y-188596466D01*
X76152778Y-188752991D01*
X76123448Y-188788729D01*
X76040186Y-188890186D01*
X75938729Y-188973448D01*
X75902991Y-189002778D01*
X75746466Y-189086443D01*
X75576627Y-189137963D01*
X75510442Y-189144482D01*
X75444260Y-189151000D01*
X75355740Y-189151000D01*
X75289558Y-189144482D01*
X75223373Y-189137963D01*
X75053534Y-189086443D01*
X74897009Y-189002778D01*
X74861271Y-188973448D01*
X74759814Y-188890186D01*
X74676552Y-188788729D01*
X74647222Y-188752991D01*
X74563557Y-188596466D01*
X74512037Y-188426627D01*
X74494641Y-188250000D01*
X74512037Y-188073373D01*
X74563557Y-187903534D01*
X74647222Y-187747009D01*
X74676552Y-187711271D01*
X74759814Y-187609814D01*
X74861271Y-187526552D01*
X74897009Y-187497222D01*
X75053534Y-187413557D01*
X75223373Y-187362037D01*
X75289558Y-187355518D01*
X75355740Y-187349000D01*
X75444260Y-187349000D01*
X75510442Y-187355518D01*
X75510442Y-187355518D01*
G37*
G36*
X78050442Y-187355518D02*
G01*
X78116627Y-187362037D01*
X78286466Y-187413557D01*
X78442991Y-187497222D01*
X78478729Y-187526552D01*
X78580186Y-187609814D01*
X78663448Y-187711271D01*
X78692778Y-187747009D01*
X78776443Y-187903534D01*
X78827963Y-188073373D01*
X78845359Y-188250000D01*
X78827963Y-188426627D01*
X78776443Y-188596466D01*
X78692778Y-188752991D01*
X78663448Y-188788729D01*
X78580186Y-188890186D01*
X78478729Y-188973448D01*
X78442991Y-189002778D01*
X78286466Y-189086443D01*
X78116627Y-189137963D01*
X78050442Y-189144482D01*
X77984260Y-189151000D01*
X77895740Y-189151000D01*
X77829558Y-189144482D01*
X77763373Y-189137963D01*
X77593534Y-189086443D01*
X77437009Y-189002778D01*
X77401271Y-188973448D01*
X77299814Y-188890186D01*
X77216552Y-188788729D01*
X77187222Y-188752991D01*
X77103557Y-188596466D01*
X77052037Y-188426627D01*
X77034641Y-188250000D01*
X77052037Y-188073373D01*
X77103557Y-187903534D01*
X77187222Y-187747009D01*
X77216552Y-187711271D01*
X77299814Y-187609814D01*
X77401271Y-187526552D01*
X77437009Y-187497222D01*
X77593534Y-187413557D01*
X77763373Y-187362037D01*
X77829558Y-187355518D01*
X77895740Y-187349000D01*
X77984260Y-187349000D01*
X78050442Y-187355518D01*
X78050442Y-187355518D01*
G37*
G36*
X80590442Y-187355518D02*
G01*
X80656627Y-187362037D01*
X80826466Y-187413557D01*
X80982991Y-187497222D01*
X81018729Y-187526552D01*
X81120186Y-187609814D01*
X81203448Y-187711271D01*
X81232778Y-187747009D01*
X81316443Y-187903534D01*
X81367963Y-188073373D01*
X81385359Y-188250000D01*
X81367963Y-188426627D01*
X81316443Y-188596466D01*
X81232778Y-188752991D01*
X81203448Y-188788729D01*
X81120186Y-188890186D01*
X81018729Y-188973448D01*
X80982991Y-189002778D01*
X80826466Y-189086443D01*
X80656627Y-189137963D01*
X80590442Y-189144482D01*
X80524260Y-189151000D01*
X80435740Y-189151000D01*
X80369558Y-189144482D01*
X80303373Y-189137963D01*
X80133534Y-189086443D01*
X79977009Y-189002778D01*
X79941271Y-188973448D01*
X79839814Y-188890186D01*
X79756552Y-188788729D01*
X79727222Y-188752991D01*
X79643557Y-188596466D01*
X79592037Y-188426627D01*
X79574641Y-188250000D01*
X79592037Y-188073373D01*
X79643557Y-187903534D01*
X79727222Y-187747009D01*
X79756552Y-187711271D01*
X79839814Y-187609814D01*
X79941271Y-187526552D01*
X79977009Y-187497222D01*
X80133534Y-187413557D01*
X80303373Y-187362037D01*
X80369558Y-187355518D01*
X80435740Y-187349000D01*
X80524260Y-187349000D01*
X80590442Y-187355518D01*
X80590442Y-187355518D01*
G37*
G36*
X83130442Y-187355518D02*
G01*
X83196627Y-187362037D01*
X83366466Y-187413557D01*
X83522991Y-187497222D01*
X83558729Y-187526552D01*
X83660186Y-187609814D01*
X83743448Y-187711271D01*
X83772778Y-187747009D01*
X83856443Y-187903534D01*
X83907963Y-188073373D01*
X83925359Y-188250000D01*
X83907963Y-188426627D01*
X83856443Y-188596466D01*
X83772778Y-188752991D01*
X83743448Y-188788729D01*
X83660186Y-188890186D01*
X83558729Y-188973448D01*
X83522991Y-189002778D01*
X83366466Y-189086443D01*
X83196627Y-189137963D01*
X83130442Y-189144482D01*
X83064260Y-189151000D01*
X82975740Y-189151000D01*
X82909558Y-189144482D01*
X82843373Y-189137963D01*
X82673534Y-189086443D01*
X82517009Y-189002778D01*
X82481271Y-188973448D01*
X82379814Y-188890186D01*
X82296552Y-188788729D01*
X82267222Y-188752991D01*
X82183557Y-188596466D01*
X82132037Y-188426627D01*
X82114641Y-188250000D01*
X82132037Y-188073373D01*
X82183557Y-187903534D01*
X82267222Y-187747009D01*
X82296552Y-187711271D01*
X82379814Y-187609814D01*
X82481271Y-187526552D01*
X82517009Y-187497222D01*
X82673534Y-187413557D01*
X82843373Y-187362037D01*
X82909558Y-187355518D01*
X82975740Y-187349000D01*
X83064260Y-187349000D01*
X83130442Y-187355518D01*
X83130442Y-187355518D01*
G37*
G36*
X85670442Y-187355518D02*
G01*
X85736627Y-187362037D01*
X85906466Y-187413557D01*
X86062991Y-187497222D01*
X86098729Y-187526552D01*
X86200186Y-187609814D01*
X86283448Y-187711271D01*
X86312778Y-187747009D01*
X86396443Y-187903534D01*
X86447963Y-188073373D01*
X86465359Y-188250000D01*
X86447963Y-188426627D01*
X86396443Y-188596466D01*
X86312778Y-188752991D01*
X86283448Y-188788729D01*
X86200186Y-188890186D01*
X86098729Y-188973448D01*
X86062991Y-189002778D01*
X85906466Y-189086443D01*
X85736627Y-189137963D01*
X85670442Y-189144482D01*
X85604260Y-189151000D01*
X85515740Y-189151000D01*
X85449558Y-189144482D01*
X85383373Y-189137963D01*
X85213534Y-189086443D01*
X85057009Y-189002778D01*
X85021271Y-188973448D01*
X84919814Y-188890186D01*
X84836552Y-188788729D01*
X84807222Y-188752991D01*
X84723557Y-188596466D01*
X84672037Y-188426627D01*
X84654641Y-188250000D01*
X84672037Y-188073373D01*
X84723557Y-187903534D01*
X84807222Y-187747009D01*
X84836552Y-187711271D01*
X84919814Y-187609814D01*
X85021271Y-187526552D01*
X85057009Y-187497222D01*
X85213534Y-187413557D01*
X85383373Y-187362037D01*
X85449558Y-187355518D01*
X85515740Y-187349000D01*
X85604260Y-187349000D01*
X85670442Y-187355518D01*
X85670442Y-187355518D01*
G37*
G36*
X88210442Y-187355518D02*
G01*
X88276627Y-187362037D01*
X88446466Y-187413557D01*
X88602991Y-187497222D01*
X88638729Y-187526552D01*
X88740186Y-187609814D01*
X88823448Y-187711271D01*
X88852778Y-187747009D01*
X88936443Y-187903534D01*
X88987963Y-188073373D01*
X89005359Y-188250000D01*
X88987963Y-188426627D01*
X88936443Y-188596466D01*
X88852778Y-188752991D01*
X88823448Y-188788729D01*
X88740186Y-188890186D01*
X88638729Y-188973448D01*
X88602991Y-189002778D01*
X88446466Y-189086443D01*
X88276627Y-189137963D01*
X88210442Y-189144482D01*
X88144260Y-189151000D01*
X88055740Y-189151000D01*
X87989558Y-189144482D01*
X87923373Y-189137963D01*
X87753534Y-189086443D01*
X87597009Y-189002778D01*
X87561271Y-188973448D01*
X87459814Y-188890186D01*
X87376552Y-188788729D01*
X87347222Y-188752991D01*
X87263557Y-188596466D01*
X87212037Y-188426627D01*
X87194641Y-188250000D01*
X87212037Y-188073373D01*
X87263557Y-187903534D01*
X87347222Y-187747009D01*
X87376552Y-187711271D01*
X87459814Y-187609814D01*
X87561271Y-187526552D01*
X87597009Y-187497222D01*
X87753534Y-187413557D01*
X87923373Y-187362037D01*
X87989558Y-187355518D01*
X88055740Y-187349000D01*
X88144260Y-187349000D01*
X88210442Y-187355518D01*
X88210442Y-187355518D01*
G37*
G36*
X90750442Y-187355518D02*
G01*
X90816627Y-187362037D01*
X90986466Y-187413557D01*
X91142991Y-187497222D01*
X91178729Y-187526552D01*
X91280186Y-187609814D01*
X91363448Y-187711271D01*
X91392778Y-187747009D01*
X91476443Y-187903534D01*
X91527963Y-188073373D01*
X91545359Y-188250000D01*
X91527963Y-188426627D01*
X91476443Y-188596466D01*
X91392778Y-188752991D01*
X91363448Y-188788729D01*
X91280186Y-188890186D01*
X91178729Y-188973448D01*
X91142991Y-189002778D01*
X90986466Y-189086443D01*
X90816627Y-189137963D01*
X90750442Y-189144482D01*
X90684260Y-189151000D01*
X90595740Y-189151000D01*
X90529558Y-189144482D01*
X90463373Y-189137963D01*
X90293534Y-189086443D01*
X90137009Y-189002778D01*
X90101271Y-188973448D01*
X89999814Y-188890186D01*
X89916552Y-188788729D01*
X89887222Y-188752991D01*
X89803557Y-188596466D01*
X89752037Y-188426627D01*
X89734641Y-188250000D01*
X89752037Y-188073373D01*
X89803557Y-187903534D01*
X89887222Y-187747009D01*
X89916552Y-187711271D01*
X89999814Y-187609814D01*
X90101271Y-187526552D01*
X90137009Y-187497222D01*
X90293534Y-187413557D01*
X90463373Y-187362037D01*
X90529558Y-187355518D01*
X90595740Y-187349000D01*
X90684260Y-187349000D01*
X90750442Y-187355518D01*
X90750442Y-187355518D01*
G37*
G36*
X93290442Y-187355518D02*
G01*
X93356627Y-187362037D01*
X93526466Y-187413557D01*
X93682991Y-187497222D01*
X93718729Y-187526552D01*
X93820186Y-187609814D01*
X93903448Y-187711271D01*
X93932778Y-187747009D01*
X94016443Y-187903534D01*
X94067963Y-188073373D01*
X94085359Y-188250000D01*
X94067963Y-188426627D01*
X94016443Y-188596466D01*
X93932778Y-188752991D01*
X93903448Y-188788729D01*
X93820186Y-188890186D01*
X93718729Y-188973448D01*
X93682991Y-189002778D01*
X93526466Y-189086443D01*
X93356627Y-189137963D01*
X93290442Y-189144482D01*
X93224260Y-189151000D01*
X93135740Y-189151000D01*
X93069558Y-189144482D01*
X93003373Y-189137963D01*
X92833534Y-189086443D01*
X92677009Y-189002778D01*
X92641271Y-188973448D01*
X92539814Y-188890186D01*
X92456552Y-188788729D01*
X92427222Y-188752991D01*
X92343557Y-188596466D01*
X92292037Y-188426627D01*
X92274641Y-188250000D01*
X92292037Y-188073373D01*
X92343557Y-187903534D01*
X92427222Y-187747009D01*
X92456552Y-187711271D01*
X92539814Y-187609814D01*
X92641271Y-187526552D01*
X92677009Y-187497222D01*
X92833534Y-187413557D01*
X93003373Y-187362037D01*
X93069558Y-187355518D01*
X93135740Y-187349000D01*
X93224260Y-187349000D01*
X93290442Y-187355518D01*
X93290442Y-187355518D01*
G37*
G36*
X70430442Y-187355518D02*
G01*
X70496627Y-187362037D01*
X70666466Y-187413557D01*
X70822991Y-187497222D01*
X70858729Y-187526552D01*
X70960186Y-187609814D01*
X71043448Y-187711271D01*
X71072778Y-187747009D01*
X71156443Y-187903534D01*
X71207963Y-188073373D01*
X71225359Y-188250000D01*
X71207963Y-188426627D01*
X71156443Y-188596466D01*
X71072778Y-188752991D01*
X71043448Y-188788729D01*
X70960186Y-188890186D01*
X70858729Y-188973448D01*
X70822991Y-189002778D01*
X70666466Y-189086443D01*
X70496627Y-189137963D01*
X70430442Y-189144482D01*
X70364260Y-189151000D01*
X70275740Y-189151000D01*
X70209558Y-189144482D01*
X70143373Y-189137963D01*
X69973534Y-189086443D01*
X69817009Y-189002778D01*
X69781271Y-188973448D01*
X69679814Y-188890186D01*
X69596552Y-188788729D01*
X69567222Y-188752991D01*
X69483557Y-188596466D01*
X69432037Y-188426627D01*
X69414641Y-188250000D01*
X69432037Y-188073373D01*
X69483557Y-187903534D01*
X69567222Y-187747009D01*
X69596552Y-187711271D01*
X69679814Y-187609814D01*
X69781271Y-187526552D01*
X69817009Y-187497222D01*
X69973534Y-187413557D01*
X70143373Y-187362037D01*
X70209558Y-187355518D01*
X70275740Y-187349000D01*
X70364260Y-187349000D01*
X70430442Y-187355518D01*
X70430442Y-187355518D01*
G37*
G36*
X100910442Y-187355518D02*
G01*
X100976627Y-187362037D01*
X101146466Y-187413557D01*
X101302991Y-187497222D01*
X101338729Y-187526552D01*
X101440186Y-187609814D01*
X101523448Y-187711271D01*
X101552778Y-187747009D01*
X101636443Y-187903534D01*
X101687963Y-188073373D01*
X101705359Y-188250000D01*
X101687963Y-188426627D01*
X101636443Y-188596466D01*
X101552778Y-188752991D01*
X101523448Y-188788729D01*
X101440186Y-188890186D01*
X101338729Y-188973448D01*
X101302991Y-189002778D01*
X101146466Y-189086443D01*
X100976627Y-189137963D01*
X100910442Y-189144482D01*
X100844260Y-189151000D01*
X100755740Y-189151000D01*
X100689558Y-189144482D01*
X100623373Y-189137963D01*
X100453534Y-189086443D01*
X100297009Y-189002778D01*
X100261271Y-188973448D01*
X100159814Y-188890186D01*
X100076552Y-188788729D01*
X100047222Y-188752991D01*
X99963557Y-188596466D01*
X99912037Y-188426627D01*
X99894641Y-188250000D01*
X99912037Y-188073373D01*
X99963557Y-187903534D01*
X100047222Y-187747009D01*
X100076552Y-187711271D01*
X100159814Y-187609814D01*
X100261271Y-187526552D01*
X100297009Y-187497222D01*
X100453534Y-187413557D01*
X100623373Y-187362037D01*
X100689558Y-187355518D01*
X100755740Y-187349000D01*
X100844260Y-187349000D01*
X100910442Y-187355518D01*
X100910442Y-187355518D01*
G37*
G36*
X103450442Y-187355518D02*
G01*
X103516627Y-187362037D01*
X103686466Y-187413557D01*
X103842991Y-187497222D01*
X103878729Y-187526552D01*
X103980186Y-187609814D01*
X104063448Y-187711271D01*
X104092778Y-187747009D01*
X104176443Y-187903534D01*
X104227963Y-188073373D01*
X104245359Y-188250000D01*
X104227963Y-188426627D01*
X104176443Y-188596466D01*
X104092778Y-188752991D01*
X104063448Y-188788729D01*
X103980186Y-188890186D01*
X103878729Y-188973448D01*
X103842991Y-189002778D01*
X103686466Y-189086443D01*
X103516627Y-189137963D01*
X103450442Y-189144482D01*
X103384260Y-189151000D01*
X103295740Y-189151000D01*
X103229558Y-189144482D01*
X103163373Y-189137963D01*
X102993534Y-189086443D01*
X102837009Y-189002778D01*
X102801271Y-188973448D01*
X102699814Y-188890186D01*
X102616552Y-188788729D01*
X102587222Y-188752991D01*
X102503557Y-188596466D01*
X102452037Y-188426627D01*
X102434641Y-188250000D01*
X102452037Y-188073373D01*
X102503557Y-187903534D01*
X102587222Y-187747009D01*
X102616552Y-187711271D01*
X102699814Y-187609814D01*
X102801271Y-187526552D01*
X102837009Y-187497222D01*
X102993534Y-187413557D01*
X103163373Y-187362037D01*
X103229558Y-187355518D01*
X103295740Y-187349000D01*
X103384260Y-187349000D01*
X103450442Y-187355518D01*
X103450442Y-187355518D01*
G37*
G36*
X105990442Y-187355518D02*
G01*
X106056627Y-187362037D01*
X106226466Y-187413557D01*
X106382991Y-187497222D01*
X106418729Y-187526552D01*
X106520186Y-187609814D01*
X106603448Y-187711271D01*
X106632778Y-187747009D01*
X106716443Y-187903534D01*
X106767963Y-188073373D01*
X106785359Y-188250000D01*
X106767963Y-188426627D01*
X106716443Y-188596466D01*
X106632778Y-188752991D01*
X106603448Y-188788729D01*
X106520186Y-188890186D01*
X106418729Y-188973448D01*
X106382991Y-189002778D01*
X106226466Y-189086443D01*
X106056627Y-189137963D01*
X105990442Y-189144482D01*
X105924260Y-189151000D01*
X105835740Y-189151000D01*
X105769558Y-189144482D01*
X105703373Y-189137963D01*
X105533534Y-189086443D01*
X105377009Y-189002778D01*
X105341271Y-188973448D01*
X105239814Y-188890186D01*
X105156552Y-188788729D01*
X105127222Y-188752991D01*
X105043557Y-188596466D01*
X104992037Y-188426627D01*
X104974641Y-188250000D01*
X104992037Y-188073373D01*
X105043557Y-187903534D01*
X105127222Y-187747009D01*
X105156552Y-187711271D01*
X105239814Y-187609814D01*
X105341271Y-187526552D01*
X105377009Y-187497222D01*
X105533534Y-187413557D01*
X105703373Y-187362037D01*
X105769558Y-187355518D01*
X105835740Y-187349000D01*
X105924260Y-187349000D01*
X105990442Y-187355518D01*
X105990442Y-187355518D01*
G37*
G36*
X108530442Y-187355518D02*
G01*
X108596627Y-187362037D01*
X108766466Y-187413557D01*
X108922991Y-187497222D01*
X108958729Y-187526552D01*
X109060186Y-187609814D01*
X109143448Y-187711271D01*
X109172778Y-187747009D01*
X109256443Y-187903534D01*
X109307963Y-188073373D01*
X109325359Y-188250000D01*
X109307963Y-188426627D01*
X109256443Y-188596466D01*
X109172778Y-188752991D01*
X109143448Y-188788729D01*
X109060186Y-188890186D01*
X108958729Y-188973448D01*
X108922991Y-189002778D01*
X108766466Y-189086443D01*
X108596627Y-189137963D01*
X108530442Y-189144482D01*
X108464260Y-189151000D01*
X108375740Y-189151000D01*
X108309558Y-189144482D01*
X108243373Y-189137963D01*
X108073534Y-189086443D01*
X107917009Y-189002778D01*
X107881271Y-188973448D01*
X107779814Y-188890186D01*
X107696552Y-188788729D01*
X107667222Y-188752991D01*
X107583557Y-188596466D01*
X107532037Y-188426627D01*
X107514641Y-188250000D01*
X107532037Y-188073373D01*
X107583557Y-187903534D01*
X107667222Y-187747009D01*
X107696552Y-187711271D01*
X107779814Y-187609814D01*
X107881271Y-187526552D01*
X107917009Y-187497222D01*
X108073534Y-187413557D01*
X108243373Y-187362037D01*
X108309558Y-187355518D01*
X108375740Y-187349000D01*
X108464260Y-187349000D01*
X108530442Y-187355518D01*
X108530442Y-187355518D01*
G37*
G36*
X111070442Y-187355518D02*
G01*
X111136627Y-187362037D01*
X111306466Y-187413557D01*
X111462991Y-187497222D01*
X111498729Y-187526552D01*
X111600186Y-187609814D01*
X111683448Y-187711271D01*
X111712778Y-187747009D01*
X111796443Y-187903534D01*
X111847963Y-188073373D01*
X111865359Y-188250000D01*
X111847963Y-188426627D01*
X111796443Y-188596466D01*
X111712778Y-188752991D01*
X111683448Y-188788729D01*
X111600186Y-188890186D01*
X111498729Y-188973448D01*
X111462991Y-189002778D01*
X111306466Y-189086443D01*
X111136627Y-189137963D01*
X111070442Y-189144482D01*
X111004260Y-189151000D01*
X110915740Y-189151000D01*
X110849558Y-189144482D01*
X110783373Y-189137963D01*
X110613534Y-189086443D01*
X110457009Y-189002778D01*
X110421271Y-188973448D01*
X110319814Y-188890186D01*
X110236552Y-188788729D01*
X110207222Y-188752991D01*
X110123557Y-188596466D01*
X110072037Y-188426627D01*
X110054641Y-188250000D01*
X110072037Y-188073373D01*
X110123557Y-187903534D01*
X110207222Y-187747009D01*
X110236552Y-187711271D01*
X110319814Y-187609814D01*
X110421271Y-187526552D01*
X110457009Y-187497222D01*
X110613534Y-187413557D01*
X110783373Y-187362037D01*
X110849558Y-187355518D01*
X110915740Y-187349000D01*
X111004260Y-187349000D01*
X111070442Y-187355518D01*
X111070442Y-187355518D01*
G37*
G36*
X113610442Y-187355518D02*
G01*
X113676627Y-187362037D01*
X113846466Y-187413557D01*
X114002991Y-187497222D01*
X114038729Y-187526552D01*
X114140186Y-187609814D01*
X114223448Y-187711271D01*
X114252778Y-187747009D01*
X114336443Y-187903534D01*
X114387963Y-188073373D01*
X114405359Y-188250000D01*
X114387963Y-188426627D01*
X114336443Y-188596466D01*
X114252778Y-188752991D01*
X114223448Y-188788729D01*
X114140186Y-188890186D01*
X114038729Y-188973448D01*
X114002991Y-189002778D01*
X113846466Y-189086443D01*
X113676627Y-189137963D01*
X113610442Y-189144482D01*
X113544260Y-189151000D01*
X113455740Y-189151000D01*
X113389558Y-189144482D01*
X113323373Y-189137963D01*
X113153534Y-189086443D01*
X112997009Y-189002778D01*
X112961271Y-188973448D01*
X112859814Y-188890186D01*
X112776552Y-188788729D01*
X112747222Y-188752991D01*
X112663557Y-188596466D01*
X112612037Y-188426627D01*
X112594641Y-188250000D01*
X112612037Y-188073373D01*
X112663557Y-187903534D01*
X112747222Y-187747009D01*
X112776552Y-187711271D01*
X112859814Y-187609814D01*
X112961271Y-187526552D01*
X112997009Y-187497222D01*
X113153534Y-187413557D01*
X113323373Y-187362037D01*
X113389558Y-187355518D01*
X113455740Y-187349000D01*
X113544260Y-187349000D01*
X113610442Y-187355518D01*
X113610442Y-187355518D01*
G37*
G36*
X116150442Y-187355518D02*
G01*
X116216627Y-187362037D01*
X116386466Y-187413557D01*
X116542991Y-187497222D01*
X116578729Y-187526552D01*
X116680186Y-187609814D01*
X116763448Y-187711271D01*
X116792778Y-187747009D01*
X116876443Y-187903534D01*
X116927963Y-188073373D01*
X116945359Y-188250000D01*
X116927963Y-188426627D01*
X116876443Y-188596466D01*
X116792778Y-188752991D01*
X116763448Y-188788729D01*
X116680186Y-188890186D01*
X116578729Y-188973448D01*
X116542991Y-189002778D01*
X116386466Y-189086443D01*
X116216627Y-189137963D01*
X116150442Y-189144482D01*
X116084260Y-189151000D01*
X115995740Y-189151000D01*
X115929558Y-189144482D01*
X115863373Y-189137963D01*
X115693534Y-189086443D01*
X115537009Y-189002778D01*
X115501271Y-188973448D01*
X115399814Y-188890186D01*
X115316552Y-188788729D01*
X115287222Y-188752991D01*
X115203557Y-188596466D01*
X115152037Y-188426627D01*
X115134641Y-188250000D01*
X115152037Y-188073373D01*
X115203557Y-187903534D01*
X115287222Y-187747009D01*
X115316552Y-187711271D01*
X115399814Y-187609814D01*
X115501271Y-187526552D01*
X115537009Y-187497222D01*
X115693534Y-187413557D01*
X115863373Y-187362037D01*
X115929558Y-187355518D01*
X115995740Y-187349000D01*
X116084260Y-187349000D01*
X116150442Y-187355518D01*
X116150442Y-187355518D01*
G37*
G36*
X45030442Y-187355518D02*
G01*
X45096627Y-187362037D01*
X45266466Y-187413557D01*
X45422991Y-187497222D01*
X45458729Y-187526552D01*
X45560186Y-187609814D01*
X45643448Y-187711271D01*
X45672778Y-187747009D01*
X45756443Y-187903534D01*
X45807963Y-188073373D01*
X45825359Y-188250000D01*
X45807963Y-188426627D01*
X45756443Y-188596466D01*
X45672778Y-188752991D01*
X45643448Y-188788729D01*
X45560186Y-188890186D01*
X45458729Y-188973448D01*
X45422991Y-189002778D01*
X45266466Y-189086443D01*
X45096627Y-189137963D01*
X45030442Y-189144482D01*
X44964260Y-189151000D01*
X44875740Y-189151000D01*
X44809558Y-189144482D01*
X44743373Y-189137963D01*
X44573534Y-189086443D01*
X44417009Y-189002778D01*
X44381271Y-188973448D01*
X44279814Y-188890186D01*
X44196552Y-188788729D01*
X44167222Y-188752991D01*
X44083557Y-188596466D01*
X44032037Y-188426627D01*
X44014641Y-188250000D01*
X44032037Y-188073373D01*
X44083557Y-187903534D01*
X44167222Y-187747009D01*
X44196552Y-187711271D01*
X44279814Y-187609814D01*
X44381271Y-187526552D01*
X44417009Y-187497222D01*
X44573534Y-187413557D01*
X44743373Y-187362037D01*
X44809558Y-187355518D01*
X44875740Y-187349000D01*
X44964260Y-187349000D01*
X45030442Y-187355518D01*
X45030442Y-187355518D01*
G37*
G36*
X98370442Y-187355518D02*
G01*
X98436627Y-187362037D01*
X98606466Y-187413557D01*
X98762991Y-187497222D01*
X98798729Y-187526552D01*
X98900186Y-187609814D01*
X98983448Y-187711271D01*
X99012778Y-187747009D01*
X99096443Y-187903534D01*
X99147963Y-188073373D01*
X99165359Y-188250000D01*
X99147963Y-188426627D01*
X99096443Y-188596466D01*
X99012778Y-188752991D01*
X98983448Y-188788729D01*
X98900186Y-188890186D01*
X98798729Y-188973448D01*
X98762991Y-189002778D01*
X98606466Y-189086443D01*
X98436627Y-189137963D01*
X98370442Y-189144482D01*
X98304260Y-189151000D01*
X98215740Y-189151000D01*
X98149558Y-189144482D01*
X98083373Y-189137963D01*
X97913534Y-189086443D01*
X97757009Y-189002778D01*
X97721271Y-188973448D01*
X97619814Y-188890186D01*
X97536552Y-188788729D01*
X97507222Y-188752991D01*
X97423557Y-188596466D01*
X97372037Y-188426627D01*
X97354641Y-188250000D01*
X97372037Y-188073373D01*
X97423557Y-187903534D01*
X97507222Y-187747009D01*
X97536552Y-187711271D01*
X97619814Y-187609814D01*
X97721271Y-187526552D01*
X97757009Y-187497222D01*
X97913534Y-187413557D01*
X98083373Y-187362037D01*
X98149558Y-187355518D01*
X98215740Y-187349000D01*
X98304260Y-187349000D01*
X98370442Y-187355518D01*
X98370442Y-187355518D01*
G37*
G36*
X33296823Y-174631313D02*
G01*
X33457242Y-174679976D01*
X33579531Y-174745341D01*
X33605078Y-174758996D01*
X33734659Y-174865341D01*
X33841004Y-174994922D01*
X33841005Y-174994924D01*
X33920024Y-175142758D01*
X33968687Y-175303178D01*
X33981000Y-175428197D01*
X33981000Y-176311804D01*
X33968687Y-176436823D01*
X33920024Y-176597242D01*
X33905146Y-176625076D01*
X33841004Y-176745078D01*
X33745865Y-176861004D01*
X33734659Y-176874659D01*
X33605077Y-176981005D01*
X33457241Y-177060024D01*
X33296822Y-177108687D01*
X33130000Y-177125117D01*
X32963177Y-177108687D01*
X32802758Y-177060024D01*
X32654924Y-176981005D01*
X32654922Y-176981004D01*
X32525341Y-176874659D01*
X32514135Y-176861004D01*
X32418995Y-176745077D01*
X32339976Y-176597241D01*
X32291313Y-176436822D01*
X32279000Y-176311803D01*
X32279000Y-175428197D01*
X32291314Y-175303177D01*
X32339977Y-175142758D01*
X32418996Y-174994924D01*
X32418997Y-174994922D01*
X32525342Y-174865341D01*
X32654923Y-174758996D01*
X32680470Y-174745341D01*
X32802759Y-174679976D01*
X32963178Y-174631313D01*
X33130000Y-174614883D01*
X33296823Y-174631313D01*
X33296823Y-174631313D01*
G37*
G36*
X40916823Y-174631313D02*
G01*
X41077242Y-174679976D01*
X41199531Y-174745341D01*
X41225078Y-174758996D01*
X41354659Y-174865341D01*
X41461004Y-174994922D01*
X41461005Y-174994924D01*
X41540024Y-175142758D01*
X41588687Y-175303178D01*
X41601000Y-175428197D01*
X41601000Y-176311804D01*
X41588687Y-176436823D01*
X41540024Y-176597242D01*
X41525146Y-176625076D01*
X41461004Y-176745078D01*
X41365865Y-176861004D01*
X41354659Y-176874659D01*
X41225077Y-176981005D01*
X41077241Y-177060024D01*
X40916822Y-177108687D01*
X40750000Y-177125117D01*
X40583177Y-177108687D01*
X40422758Y-177060024D01*
X40274924Y-176981005D01*
X40274922Y-176981004D01*
X40145341Y-176874659D01*
X40134135Y-176861004D01*
X40038995Y-176745077D01*
X39959976Y-176597241D01*
X39911313Y-176436822D01*
X39899000Y-176311803D01*
X39899000Y-175428197D01*
X39911314Y-175303177D01*
X39959977Y-175142758D01*
X40038996Y-174994924D01*
X40038997Y-174994922D01*
X40145342Y-174865341D01*
X40274923Y-174758996D01*
X40300470Y-174745341D01*
X40422759Y-174679976D01*
X40583178Y-174631313D01*
X40750000Y-174614883D01*
X40916823Y-174631313D01*
X40916823Y-174631313D01*
G37*
G36*
X38376823Y-174631313D02*
G01*
X38537242Y-174679976D01*
X38659531Y-174745341D01*
X38685078Y-174758996D01*
X38814659Y-174865341D01*
X38921004Y-174994922D01*
X38921005Y-174994924D01*
X39000024Y-175142758D01*
X39048687Y-175303178D01*
X39061000Y-175428197D01*
X39061000Y-176311804D01*
X39048687Y-176436823D01*
X39000024Y-176597242D01*
X38985146Y-176625076D01*
X38921004Y-176745078D01*
X38825865Y-176861004D01*
X38814659Y-176874659D01*
X38685077Y-176981005D01*
X38537241Y-177060024D01*
X38376822Y-177108687D01*
X38210000Y-177125117D01*
X38043177Y-177108687D01*
X37882758Y-177060024D01*
X37734924Y-176981005D01*
X37734922Y-176981004D01*
X37605341Y-176874659D01*
X37594135Y-176861004D01*
X37498995Y-176745077D01*
X37419976Y-176597241D01*
X37371313Y-176436822D01*
X37359000Y-176311803D01*
X37359000Y-175428197D01*
X37371314Y-175303177D01*
X37419977Y-175142758D01*
X37498996Y-174994924D01*
X37498997Y-174994922D01*
X37605342Y-174865341D01*
X37734923Y-174758996D01*
X37760470Y-174745341D01*
X37882759Y-174679976D01*
X38043178Y-174631313D01*
X38210000Y-174614883D01*
X38376823Y-174631313D01*
X38376823Y-174631313D01*
G37*
G36*
X35836823Y-174631313D02*
G01*
X35997242Y-174679976D01*
X36119531Y-174745341D01*
X36145078Y-174758996D01*
X36274659Y-174865341D01*
X36381004Y-174994922D01*
X36381005Y-174994924D01*
X36460024Y-175142758D01*
X36508687Y-175303178D01*
X36521000Y-175428197D01*
X36521000Y-176311804D01*
X36508687Y-176436823D01*
X36460024Y-176597242D01*
X36445146Y-176625076D01*
X36381004Y-176745078D01*
X36285865Y-176861004D01*
X36274659Y-176874659D01*
X36145077Y-176981005D01*
X35997241Y-177060024D01*
X35836822Y-177108687D01*
X35670000Y-177125117D01*
X35503177Y-177108687D01*
X35342758Y-177060024D01*
X35194924Y-176981005D01*
X35194922Y-176981004D01*
X35065341Y-176874659D01*
X35054135Y-176861004D01*
X34958995Y-176745077D01*
X34879976Y-176597241D01*
X34831313Y-176436822D01*
X34819000Y-176311803D01*
X34819000Y-175428197D01*
X34831314Y-175303177D01*
X34879977Y-175142758D01*
X34958996Y-174994924D01*
X34958997Y-174994922D01*
X35065342Y-174865341D01*
X35194923Y-174758996D01*
X35220470Y-174745341D01*
X35342759Y-174679976D01*
X35503178Y-174631313D01*
X35670000Y-174614883D01*
X35836823Y-174631313D01*
X35836823Y-174631313D01*
G37*
G36*
X30756823Y-174631313D02*
G01*
X30917242Y-174679976D01*
X31039531Y-174745341D01*
X31065078Y-174758996D01*
X31194659Y-174865341D01*
X31301004Y-174994922D01*
X31301005Y-174994924D01*
X31380024Y-175142758D01*
X31428687Y-175303178D01*
X31441000Y-175428197D01*
X31441000Y-176311804D01*
X31428687Y-176436823D01*
X31380024Y-176597242D01*
X31365146Y-176625076D01*
X31301004Y-176745078D01*
X31205865Y-176861004D01*
X31194659Y-176874659D01*
X31065077Y-176981005D01*
X30917241Y-177060024D01*
X30756822Y-177108687D01*
X30590000Y-177125117D01*
X30423177Y-177108687D01*
X30262758Y-177060024D01*
X30114924Y-176981005D01*
X30114922Y-176981004D01*
X29985341Y-176874659D01*
X29974135Y-176861004D01*
X29878995Y-176745077D01*
X29799976Y-176597241D01*
X29751313Y-176436822D01*
X29739000Y-176311803D01*
X29739000Y-175428197D01*
X29751314Y-175303177D01*
X29799977Y-175142758D01*
X29878996Y-174994924D01*
X29878997Y-174994922D01*
X29985342Y-174865341D01*
X30114923Y-174758996D01*
X30140470Y-174745341D01*
X30262759Y-174679976D01*
X30423178Y-174631313D01*
X30590000Y-174614883D01*
X30756823Y-174631313D01*
X30756823Y-174631313D01*
G37*
G36*
X28216823Y-174631313D02*
G01*
X28377242Y-174679976D01*
X28499531Y-174745341D01*
X28525078Y-174758996D01*
X28654659Y-174865341D01*
X28761004Y-174994922D01*
X28761005Y-174994924D01*
X28840024Y-175142758D01*
X28888687Y-175303178D01*
X28901000Y-175428197D01*
X28901000Y-176311804D01*
X28888687Y-176436823D01*
X28840024Y-176597242D01*
X28825146Y-176625076D01*
X28761004Y-176745078D01*
X28665865Y-176861004D01*
X28654659Y-176874659D01*
X28525077Y-176981005D01*
X28377241Y-177060024D01*
X28216822Y-177108687D01*
X28050000Y-177125117D01*
X27883177Y-177108687D01*
X27722758Y-177060024D01*
X27574924Y-176981005D01*
X27574922Y-176981004D01*
X27445341Y-176874659D01*
X27434135Y-176861004D01*
X27338995Y-176745077D01*
X27259976Y-176597241D01*
X27211313Y-176436822D01*
X27199000Y-176311803D01*
X27199000Y-175428197D01*
X27211314Y-175303177D01*
X27259977Y-175142758D01*
X27338996Y-174994924D01*
X27338997Y-174994922D01*
X27445342Y-174865341D01*
X27574923Y-174758996D01*
X27600470Y-174745341D01*
X27722759Y-174679976D01*
X27883178Y-174631313D01*
X28050000Y-174614883D01*
X28216823Y-174631313D01*
X28216823Y-174631313D01*
G37*
G36*
X25676823Y-174631313D02*
G01*
X25837242Y-174679976D01*
X25959531Y-174745341D01*
X25985078Y-174758996D01*
X26114659Y-174865341D01*
X26221004Y-174994922D01*
X26221005Y-174994924D01*
X26300024Y-175142758D01*
X26348687Y-175303178D01*
X26361000Y-175428197D01*
X26361000Y-176311804D01*
X26348687Y-176436823D01*
X26300024Y-176597242D01*
X26285146Y-176625076D01*
X26221004Y-176745078D01*
X26125865Y-176861004D01*
X26114659Y-176874659D01*
X25985077Y-176981005D01*
X25837241Y-177060024D01*
X25676822Y-177108687D01*
X25510000Y-177125117D01*
X25343177Y-177108687D01*
X25182758Y-177060024D01*
X25034924Y-176981005D01*
X25034922Y-176981004D01*
X24905341Y-176874659D01*
X24894135Y-176861004D01*
X24798995Y-176745077D01*
X24719976Y-176597241D01*
X24671313Y-176436822D01*
X24659000Y-176311803D01*
X24659000Y-175428197D01*
X24671314Y-175303177D01*
X24719977Y-175142758D01*
X24798996Y-174994924D01*
X24798997Y-174994922D01*
X24905342Y-174865341D01*
X25034923Y-174758996D01*
X25060470Y-174745341D01*
X25182759Y-174679976D01*
X25343178Y-174631313D01*
X25510000Y-174614883D01*
X25676823Y-174631313D01*
X25676823Y-174631313D01*
G37*
G36*
X58826822Y-174511313D02*
G01*
X58987241Y-174559976D01*
X59135077Y-174638995D01*
X59264659Y-174745341D01*
X59371004Y-174874922D01*
X59371005Y-174874924D01*
X59450024Y-175022758D01*
X59498687Y-175183177D01*
X59511000Y-175308196D01*
X59511000Y-176191803D01*
X59498687Y-176316822D01*
X59450024Y-176477242D01*
X59385885Y-176597238D01*
X59371004Y-176625078D01*
X59264659Y-176754659D01*
X59135078Y-176861004D01*
X59135076Y-176861005D01*
X58987242Y-176940024D01*
X58826823Y-176988687D01*
X58660000Y-177005117D01*
X58493178Y-176988687D01*
X58332759Y-176940024D01*
X58184925Y-176861005D01*
X58184923Y-176861004D01*
X58055342Y-176754659D01*
X57948997Y-176625078D01*
X57934116Y-176597238D01*
X57869977Y-176477242D01*
X57821314Y-176316823D01*
X57809000Y-176191803D01*
X57809000Y-175308197D01*
X57821313Y-175183178D01*
X57869976Y-175022759D01*
X57948995Y-174874923D01*
X58055341Y-174745341D01*
X58134988Y-174679976D01*
X58184922Y-174638996D01*
X58200094Y-174630886D01*
X58332758Y-174559976D01*
X58493177Y-174511313D01*
X58660000Y-174494883D01*
X58826822Y-174511313D01*
X58826822Y-174511313D01*
G37*
G36*
X56286822Y-174511313D02*
G01*
X56447241Y-174559976D01*
X56595077Y-174638995D01*
X56724659Y-174745341D01*
X56831004Y-174874922D01*
X56831005Y-174874924D01*
X56910024Y-175022758D01*
X56958687Y-175183177D01*
X56971000Y-175308196D01*
X56971000Y-176191803D01*
X56958687Y-176316822D01*
X56910024Y-176477242D01*
X56845885Y-176597238D01*
X56831004Y-176625078D01*
X56724659Y-176754659D01*
X56595078Y-176861004D01*
X56595076Y-176861005D01*
X56447242Y-176940024D01*
X56286823Y-176988687D01*
X56120000Y-177005117D01*
X55953178Y-176988687D01*
X55792759Y-176940024D01*
X55644925Y-176861005D01*
X55644923Y-176861004D01*
X55515342Y-176754659D01*
X55408997Y-176625078D01*
X55394116Y-176597238D01*
X55329977Y-176477242D01*
X55281314Y-176316823D01*
X55269000Y-176191803D01*
X55269000Y-175308197D01*
X55281313Y-175183178D01*
X55329976Y-175022759D01*
X55408995Y-174874923D01*
X55515341Y-174745341D01*
X55594988Y-174679976D01*
X55644922Y-174638996D01*
X55660094Y-174630886D01*
X55792758Y-174559976D01*
X55953177Y-174511313D01*
X56120000Y-174494883D01*
X56286822Y-174511313D01*
X56286822Y-174511313D01*
G37*
G36*
X63906822Y-174511313D02*
G01*
X64067241Y-174559976D01*
X64215077Y-174638995D01*
X64344659Y-174745341D01*
X64451004Y-174874922D01*
X64451005Y-174874924D01*
X64530024Y-175022758D01*
X64578687Y-175183177D01*
X64591000Y-175308196D01*
X64591000Y-176191803D01*
X64578687Y-176316822D01*
X64530024Y-176477242D01*
X64465885Y-176597238D01*
X64451004Y-176625078D01*
X64344659Y-176754659D01*
X64215078Y-176861004D01*
X64215076Y-176861005D01*
X64067242Y-176940024D01*
X63906823Y-176988687D01*
X63740000Y-177005117D01*
X63573178Y-176988687D01*
X63412759Y-176940024D01*
X63264925Y-176861005D01*
X63264923Y-176861004D01*
X63135342Y-176754659D01*
X63028997Y-176625078D01*
X63014116Y-176597238D01*
X62949977Y-176477242D01*
X62901314Y-176316823D01*
X62889000Y-176191803D01*
X62889000Y-175308197D01*
X62901313Y-175183178D01*
X62949976Y-175022759D01*
X63028995Y-174874923D01*
X63135341Y-174745341D01*
X63214988Y-174679976D01*
X63264922Y-174638996D01*
X63280094Y-174630886D01*
X63412758Y-174559976D01*
X63573177Y-174511313D01*
X63740000Y-174494883D01*
X63906822Y-174511313D01*
X63906822Y-174511313D01*
G37*
G36*
X53746822Y-174511313D02*
G01*
X53907241Y-174559976D01*
X54055077Y-174638995D01*
X54184659Y-174745341D01*
X54291004Y-174874922D01*
X54291005Y-174874924D01*
X54370024Y-175022758D01*
X54418687Y-175183177D01*
X54431000Y-175308196D01*
X54431000Y-176191803D01*
X54418687Y-176316822D01*
X54370024Y-176477242D01*
X54305885Y-176597238D01*
X54291004Y-176625078D01*
X54184659Y-176754659D01*
X54055078Y-176861004D01*
X54055076Y-176861005D01*
X53907242Y-176940024D01*
X53746823Y-176988687D01*
X53580000Y-177005117D01*
X53413178Y-176988687D01*
X53252759Y-176940024D01*
X53104925Y-176861005D01*
X53104923Y-176861004D01*
X52975342Y-176754659D01*
X52868997Y-176625078D01*
X52854116Y-176597238D01*
X52789977Y-176477242D01*
X52741314Y-176316823D01*
X52729000Y-176191803D01*
X52729000Y-175308197D01*
X52741313Y-175183178D01*
X52789976Y-175022759D01*
X52868995Y-174874923D01*
X52975341Y-174745341D01*
X53054988Y-174679976D01*
X53104922Y-174638996D01*
X53120094Y-174630886D01*
X53252758Y-174559976D01*
X53413177Y-174511313D01*
X53580000Y-174494883D01*
X53746822Y-174511313D01*
X53746822Y-174511313D01*
G37*
G36*
X51206822Y-174511313D02*
G01*
X51367241Y-174559976D01*
X51515077Y-174638995D01*
X51644659Y-174745341D01*
X51751004Y-174874922D01*
X51751005Y-174874924D01*
X51830024Y-175022758D01*
X51878687Y-175183177D01*
X51891000Y-175308196D01*
X51891000Y-176191803D01*
X51878687Y-176316822D01*
X51830024Y-176477242D01*
X51765885Y-176597238D01*
X51751004Y-176625078D01*
X51644659Y-176754659D01*
X51515078Y-176861004D01*
X51515076Y-176861005D01*
X51367242Y-176940024D01*
X51206823Y-176988687D01*
X51040000Y-177005117D01*
X50873178Y-176988687D01*
X50712759Y-176940024D01*
X50564925Y-176861005D01*
X50564923Y-176861004D01*
X50435342Y-176754659D01*
X50328997Y-176625078D01*
X50314116Y-176597238D01*
X50249977Y-176477242D01*
X50201314Y-176316823D01*
X50189000Y-176191803D01*
X50189000Y-175308197D01*
X50201313Y-175183178D01*
X50249976Y-175022759D01*
X50328995Y-174874923D01*
X50435341Y-174745341D01*
X50514988Y-174679976D01*
X50564922Y-174638996D01*
X50580094Y-174630886D01*
X50712758Y-174559976D01*
X50873177Y-174511313D01*
X51040000Y-174494883D01*
X51206822Y-174511313D01*
X51206822Y-174511313D01*
G37*
G36*
X61366822Y-174511313D02*
G01*
X61527241Y-174559976D01*
X61675077Y-174638995D01*
X61804659Y-174745341D01*
X61911004Y-174874922D01*
X61911005Y-174874924D01*
X61990024Y-175022758D01*
X62038687Y-175183177D01*
X62051000Y-175308196D01*
X62051000Y-176191803D01*
X62038687Y-176316822D01*
X61990024Y-176477242D01*
X61925885Y-176597238D01*
X61911004Y-176625078D01*
X61804659Y-176754659D01*
X61675078Y-176861004D01*
X61675076Y-176861005D01*
X61527242Y-176940024D01*
X61366823Y-176988687D01*
X61200000Y-177005117D01*
X61033178Y-176988687D01*
X60872759Y-176940024D01*
X60724925Y-176861005D01*
X60724923Y-176861004D01*
X60595342Y-176754659D01*
X60488997Y-176625078D01*
X60474116Y-176597238D01*
X60409977Y-176477242D01*
X60361314Y-176316823D01*
X60349000Y-176191803D01*
X60349000Y-175308197D01*
X60361313Y-175183178D01*
X60409976Y-175022759D01*
X60488995Y-174874923D01*
X60595341Y-174745341D01*
X60674988Y-174679976D01*
X60724922Y-174638996D01*
X60740094Y-174630886D01*
X60872758Y-174559976D01*
X61033177Y-174511313D01*
X61200000Y-174494883D01*
X61366822Y-174511313D01*
X61366822Y-174511313D01*
G37*
G36*
X84226822Y-174511313D02*
G01*
X84387241Y-174559976D01*
X84535077Y-174638995D01*
X84664659Y-174745341D01*
X84771004Y-174874922D01*
X84771005Y-174874924D01*
X84850024Y-175022758D01*
X84898687Y-175183177D01*
X84911000Y-175308196D01*
X84911000Y-176191803D01*
X84898687Y-176316822D01*
X84850024Y-176477242D01*
X84785885Y-176597238D01*
X84771004Y-176625078D01*
X84664659Y-176754659D01*
X84535078Y-176861004D01*
X84535076Y-176861005D01*
X84387242Y-176940024D01*
X84226823Y-176988687D01*
X84060000Y-177005117D01*
X83893178Y-176988687D01*
X83732759Y-176940024D01*
X83584925Y-176861005D01*
X83584923Y-176861004D01*
X83455342Y-176754659D01*
X83348997Y-176625078D01*
X83334116Y-176597238D01*
X83269977Y-176477242D01*
X83221314Y-176316823D01*
X83209000Y-176191803D01*
X83209000Y-175308197D01*
X83221313Y-175183178D01*
X83269976Y-175022759D01*
X83348995Y-174874923D01*
X83455341Y-174745341D01*
X83534988Y-174679976D01*
X83584922Y-174638996D01*
X83600094Y-174630886D01*
X83732758Y-174559976D01*
X83893177Y-174511313D01*
X84060000Y-174494883D01*
X84226822Y-174511313D01*
X84226822Y-174511313D01*
G37*
G36*
X71526822Y-174511313D02*
G01*
X71687241Y-174559976D01*
X71835077Y-174638995D01*
X71964659Y-174745341D01*
X72071004Y-174874922D01*
X72071005Y-174874924D01*
X72150024Y-175022758D01*
X72198687Y-175183177D01*
X72211000Y-175308196D01*
X72211000Y-176191803D01*
X72198687Y-176316822D01*
X72150024Y-176477242D01*
X72085885Y-176597238D01*
X72071004Y-176625078D01*
X71964659Y-176754659D01*
X71835078Y-176861004D01*
X71835076Y-176861005D01*
X71687242Y-176940024D01*
X71526823Y-176988687D01*
X71360000Y-177005117D01*
X71193178Y-176988687D01*
X71032759Y-176940024D01*
X70884925Y-176861005D01*
X70884923Y-176861004D01*
X70755342Y-176754659D01*
X70648997Y-176625078D01*
X70634116Y-176597238D01*
X70569977Y-176477242D01*
X70521314Y-176316823D01*
X70509000Y-176191803D01*
X70509000Y-175308197D01*
X70521313Y-175183178D01*
X70569976Y-175022759D01*
X70648995Y-174874923D01*
X70755341Y-174745341D01*
X70834988Y-174679976D01*
X70884922Y-174638996D01*
X70900094Y-174630886D01*
X71032758Y-174559976D01*
X71193177Y-174511313D01*
X71360000Y-174494883D01*
X71526822Y-174511313D01*
X71526822Y-174511313D01*
G37*
G36*
X68986822Y-174511313D02*
G01*
X69147241Y-174559976D01*
X69295077Y-174638995D01*
X69424659Y-174745341D01*
X69531004Y-174874922D01*
X69531005Y-174874924D01*
X69610024Y-175022758D01*
X69658687Y-175183177D01*
X69671000Y-175308196D01*
X69671000Y-176191803D01*
X69658687Y-176316822D01*
X69610024Y-176477242D01*
X69545885Y-176597238D01*
X69531004Y-176625078D01*
X69424659Y-176754659D01*
X69295078Y-176861004D01*
X69295076Y-176861005D01*
X69147242Y-176940024D01*
X68986823Y-176988687D01*
X68820000Y-177005117D01*
X68653178Y-176988687D01*
X68492759Y-176940024D01*
X68344925Y-176861005D01*
X68344923Y-176861004D01*
X68215342Y-176754659D01*
X68108997Y-176625078D01*
X68094116Y-176597238D01*
X68029977Y-176477242D01*
X67981314Y-176316823D01*
X67969000Y-176191803D01*
X67969000Y-175308197D01*
X67981313Y-175183178D01*
X68029976Y-175022759D01*
X68108995Y-174874923D01*
X68215341Y-174745341D01*
X68294988Y-174679976D01*
X68344922Y-174638996D01*
X68360094Y-174630886D01*
X68492758Y-174559976D01*
X68653177Y-174511313D01*
X68820000Y-174494883D01*
X68986822Y-174511313D01*
X68986822Y-174511313D01*
G37*
G36*
X79146822Y-174511313D02*
G01*
X79307241Y-174559976D01*
X79455077Y-174638995D01*
X79584659Y-174745341D01*
X79691004Y-174874922D01*
X79691005Y-174874924D01*
X79770024Y-175022758D01*
X79818687Y-175183177D01*
X79831000Y-175308196D01*
X79831000Y-176191803D01*
X79818687Y-176316822D01*
X79770024Y-176477242D01*
X79705885Y-176597238D01*
X79691004Y-176625078D01*
X79584659Y-176754659D01*
X79455078Y-176861004D01*
X79455076Y-176861005D01*
X79307242Y-176940024D01*
X79146823Y-176988687D01*
X78980000Y-177005117D01*
X78813178Y-176988687D01*
X78652759Y-176940024D01*
X78504925Y-176861005D01*
X78504923Y-176861004D01*
X78375342Y-176754659D01*
X78268997Y-176625078D01*
X78254116Y-176597238D01*
X78189977Y-176477242D01*
X78141314Y-176316823D01*
X78129000Y-176191803D01*
X78129000Y-175308197D01*
X78141313Y-175183178D01*
X78189976Y-175022759D01*
X78268995Y-174874923D01*
X78375341Y-174745341D01*
X78454988Y-174679976D01*
X78504922Y-174638996D01*
X78520094Y-174630886D01*
X78652758Y-174559976D01*
X78813177Y-174511313D01*
X78980000Y-174494883D01*
X79146822Y-174511313D01*
X79146822Y-174511313D01*
G37*
G36*
X66446822Y-174511313D02*
G01*
X66607241Y-174559976D01*
X66755077Y-174638995D01*
X66884659Y-174745341D01*
X66991004Y-174874922D01*
X66991005Y-174874924D01*
X67070024Y-175022758D01*
X67118687Y-175183177D01*
X67131000Y-175308196D01*
X67131000Y-176191803D01*
X67118687Y-176316822D01*
X67070024Y-176477242D01*
X67005885Y-176597238D01*
X66991004Y-176625078D01*
X66884659Y-176754659D01*
X66755078Y-176861004D01*
X66755076Y-176861005D01*
X66607242Y-176940024D01*
X66446823Y-176988687D01*
X66280000Y-177005117D01*
X66113178Y-176988687D01*
X65952759Y-176940024D01*
X65804925Y-176861005D01*
X65804923Y-176861004D01*
X65675342Y-176754659D01*
X65568997Y-176625078D01*
X65554116Y-176597238D01*
X65489977Y-176477242D01*
X65441314Y-176316823D01*
X65429000Y-176191803D01*
X65429000Y-175308197D01*
X65441313Y-175183178D01*
X65489976Y-175022759D01*
X65568995Y-174874923D01*
X65675341Y-174745341D01*
X65754988Y-174679976D01*
X65804922Y-174638996D01*
X65820094Y-174630886D01*
X65952758Y-174559976D01*
X66113177Y-174511313D01*
X66280000Y-174494883D01*
X66446822Y-174511313D01*
X66446822Y-174511313D01*
G37*
G36*
X76606822Y-174511313D02*
G01*
X76767241Y-174559976D01*
X76915077Y-174638995D01*
X77044659Y-174745341D01*
X77151004Y-174874922D01*
X77151005Y-174874924D01*
X77230024Y-175022758D01*
X77278687Y-175183177D01*
X77291000Y-175308196D01*
X77291000Y-176191803D01*
X77278687Y-176316822D01*
X77230024Y-176477242D01*
X77165885Y-176597238D01*
X77151004Y-176625078D01*
X77044659Y-176754659D01*
X76915078Y-176861004D01*
X76915076Y-176861005D01*
X76767242Y-176940024D01*
X76606823Y-176988687D01*
X76440000Y-177005117D01*
X76273178Y-176988687D01*
X76112759Y-176940024D01*
X75964925Y-176861005D01*
X75964923Y-176861004D01*
X75835342Y-176754659D01*
X75728997Y-176625078D01*
X75714116Y-176597238D01*
X75649977Y-176477242D01*
X75601314Y-176316823D01*
X75589000Y-176191803D01*
X75589000Y-175308197D01*
X75601313Y-175183178D01*
X75649976Y-175022759D01*
X75728995Y-174874923D01*
X75835341Y-174745341D01*
X75914988Y-174679976D01*
X75964922Y-174638996D01*
X75980094Y-174630886D01*
X76112758Y-174559976D01*
X76273177Y-174511313D01*
X76440000Y-174494883D01*
X76606822Y-174511313D01*
X76606822Y-174511313D01*
G37*
G36*
X86766822Y-174511313D02*
G01*
X86927241Y-174559976D01*
X87075077Y-174638995D01*
X87204659Y-174745341D01*
X87311004Y-174874922D01*
X87311005Y-174874924D01*
X87390024Y-175022758D01*
X87438687Y-175183177D01*
X87451000Y-175308196D01*
X87451000Y-176191803D01*
X87438687Y-176316822D01*
X87390024Y-176477242D01*
X87325885Y-176597238D01*
X87311004Y-176625078D01*
X87204659Y-176754659D01*
X87075078Y-176861004D01*
X87075076Y-176861005D01*
X86927242Y-176940024D01*
X86766823Y-176988687D01*
X86600000Y-177005117D01*
X86433178Y-176988687D01*
X86272759Y-176940024D01*
X86124925Y-176861005D01*
X86124923Y-176861004D01*
X85995342Y-176754659D01*
X85888997Y-176625078D01*
X85874116Y-176597238D01*
X85809977Y-176477242D01*
X85761314Y-176316823D01*
X85749000Y-176191803D01*
X85749000Y-175308197D01*
X85761313Y-175183178D01*
X85809976Y-175022759D01*
X85888995Y-174874923D01*
X85995341Y-174745341D01*
X86074988Y-174679976D01*
X86124922Y-174638996D01*
X86140094Y-174630886D01*
X86272758Y-174559976D01*
X86433177Y-174511313D01*
X86600000Y-174494883D01*
X86766822Y-174511313D01*
X86766822Y-174511313D01*
G37*
G36*
X74066822Y-174511313D02*
G01*
X74227241Y-174559976D01*
X74375077Y-174638995D01*
X74504659Y-174745341D01*
X74611004Y-174874922D01*
X74611005Y-174874924D01*
X74690024Y-175022758D01*
X74738687Y-175183177D01*
X74751000Y-175308196D01*
X74751000Y-176191803D01*
X74738687Y-176316822D01*
X74690024Y-176477242D01*
X74625885Y-176597238D01*
X74611004Y-176625078D01*
X74504659Y-176754659D01*
X74375078Y-176861004D01*
X74375076Y-176861005D01*
X74227242Y-176940024D01*
X74066823Y-176988687D01*
X73900000Y-177005117D01*
X73733178Y-176988687D01*
X73572759Y-176940024D01*
X73424925Y-176861005D01*
X73424923Y-176861004D01*
X73295342Y-176754659D01*
X73188997Y-176625078D01*
X73174116Y-176597238D01*
X73109977Y-176477242D01*
X73061314Y-176316823D01*
X73049000Y-176191803D01*
X73049000Y-175308197D01*
X73061313Y-175183178D01*
X73109976Y-175022759D01*
X73188995Y-174874923D01*
X73295341Y-174745341D01*
X73374988Y-174679976D01*
X73424922Y-174638996D01*
X73440094Y-174630886D01*
X73572758Y-174559976D01*
X73733177Y-174511313D01*
X73900000Y-174494883D01*
X74066822Y-174511313D01*
X74066822Y-174511313D01*
G37*
G36*
X81686822Y-174511313D02*
G01*
X81847241Y-174559976D01*
X81995077Y-174638995D01*
X82124659Y-174745341D01*
X82231004Y-174874922D01*
X82231005Y-174874924D01*
X82310024Y-175022758D01*
X82358687Y-175183177D01*
X82371000Y-175308196D01*
X82371000Y-176191803D01*
X82358687Y-176316822D01*
X82310024Y-176477242D01*
X82245885Y-176597238D01*
X82231004Y-176625078D01*
X82124659Y-176754659D01*
X81995078Y-176861004D01*
X81995076Y-176861005D01*
X81847242Y-176940024D01*
X81686823Y-176988687D01*
X81520000Y-177005117D01*
X81353178Y-176988687D01*
X81192759Y-176940024D01*
X81044925Y-176861005D01*
X81044923Y-176861004D01*
X80915342Y-176754659D01*
X80808997Y-176625078D01*
X80794116Y-176597238D01*
X80729977Y-176477242D01*
X80681314Y-176316823D01*
X80669000Y-176191803D01*
X80669000Y-175308197D01*
X80681313Y-175183178D01*
X80729976Y-175022759D01*
X80808995Y-174874923D01*
X80915341Y-174745341D01*
X80994988Y-174679976D01*
X81044922Y-174638996D01*
X81060094Y-174630886D01*
X81192758Y-174559976D01*
X81353177Y-174511313D01*
X81520000Y-174494883D01*
X81686822Y-174511313D01*
X81686822Y-174511313D01*
G37*
G36*
X49351000Y-177001000D02*
G01*
X47649000Y-177001000D01*
X47649000Y-174499000D01*
X49351000Y-174499000D01*
X49351000Y-177001000D01*
X49351000Y-177001000D01*
G37*
G36*
X38376823Y-167011313D02*
G01*
X38537242Y-167059976D01*
X38669906Y-167130886D01*
X38685078Y-167138996D01*
X38814659Y-167245341D01*
X38921004Y-167374922D01*
X38921005Y-167374924D01*
X39000024Y-167522758D01*
X39048687Y-167683178D01*
X39061000Y-167808197D01*
X39061000Y-168691804D01*
X39048687Y-168816823D01*
X39000024Y-168977242D01*
X38929114Y-169109906D01*
X38921004Y-169125078D01*
X38814659Y-169254659D01*
X38685077Y-169361005D01*
X38537241Y-169440024D01*
X38376822Y-169488687D01*
X38210000Y-169505117D01*
X38043177Y-169488687D01*
X37882758Y-169440024D01*
X37734924Y-169361005D01*
X37734922Y-169361004D01*
X37605341Y-169254659D01*
X37498995Y-169125077D01*
X37419976Y-168977241D01*
X37371313Y-168816822D01*
X37359000Y-168691803D01*
X37359000Y-167808197D01*
X37371314Y-167683177D01*
X37419977Y-167522758D01*
X37498996Y-167374924D01*
X37498997Y-167374922D01*
X37605342Y-167245341D01*
X37734923Y-167138996D01*
X37750095Y-167130886D01*
X37882759Y-167059976D01*
X38043178Y-167011313D01*
X38210000Y-166994883D01*
X38376823Y-167011313D01*
X38376823Y-167011313D01*
G37*
G36*
X25676823Y-167011313D02*
G01*
X25837242Y-167059976D01*
X25969906Y-167130886D01*
X25985078Y-167138996D01*
X26114659Y-167245341D01*
X26221004Y-167374922D01*
X26221005Y-167374924D01*
X26300024Y-167522758D01*
X26348687Y-167683178D01*
X26361000Y-167808197D01*
X26361000Y-168691804D01*
X26348687Y-168816823D01*
X26300024Y-168977242D01*
X26229114Y-169109906D01*
X26221004Y-169125078D01*
X26114659Y-169254659D01*
X25985077Y-169361005D01*
X25837241Y-169440024D01*
X25676822Y-169488687D01*
X25510000Y-169505117D01*
X25343177Y-169488687D01*
X25182758Y-169440024D01*
X25034924Y-169361005D01*
X25034922Y-169361004D01*
X24905341Y-169254659D01*
X24798995Y-169125077D01*
X24719976Y-168977241D01*
X24671313Y-168816822D01*
X24659000Y-168691803D01*
X24659000Y-167808197D01*
X24671314Y-167683177D01*
X24719977Y-167522758D01*
X24798996Y-167374924D01*
X24798997Y-167374922D01*
X24905342Y-167245341D01*
X25034923Y-167138996D01*
X25050095Y-167130886D01*
X25182759Y-167059976D01*
X25343178Y-167011313D01*
X25510000Y-166994883D01*
X25676823Y-167011313D01*
X25676823Y-167011313D01*
G37*
G36*
X30756823Y-167011313D02*
G01*
X30917242Y-167059976D01*
X31049906Y-167130886D01*
X31065078Y-167138996D01*
X31194659Y-167245341D01*
X31301004Y-167374922D01*
X31301005Y-167374924D01*
X31380024Y-167522758D01*
X31428687Y-167683178D01*
X31441000Y-167808197D01*
X31441000Y-168691804D01*
X31428687Y-168816823D01*
X31380024Y-168977242D01*
X31309114Y-169109906D01*
X31301004Y-169125078D01*
X31194659Y-169254659D01*
X31065077Y-169361005D01*
X30917241Y-169440024D01*
X30756822Y-169488687D01*
X30590000Y-169505117D01*
X30423177Y-169488687D01*
X30262758Y-169440024D01*
X30114924Y-169361005D01*
X30114922Y-169361004D01*
X29985341Y-169254659D01*
X29878995Y-169125077D01*
X29799976Y-168977241D01*
X29751313Y-168816822D01*
X29739000Y-168691803D01*
X29739000Y-167808197D01*
X29751314Y-167683177D01*
X29799977Y-167522758D01*
X29878996Y-167374924D01*
X29878997Y-167374922D01*
X29985342Y-167245341D01*
X30114923Y-167138996D01*
X30130095Y-167130886D01*
X30262759Y-167059976D01*
X30423178Y-167011313D01*
X30590000Y-166994883D01*
X30756823Y-167011313D01*
X30756823Y-167011313D01*
G37*
G36*
X35836823Y-167011313D02*
G01*
X35997242Y-167059976D01*
X36129906Y-167130886D01*
X36145078Y-167138996D01*
X36274659Y-167245341D01*
X36381004Y-167374922D01*
X36381005Y-167374924D01*
X36460024Y-167522758D01*
X36508687Y-167683178D01*
X36521000Y-167808197D01*
X36521000Y-168691804D01*
X36508687Y-168816823D01*
X36460024Y-168977242D01*
X36389114Y-169109906D01*
X36381004Y-169125078D01*
X36274659Y-169254659D01*
X36145077Y-169361005D01*
X35997241Y-169440024D01*
X35836822Y-169488687D01*
X35670000Y-169505117D01*
X35503177Y-169488687D01*
X35342758Y-169440024D01*
X35194924Y-169361005D01*
X35194922Y-169361004D01*
X35065341Y-169254659D01*
X34958995Y-169125077D01*
X34879976Y-168977241D01*
X34831313Y-168816822D01*
X34819000Y-168691803D01*
X34819000Y-167808197D01*
X34831314Y-167683177D01*
X34879977Y-167522758D01*
X34958996Y-167374924D01*
X34958997Y-167374922D01*
X35065342Y-167245341D01*
X35194923Y-167138996D01*
X35210095Y-167130886D01*
X35342759Y-167059976D01*
X35503178Y-167011313D01*
X35670000Y-166994883D01*
X35836823Y-167011313D01*
X35836823Y-167011313D01*
G37*
G36*
X28216823Y-167011313D02*
G01*
X28377242Y-167059976D01*
X28509906Y-167130886D01*
X28525078Y-167138996D01*
X28654659Y-167245341D01*
X28761004Y-167374922D01*
X28761005Y-167374924D01*
X28840024Y-167522758D01*
X28888687Y-167683178D01*
X28901000Y-167808197D01*
X28901000Y-168691804D01*
X28888687Y-168816823D01*
X28840024Y-168977242D01*
X28769114Y-169109906D01*
X28761004Y-169125078D01*
X28654659Y-169254659D01*
X28525077Y-169361005D01*
X28377241Y-169440024D01*
X28216822Y-169488687D01*
X28050000Y-169505117D01*
X27883177Y-169488687D01*
X27722758Y-169440024D01*
X27574924Y-169361005D01*
X27574922Y-169361004D01*
X27445341Y-169254659D01*
X27338995Y-169125077D01*
X27259976Y-168977241D01*
X27211313Y-168816822D01*
X27199000Y-168691803D01*
X27199000Y-167808197D01*
X27211314Y-167683177D01*
X27259977Y-167522758D01*
X27338996Y-167374924D01*
X27338997Y-167374922D01*
X27445342Y-167245341D01*
X27574923Y-167138996D01*
X27590095Y-167130886D01*
X27722759Y-167059976D01*
X27883178Y-167011313D01*
X28050000Y-166994883D01*
X28216823Y-167011313D01*
X28216823Y-167011313D01*
G37*
G36*
X33296823Y-167011313D02*
G01*
X33457242Y-167059976D01*
X33589906Y-167130886D01*
X33605078Y-167138996D01*
X33734659Y-167245341D01*
X33841004Y-167374922D01*
X33841005Y-167374924D01*
X33920024Y-167522758D01*
X33968687Y-167683178D01*
X33981000Y-167808197D01*
X33981000Y-168691804D01*
X33968687Y-168816823D01*
X33920024Y-168977242D01*
X33849114Y-169109906D01*
X33841004Y-169125078D01*
X33734659Y-169254659D01*
X33605077Y-169361005D01*
X33457241Y-169440024D01*
X33296822Y-169488687D01*
X33130000Y-169505117D01*
X32963177Y-169488687D01*
X32802758Y-169440024D01*
X32654924Y-169361005D01*
X32654922Y-169361004D01*
X32525341Y-169254659D01*
X32418995Y-169125077D01*
X32339976Y-168977241D01*
X32291313Y-168816822D01*
X32279000Y-168691803D01*
X32279000Y-167808197D01*
X32291314Y-167683177D01*
X32339977Y-167522758D01*
X32418996Y-167374924D01*
X32418997Y-167374922D01*
X32525342Y-167245341D01*
X32654923Y-167138996D01*
X32670095Y-167130886D01*
X32802759Y-167059976D01*
X32963178Y-167011313D01*
X33130000Y-166994883D01*
X33296823Y-167011313D01*
X33296823Y-167011313D01*
G37*
G36*
X41601000Y-169501000D02*
G01*
X39899000Y-169501000D01*
X39899000Y-166999000D01*
X41601000Y-166999000D01*
X41601000Y-169501000D01*
X41601000Y-169501000D01*
G37*
G36*
X61366822Y-159271313D02*
G01*
X61527241Y-159319976D01*
X61675077Y-159398995D01*
X61804659Y-159505341D01*
X61911004Y-159634922D01*
X61911005Y-159634924D01*
X61990024Y-159782758D01*
X62038687Y-159943177D01*
X62051000Y-160068196D01*
X62051000Y-160951803D01*
X62038687Y-161076822D01*
X61990024Y-161237242D01*
X61919114Y-161369906D01*
X61911004Y-161385078D01*
X61804659Y-161514659D01*
X61675078Y-161621004D01*
X61675076Y-161621005D01*
X61527242Y-161700024D01*
X61366823Y-161748687D01*
X61200000Y-161765117D01*
X61033178Y-161748687D01*
X60872759Y-161700024D01*
X60724925Y-161621005D01*
X60724923Y-161621004D01*
X60595342Y-161514659D01*
X60488997Y-161385078D01*
X60480887Y-161369906D01*
X60409977Y-161237242D01*
X60361314Y-161076823D01*
X60349000Y-160951803D01*
X60349000Y-160068197D01*
X60361313Y-159943178D01*
X60409976Y-159782759D01*
X60488995Y-159634923D01*
X60595341Y-159505341D01*
X60724922Y-159398996D01*
X60740094Y-159390886D01*
X60872758Y-159319976D01*
X61033177Y-159271313D01*
X61200000Y-159254883D01*
X61366822Y-159271313D01*
X61366822Y-159271313D01*
G37*
G36*
X76606822Y-159271313D02*
G01*
X76767241Y-159319976D01*
X76915077Y-159398995D01*
X77044659Y-159505341D01*
X77151004Y-159634922D01*
X77151005Y-159634924D01*
X77230024Y-159782758D01*
X77278687Y-159943177D01*
X77291000Y-160068196D01*
X77291000Y-160951803D01*
X77278687Y-161076822D01*
X77230024Y-161237242D01*
X77159114Y-161369906D01*
X77151004Y-161385078D01*
X77044659Y-161514659D01*
X76915078Y-161621004D01*
X76915076Y-161621005D01*
X76767242Y-161700024D01*
X76606823Y-161748687D01*
X76440000Y-161765117D01*
X76273178Y-161748687D01*
X76112759Y-161700024D01*
X75964925Y-161621005D01*
X75964923Y-161621004D01*
X75835342Y-161514659D01*
X75728997Y-161385078D01*
X75720887Y-161369906D01*
X75649977Y-161237242D01*
X75601314Y-161076823D01*
X75589000Y-160951803D01*
X75589000Y-160068197D01*
X75601313Y-159943178D01*
X75649976Y-159782759D01*
X75728995Y-159634923D01*
X75835341Y-159505341D01*
X75964922Y-159398996D01*
X75980094Y-159390886D01*
X76112758Y-159319976D01*
X76273177Y-159271313D01*
X76440000Y-159254883D01*
X76606822Y-159271313D01*
X76606822Y-159271313D01*
G37*
G36*
X81686822Y-159271313D02*
G01*
X81847241Y-159319976D01*
X81995077Y-159398995D01*
X82124659Y-159505341D01*
X82231004Y-159634922D01*
X82231005Y-159634924D01*
X82310024Y-159782758D01*
X82358687Y-159943177D01*
X82371000Y-160068196D01*
X82371000Y-160951803D01*
X82358687Y-161076822D01*
X82310024Y-161237242D01*
X82239114Y-161369906D01*
X82231004Y-161385078D01*
X82124659Y-161514659D01*
X81995078Y-161621004D01*
X81995076Y-161621005D01*
X81847242Y-161700024D01*
X81686823Y-161748687D01*
X81520000Y-161765117D01*
X81353178Y-161748687D01*
X81192759Y-161700024D01*
X81044925Y-161621005D01*
X81044923Y-161621004D01*
X80915342Y-161514659D01*
X80808997Y-161385078D01*
X80800887Y-161369906D01*
X80729977Y-161237242D01*
X80681314Y-161076823D01*
X80669000Y-160951803D01*
X80669000Y-160068197D01*
X80681313Y-159943178D01*
X80729976Y-159782759D01*
X80808995Y-159634923D01*
X80915341Y-159505341D01*
X81044922Y-159398996D01*
X81060094Y-159390886D01*
X81192758Y-159319976D01*
X81353177Y-159271313D01*
X81520000Y-159254883D01*
X81686822Y-159271313D01*
X81686822Y-159271313D01*
G37*
G36*
X84226822Y-159271313D02*
G01*
X84387241Y-159319976D01*
X84535077Y-159398995D01*
X84664659Y-159505341D01*
X84771004Y-159634922D01*
X84771005Y-159634924D01*
X84850024Y-159782758D01*
X84898687Y-159943177D01*
X84911000Y-160068196D01*
X84911000Y-160951803D01*
X84898687Y-161076822D01*
X84850024Y-161237242D01*
X84779114Y-161369906D01*
X84771004Y-161385078D01*
X84664659Y-161514659D01*
X84535078Y-161621004D01*
X84535076Y-161621005D01*
X84387242Y-161700024D01*
X84226823Y-161748687D01*
X84060000Y-161765117D01*
X83893178Y-161748687D01*
X83732759Y-161700024D01*
X83584925Y-161621005D01*
X83584923Y-161621004D01*
X83455342Y-161514659D01*
X83348997Y-161385078D01*
X83340887Y-161369906D01*
X83269977Y-161237242D01*
X83221314Y-161076823D01*
X83209000Y-160951803D01*
X83209000Y-160068197D01*
X83221313Y-159943178D01*
X83269976Y-159782759D01*
X83348995Y-159634923D01*
X83455341Y-159505341D01*
X83584922Y-159398996D01*
X83600094Y-159390886D01*
X83732758Y-159319976D01*
X83893177Y-159271313D01*
X84060000Y-159254883D01*
X84226822Y-159271313D01*
X84226822Y-159271313D01*
G37*
G36*
X86766822Y-159271313D02*
G01*
X86927241Y-159319976D01*
X87075077Y-159398995D01*
X87204659Y-159505341D01*
X87311004Y-159634922D01*
X87311005Y-159634924D01*
X87390024Y-159782758D01*
X87438687Y-159943177D01*
X87451000Y-160068196D01*
X87451000Y-160951803D01*
X87438687Y-161076822D01*
X87390024Y-161237242D01*
X87319114Y-161369906D01*
X87311004Y-161385078D01*
X87204659Y-161514659D01*
X87075078Y-161621004D01*
X87075076Y-161621005D01*
X86927242Y-161700024D01*
X86766823Y-161748687D01*
X86600000Y-161765117D01*
X86433178Y-161748687D01*
X86272759Y-161700024D01*
X86124925Y-161621005D01*
X86124923Y-161621004D01*
X85995342Y-161514659D01*
X85888997Y-161385078D01*
X85880887Y-161369906D01*
X85809977Y-161237242D01*
X85761314Y-161076823D01*
X85749000Y-160951803D01*
X85749000Y-160068197D01*
X85761313Y-159943178D01*
X85809976Y-159782759D01*
X85888995Y-159634923D01*
X85995341Y-159505341D01*
X86124922Y-159398996D01*
X86140094Y-159390886D01*
X86272758Y-159319976D01*
X86433177Y-159271313D01*
X86600000Y-159254883D01*
X86766822Y-159271313D01*
X86766822Y-159271313D01*
G37*
G36*
X74066822Y-159271313D02*
G01*
X74227241Y-159319976D01*
X74375077Y-159398995D01*
X74504659Y-159505341D01*
X74611004Y-159634922D01*
X74611005Y-159634924D01*
X74690024Y-159782758D01*
X74738687Y-159943177D01*
X74751000Y-160068196D01*
X74751000Y-160951803D01*
X74738687Y-161076822D01*
X74690024Y-161237242D01*
X74619114Y-161369906D01*
X74611004Y-161385078D01*
X74504659Y-161514659D01*
X74375078Y-161621004D01*
X74375076Y-161621005D01*
X74227242Y-161700024D01*
X74066823Y-161748687D01*
X73900000Y-161765117D01*
X73733178Y-161748687D01*
X73572759Y-161700024D01*
X73424925Y-161621005D01*
X73424923Y-161621004D01*
X73295342Y-161514659D01*
X73188997Y-161385078D01*
X73180887Y-161369906D01*
X73109977Y-161237242D01*
X73061314Y-161076823D01*
X73049000Y-160951803D01*
X73049000Y-160068197D01*
X73061313Y-159943178D01*
X73109976Y-159782759D01*
X73188995Y-159634923D01*
X73295341Y-159505341D01*
X73424922Y-159398996D01*
X73440094Y-159390886D01*
X73572758Y-159319976D01*
X73733177Y-159271313D01*
X73900000Y-159254883D01*
X74066822Y-159271313D01*
X74066822Y-159271313D01*
G37*
G36*
X71526822Y-159271313D02*
G01*
X71687241Y-159319976D01*
X71835077Y-159398995D01*
X71964659Y-159505341D01*
X72071004Y-159634922D01*
X72071005Y-159634924D01*
X72150024Y-159782758D01*
X72198687Y-159943177D01*
X72211000Y-160068196D01*
X72211000Y-160951803D01*
X72198687Y-161076822D01*
X72150024Y-161237242D01*
X72079114Y-161369906D01*
X72071004Y-161385078D01*
X71964659Y-161514659D01*
X71835078Y-161621004D01*
X71835076Y-161621005D01*
X71687242Y-161700024D01*
X71526823Y-161748687D01*
X71360000Y-161765117D01*
X71193178Y-161748687D01*
X71032759Y-161700024D01*
X70884925Y-161621005D01*
X70884923Y-161621004D01*
X70755342Y-161514659D01*
X70648997Y-161385078D01*
X70640887Y-161369906D01*
X70569977Y-161237242D01*
X70521314Y-161076823D01*
X70509000Y-160951803D01*
X70509000Y-160068197D01*
X70521313Y-159943178D01*
X70569976Y-159782759D01*
X70648995Y-159634923D01*
X70755341Y-159505341D01*
X70884922Y-159398996D01*
X70900094Y-159390886D01*
X71032758Y-159319976D01*
X71193177Y-159271313D01*
X71360000Y-159254883D01*
X71526822Y-159271313D01*
X71526822Y-159271313D01*
G37*
G36*
X68986822Y-159271313D02*
G01*
X69147241Y-159319976D01*
X69295077Y-159398995D01*
X69424659Y-159505341D01*
X69531004Y-159634922D01*
X69531005Y-159634924D01*
X69610024Y-159782758D01*
X69658687Y-159943177D01*
X69671000Y-160068196D01*
X69671000Y-160951803D01*
X69658687Y-161076822D01*
X69610024Y-161237242D01*
X69539114Y-161369906D01*
X69531004Y-161385078D01*
X69424659Y-161514659D01*
X69295078Y-161621004D01*
X69295076Y-161621005D01*
X69147242Y-161700024D01*
X68986823Y-161748687D01*
X68820000Y-161765117D01*
X68653178Y-161748687D01*
X68492759Y-161700024D01*
X68344925Y-161621005D01*
X68344923Y-161621004D01*
X68215342Y-161514659D01*
X68108997Y-161385078D01*
X68100887Y-161369906D01*
X68029977Y-161237242D01*
X67981314Y-161076823D01*
X67969000Y-160951803D01*
X67969000Y-160068197D01*
X67981313Y-159943178D01*
X68029976Y-159782759D01*
X68108995Y-159634923D01*
X68215341Y-159505341D01*
X68344922Y-159398996D01*
X68360094Y-159390886D01*
X68492758Y-159319976D01*
X68653177Y-159271313D01*
X68820000Y-159254883D01*
X68986822Y-159271313D01*
X68986822Y-159271313D01*
G37*
G36*
X63906822Y-159271313D02*
G01*
X64067241Y-159319976D01*
X64215077Y-159398995D01*
X64344659Y-159505341D01*
X64451004Y-159634922D01*
X64451005Y-159634924D01*
X64530024Y-159782758D01*
X64578687Y-159943177D01*
X64591000Y-160068196D01*
X64591000Y-160951803D01*
X64578687Y-161076822D01*
X64530024Y-161237242D01*
X64459114Y-161369906D01*
X64451004Y-161385078D01*
X64344659Y-161514659D01*
X64215078Y-161621004D01*
X64215076Y-161621005D01*
X64067242Y-161700024D01*
X63906823Y-161748687D01*
X63740000Y-161765117D01*
X63573178Y-161748687D01*
X63412759Y-161700024D01*
X63264925Y-161621005D01*
X63264923Y-161621004D01*
X63135342Y-161514659D01*
X63028997Y-161385078D01*
X63020887Y-161369906D01*
X62949977Y-161237242D01*
X62901314Y-161076823D01*
X62889000Y-160951803D01*
X62889000Y-160068197D01*
X62901313Y-159943178D01*
X62949976Y-159782759D01*
X63028995Y-159634923D01*
X63135341Y-159505341D01*
X63264922Y-159398996D01*
X63280094Y-159390886D01*
X63412758Y-159319976D01*
X63573177Y-159271313D01*
X63740000Y-159254883D01*
X63906822Y-159271313D01*
X63906822Y-159271313D01*
G37*
G36*
X58826822Y-159271313D02*
G01*
X58987241Y-159319976D01*
X59135077Y-159398995D01*
X59264659Y-159505341D01*
X59371004Y-159634922D01*
X59371005Y-159634924D01*
X59450024Y-159782758D01*
X59498687Y-159943177D01*
X59511000Y-160068196D01*
X59511000Y-160951803D01*
X59498687Y-161076822D01*
X59450024Y-161237242D01*
X59379114Y-161369906D01*
X59371004Y-161385078D01*
X59264659Y-161514659D01*
X59135078Y-161621004D01*
X59135076Y-161621005D01*
X58987242Y-161700024D01*
X58826823Y-161748687D01*
X58660000Y-161765117D01*
X58493178Y-161748687D01*
X58332759Y-161700024D01*
X58184925Y-161621005D01*
X58184923Y-161621004D01*
X58055342Y-161514659D01*
X57948997Y-161385078D01*
X57940887Y-161369906D01*
X57869977Y-161237242D01*
X57821314Y-161076823D01*
X57809000Y-160951803D01*
X57809000Y-160068197D01*
X57821313Y-159943178D01*
X57869976Y-159782759D01*
X57948995Y-159634923D01*
X58055341Y-159505341D01*
X58184922Y-159398996D01*
X58200094Y-159390886D01*
X58332758Y-159319976D01*
X58493177Y-159271313D01*
X58660000Y-159254883D01*
X58826822Y-159271313D01*
X58826822Y-159271313D01*
G37*
G36*
X56286822Y-159271313D02*
G01*
X56447241Y-159319976D01*
X56595077Y-159398995D01*
X56724659Y-159505341D01*
X56831004Y-159634922D01*
X56831005Y-159634924D01*
X56910024Y-159782758D01*
X56958687Y-159943177D01*
X56971000Y-160068196D01*
X56971000Y-160951803D01*
X56958687Y-161076822D01*
X56910024Y-161237242D01*
X56839114Y-161369906D01*
X56831004Y-161385078D01*
X56724659Y-161514659D01*
X56595078Y-161621004D01*
X56595076Y-161621005D01*
X56447242Y-161700024D01*
X56286823Y-161748687D01*
X56120000Y-161765117D01*
X55953178Y-161748687D01*
X55792759Y-161700024D01*
X55644925Y-161621005D01*
X55644923Y-161621004D01*
X55515342Y-161514659D01*
X55408997Y-161385078D01*
X55400887Y-161369906D01*
X55329977Y-161237242D01*
X55281314Y-161076823D01*
X55269000Y-160951803D01*
X55269000Y-160068197D01*
X55281313Y-159943178D01*
X55329976Y-159782759D01*
X55408995Y-159634923D01*
X55515341Y-159505341D01*
X55644922Y-159398996D01*
X55660094Y-159390886D01*
X55792758Y-159319976D01*
X55953177Y-159271313D01*
X56120000Y-159254883D01*
X56286822Y-159271313D01*
X56286822Y-159271313D01*
G37*
G36*
X79146822Y-159271313D02*
G01*
X79307241Y-159319976D01*
X79455077Y-159398995D01*
X79584659Y-159505341D01*
X79691004Y-159634922D01*
X79691005Y-159634924D01*
X79770024Y-159782758D01*
X79818687Y-159943177D01*
X79831000Y-160068196D01*
X79831000Y-160951803D01*
X79818687Y-161076822D01*
X79770024Y-161237242D01*
X79699114Y-161369906D01*
X79691004Y-161385078D01*
X79584659Y-161514659D01*
X79455078Y-161621004D01*
X79455076Y-161621005D01*
X79307242Y-161700024D01*
X79146823Y-161748687D01*
X78980000Y-161765117D01*
X78813178Y-161748687D01*
X78652759Y-161700024D01*
X78504925Y-161621005D01*
X78504923Y-161621004D01*
X78375342Y-161514659D01*
X78268997Y-161385078D01*
X78260887Y-161369906D01*
X78189977Y-161237242D01*
X78141314Y-161076823D01*
X78129000Y-160951803D01*
X78129000Y-160068197D01*
X78141313Y-159943178D01*
X78189976Y-159782759D01*
X78268995Y-159634923D01*
X78375341Y-159505341D01*
X78504922Y-159398996D01*
X78520094Y-159390886D01*
X78652758Y-159319976D01*
X78813177Y-159271313D01*
X78980000Y-159254883D01*
X79146822Y-159271313D01*
X79146822Y-159271313D01*
G37*
G36*
X53746822Y-159271313D02*
G01*
X53907241Y-159319976D01*
X54055077Y-159398995D01*
X54184659Y-159505341D01*
X54291004Y-159634922D01*
X54291005Y-159634924D01*
X54370024Y-159782758D01*
X54418687Y-159943177D01*
X54431000Y-160068196D01*
X54431000Y-160951803D01*
X54418687Y-161076822D01*
X54370024Y-161237242D01*
X54299114Y-161369906D01*
X54291004Y-161385078D01*
X54184659Y-161514659D01*
X54055078Y-161621004D01*
X54055076Y-161621005D01*
X53907242Y-161700024D01*
X53746823Y-161748687D01*
X53580000Y-161765117D01*
X53413178Y-161748687D01*
X53252759Y-161700024D01*
X53104925Y-161621005D01*
X53104923Y-161621004D01*
X52975342Y-161514659D01*
X52868997Y-161385078D01*
X52860887Y-161369906D01*
X52789977Y-161237242D01*
X52741314Y-161076823D01*
X52729000Y-160951803D01*
X52729000Y-160068197D01*
X52741313Y-159943178D01*
X52789976Y-159782759D01*
X52868995Y-159634923D01*
X52975341Y-159505341D01*
X53104922Y-159398996D01*
X53120094Y-159390886D01*
X53252758Y-159319976D01*
X53413177Y-159271313D01*
X53580000Y-159254883D01*
X53746822Y-159271313D01*
X53746822Y-159271313D01*
G37*
G36*
X51206822Y-159271313D02*
G01*
X51367241Y-159319976D01*
X51515077Y-159398995D01*
X51644659Y-159505341D01*
X51751004Y-159634922D01*
X51751005Y-159634924D01*
X51830024Y-159782758D01*
X51878687Y-159943177D01*
X51891000Y-160068196D01*
X51891000Y-160951803D01*
X51878687Y-161076822D01*
X51830024Y-161237242D01*
X51759114Y-161369906D01*
X51751004Y-161385078D01*
X51644659Y-161514659D01*
X51515078Y-161621004D01*
X51515076Y-161621005D01*
X51367242Y-161700024D01*
X51206823Y-161748687D01*
X51040000Y-161765117D01*
X50873178Y-161748687D01*
X50712759Y-161700024D01*
X50564925Y-161621005D01*
X50564923Y-161621004D01*
X50435342Y-161514659D01*
X50328997Y-161385078D01*
X50320887Y-161369906D01*
X50249977Y-161237242D01*
X50201314Y-161076823D01*
X50189000Y-160951803D01*
X50189000Y-160068197D01*
X50201313Y-159943178D01*
X50249976Y-159782759D01*
X50328995Y-159634923D01*
X50435341Y-159505341D01*
X50564922Y-159398996D01*
X50580094Y-159390886D01*
X50712758Y-159319976D01*
X50873177Y-159271313D01*
X51040000Y-159254883D01*
X51206822Y-159271313D01*
X51206822Y-159271313D01*
G37*
G36*
X48666822Y-159271313D02*
G01*
X48827241Y-159319976D01*
X48975077Y-159398995D01*
X49104659Y-159505341D01*
X49211004Y-159634922D01*
X49211005Y-159634924D01*
X49290024Y-159782758D01*
X49338687Y-159943177D01*
X49351000Y-160068196D01*
X49351000Y-160951803D01*
X49338687Y-161076822D01*
X49290024Y-161237242D01*
X49219114Y-161369906D01*
X49211004Y-161385078D01*
X49104659Y-161514659D01*
X48975078Y-161621004D01*
X48975076Y-161621005D01*
X48827242Y-161700024D01*
X48666823Y-161748687D01*
X48500000Y-161765117D01*
X48333178Y-161748687D01*
X48172759Y-161700024D01*
X48024925Y-161621005D01*
X48024923Y-161621004D01*
X47895342Y-161514659D01*
X47788997Y-161385078D01*
X47780887Y-161369906D01*
X47709977Y-161237242D01*
X47661314Y-161076823D01*
X47649000Y-160951803D01*
X47649000Y-160068197D01*
X47661313Y-159943178D01*
X47709976Y-159782759D01*
X47788995Y-159634923D01*
X47895341Y-159505341D01*
X48024922Y-159398996D01*
X48040094Y-159390886D01*
X48172758Y-159319976D01*
X48333177Y-159271313D01*
X48500000Y-159254883D01*
X48666822Y-159271313D01*
X48666822Y-159271313D01*
G37*
G36*
X66446822Y-159271313D02*
G01*
X66607241Y-159319976D01*
X66755077Y-159398995D01*
X66884659Y-159505341D01*
X66991004Y-159634922D01*
X66991005Y-159634924D01*
X67070024Y-159782758D01*
X67118687Y-159943177D01*
X67131000Y-160068196D01*
X67131000Y-160951803D01*
X67118687Y-161076822D01*
X67070024Y-161237242D01*
X66999114Y-161369906D01*
X66991004Y-161385078D01*
X66884659Y-161514659D01*
X66755078Y-161621004D01*
X66755076Y-161621005D01*
X66607242Y-161700024D01*
X66446823Y-161748687D01*
X66280000Y-161765117D01*
X66113178Y-161748687D01*
X65952759Y-161700024D01*
X65804925Y-161621005D01*
X65804923Y-161621004D01*
X65675342Y-161514659D01*
X65568997Y-161385078D01*
X65560887Y-161369906D01*
X65489977Y-161237242D01*
X65441314Y-161076823D01*
X65429000Y-160951803D01*
X65429000Y-160068197D01*
X65441313Y-159943178D01*
X65489976Y-159782759D01*
X65568995Y-159634923D01*
X65675341Y-159505341D01*
X65804922Y-159398996D01*
X65820094Y-159390886D01*
X65952758Y-159319976D01*
X66113177Y-159271313D01*
X66280000Y-159254883D01*
X66446822Y-159271313D01*
X66446822Y-159271313D01*
G37*
G36*
X30360443Y-158185519D02*
G01*
X30426627Y-158192037D01*
X30596466Y-158243557D01*
X30752991Y-158327222D01*
X30788729Y-158356552D01*
X30890186Y-158439814D01*
X30973448Y-158541271D01*
X31002778Y-158577009D01*
X31086443Y-158733534D01*
X31137963Y-158903373D01*
X31155359Y-159080000D01*
X31137963Y-159256627D01*
X31086443Y-159426466D01*
X31002778Y-159582991D01*
X30973448Y-159618729D01*
X30890186Y-159720186D01*
X30788729Y-159803448D01*
X30752991Y-159832778D01*
X30596466Y-159916443D01*
X30426627Y-159967963D01*
X30360443Y-159974481D01*
X30294260Y-159981000D01*
X30205740Y-159981000D01*
X30139557Y-159974481D01*
X30073373Y-159967963D01*
X29903534Y-159916443D01*
X29747009Y-159832778D01*
X29711271Y-159803448D01*
X29609814Y-159720186D01*
X29526552Y-159618729D01*
X29497222Y-159582991D01*
X29413557Y-159426466D01*
X29362037Y-159256627D01*
X29344641Y-159080000D01*
X29362037Y-158903373D01*
X29413557Y-158733534D01*
X29497222Y-158577009D01*
X29526552Y-158541271D01*
X29609814Y-158439814D01*
X29711271Y-158356552D01*
X29747009Y-158327222D01*
X29903534Y-158243557D01*
X30073373Y-158192037D01*
X30139557Y-158185519D01*
X30205740Y-158179000D01*
X30294260Y-158179000D01*
X30360443Y-158185519D01*
X30360443Y-158185519D01*
G37*
G36*
X35200443Y-158185519D02*
G01*
X35266627Y-158192037D01*
X35436466Y-158243557D01*
X35592991Y-158327222D01*
X35628729Y-158356552D01*
X35730186Y-158439814D01*
X35813448Y-158541271D01*
X35842778Y-158577009D01*
X35926443Y-158733534D01*
X35977963Y-158903373D01*
X35995359Y-159080000D01*
X35977963Y-159256627D01*
X35926443Y-159426466D01*
X35842778Y-159582991D01*
X35813448Y-159618729D01*
X35730186Y-159720186D01*
X35628729Y-159803448D01*
X35592991Y-159832778D01*
X35436466Y-159916443D01*
X35266627Y-159967963D01*
X35200443Y-159974481D01*
X35134260Y-159981000D01*
X35045740Y-159981000D01*
X34979557Y-159974481D01*
X34913373Y-159967963D01*
X34743534Y-159916443D01*
X34587009Y-159832778D01*
X34551271Y-159803448D01*
X34449814Y-159720186D01*
X34366552Y-159618729D01*
X34337222Y-159582991D01*
X34253557Y-159426466D01*
X34202037Y-159256627D01*
X34184641Y-159080000D01*
X34202037Y-158903373D01*
X34253557Y-158733534D01*
X34337222Y-158577009D01*
X34366552Y-158541271D01*
X34449814Y-158439814D01*
X34551271Y-158356552D01*
X34587009Y-158327222D01*
X34743534Y-158243557D01*
X34913373Y-158192037D01*
X34979557Y-158185519D01*
X35045740Y-158179000D01*
X35134260Y-158179000D01*
X35200443Y-158185519D01*
X35200443Y-158185519D01*
G37*
G36*
X40110443Y-158185519D02*
G01*
X40176627Y-158192037D01*
X40346466Y-158243557D01*
X40502991Y-158327222D01*
X40538729Y-158356552D01*
X40640186Y-158439814D01*
X40723448Y-158541271D01*
X40752778Y-158577009D01*
X40836443Y-158733534D01*
X40887963Y-158903373D01*
X40905359Y-159080000D01*
X40887963Y-159256627D01*
X40836443Y-159426466D01*
X40752778Y-159582991D01*
X40723448Y-159618729D01*
X40640186Y-159720186D01*
X40538729Y-159803448D01*
X40502991Y-159832778D01*
X40346466Y-159916443D01*
X40176627Y-159967963D01*
X40110443Y-159974481D01*
X40044260Y-159981000D01*
X39955740Y-159981000D01*
X39889557Y-159974481D01*
X39823373Y-159967963D01*
X39653534Y-159916443D01*
X39497009Y-159832778D01*
X39461271Y-159803448D01*
X39359814Y-159720186D01*
X39276552Y-159618729D01*
X39247222Y-159582991D01*
X39163557Y-159426466D01*
X39112037Y-159256627D01*
X39094641Y-159080000D01*
X39112037Y-158903373D01*
X39163557Y-158733534D01*
X39247222Y-158577009D01*
X39276552Y-158541271D01*
X39359814Y-158439814D01*
X39461271Y-158356552D01*
X39497009Y-158327222D01*
X39653534Y-158243557D01*
X39823373Y-158192037D01*
X39889557Y-158185519D01*
X39955740Y-158179000D01*
X40044260Y-158179000D01*
X40110443Y-158185519D01*
X40110443Y-158185519D01*
G37*
G36*
X25610443Y-158185519D02*
G01*
X25676627Y-158192037D01*
X25846466Y-158243557D01*
X26002991Y-158327222D01*
X26038729Y-158356552D01*
X26140186Y-158439814D01*
X26223448Y-158541271D01*
X26252778Y-158577009D01*
X26336443Y-158733534D01*
X26387963Y-158903373D01*
X26405359Y-159080000D01*
X26387963Y-159256627D01*
X26336443Y-159426466D01*
X26252778Y-159582991D01*
X26223448Y-159618729D01*
X26140186Y-159720186D01*
X26038729Y-159803448D01*
X26002991Y-159832778D01*
X25846466Y-159916443D01*
X25676627Y-159967963D01*
X25610443Y-159974481D01*
X25544260Y-159981000D01*
X25455740Y-159981000D01*
X25389557Y-159974481D01*
X25323373Y-159967963D01*
X25153534Y-159916443D01*
X24997009Y-159832778D01*
X24961271Y-159803448D01*
X24859814Y-159720186D01*
X24776552Y-159618729D01*
X24747222Y-159582991D01*
X24663557Y-159426466D01*
X24612037Y-159256627D01*
X24594641Y-159080000D01*
X24612037Y-158903373D01*
X24663557Y-158733534D01*
X24747222Y-158577009D01*
X24776552Y-158541271D01*
X24859814Y-158439814D01*
X24961271Y-158356552D01*
X24997009Y-158327222D01*
X25153534Y-158243557D01*
X25323373Y-158192037D01*
X25389557Y-158185519D01*
X25455740Y-158179000D01*
X25544260Y-158179000D01*
X25610443Y-158185519D01*
X25610443Y-158185519D01*
G37*
G36*
X30360443Y-155645519D02*
G01*
X30426627Y-155652037D01*
X30596466Y-155703557D01*
X30752991Y-155787222D01*
X30788729Y-155816552D01*
X30890186Y-155899814D01*
X30973448Y-156001271D01*
X31002778Y-156037009D01*
X31086443Y-156193534D01*
X31137963Y-156363373D01*
X31155359Y-156540000D01*
X31137963Y-156716627D01*
X31086443Y-156886466D01*
X31002778Y-157042991D01*
X30973448Y-157078729D01*
X30890186Y-157180186D01*
X30788729Y-157263448D01*
X30752991Y-157292778D01*
X30596466Y-157376443D01*
X30426627Y-157427963D01*
X30360443Y-157434481D01*
X30294260Y-157441000D01*
X30205740Y-157441000D01*
X30139557Y-157434481D01*
X30073373Y-157427963D01*
X29903534Y-157376443D01*
X29747009Y-157292778D01*
X29711271Y-157263448D01*
X29609814Y-157180186D01*
X29526552Y-157078729D01*
X29497222Y-157042991D01*
X29413557Y-156886466D01*
X29362037Y-156716627D01*
X29344641Y-156540000D01*
X29362037Y-156363373D01*
X29413557Y-156193534D01*
X29497222Y-156037009D01*
X29526552Y-156001271D01*
X29609814Y-155899814D01*
X29711271Y-155816552D01*
X29747009Y-155787222D01*
X29903534Y-155703557D01*
X30073373Y-155652037D01*
X30139557Y-155645519D01*
X30205740Y-155639000D01*
X30294260Y-155639000D01*
X30360443Y-155645519D01*
X30360443Y-155645519D01*
G37*
G36*
X40110443Y-155645519D02*
G01*
X40176627Y-155652037D01*
X40346466Y-155703557D01*
X40502991Y-155787222D01*
X40538729Y-155816552D01*
X40640186Y-155899814D01*
X40723448Y-156001271D01*
X40752778Y-156037009D01*
X40836443Y-156193534D01*
X40887963Y-156363373D01*
X40905359Y-156540000D01*
X40887963Y-156716627D01*
X40836443Y-156886466D01*
X40752778Y-157042991D01*
X40723448Y-157078729D01*
X40640186Y-157180186D01*
X40538729Y-157263448D01*
X40502991Y-157292778D01*
X40346466Y-157376443D01*
X40176627Y-157427963D01*
X40110443Y-157434481D01*
X40044260Y-157441000D01*
X39955740Y-157441000D01*
X39889557Y-157434481D01*
X39823373Y-157427963D01*
X39653534Y-157376443D01*
X39497009Y-157292778D01*
X39461271Y-157263448D01*
X39359814Y-157180186D01*
X39276552Y-157078729D01*
X39247222Y-157042991D01*
X39163557Y-156886466D01*
X39112037Y-156716627D01*
X39094641Y-156540000D01*
X39112037Y-156363373D01*
X39163557Y-156193534D01*
X39247222Y-156037009D01*
X39276552Y-156001271D01*
X39359814Y-155899814D01*
X39461271Y-155816552D01*
X39497009Y-155787222D01*
X39653534Y-155703557D01*
X39823373Y-155652037D01*
X39889557Y-155645519D01*
X39955740Y-155639000D01*
X40044260Y-155639000D01*
X40110443Y-155645519D01*
X40110443Y-155645519D01*
G37*
G36*
X35200443Y-155645519D02*
G01*
X35266627Y-155652037D01*
X35436466Y-155703557D01*
X35592991Y-155787222D01*
X35628729Y-155816552D01*
X35730186Y-155899814D01*
X35813448Y-156001271D01*
X35842778Y-156037009D01*
X35926443Y-156193534D01*
X35977963Y-156363373D01*
X35995359Y-156540000D01*
X35977963Y-156716627D01*
X35926443Y-156886466D01*
X35842778Y-157042991D01*
X35813448Y-157078729D01*
X35730186Y-157180186D01*
X35628729Y-157263448D01*
X35592991Y-157292778D01*
X35436466Y-157376443D01*
X35266627Y-157427963D01*
X35200443Y-157434481D01*
X35134260Y-157441000D01*
X35045740Y-157441000D01*
X34979557Y-157434481D01*
X34913373Y-157427963D01*
X34743534Y-157376443D01*
X34587009Y-157292778D01*
X34551271Y-157263448D01*
X34449814Y-157180186D01*
X34366552Y-157078729D01*
X34337222Y-157042991D01*
X34253557Y-156886466D01*
X34202037Y-156716627D01*
X34184641Y-156540000D01*
X34202037Y-156363373D01*
X34253557Y-156193534D01*
X34337222Y-156037009D01*
X34366552Y-156001271D01*
X34449814Y-155899814D01*
X34551271Y-155816552D01*
X34587009Y-155787222D01*
X34743534Y-155703557D01*
X34913373Y-155652037D01*
X34979557Y-155645519D01*
X35045740Y-155639000D01*
X35134260Y-155639000D01*
X35200443Y-155645519D01*
X35200443Y-155645519D01*
G37*
G36*
X25610443Y-155645519D02*
G01*
X25676627Y-155652037D01*
X25846466Y-155703557D01*
X26002991Y-155787222D01*
X26038729Y-155816552D01*
X26140186Y-155899814D01*
X26223448Y-156001271D01*
X26252778Y-156037009D01*
X26336443Y-156193534D01*
X26387963Y-156363373D01*
X26405359Y-156540000D01*
X26387963Y-156716627D01*
X26336443Y-156886466D01*
X26252778Y-157042991D01*
X26223448Y-157078729D01*
X26140186Y-157180186D01*
X26038729Y-157263448D01*
X26002991Y-157292778D01*
X25846466Y-157376443D01*
X25676627Y-157427963D01*
X25610443Y-157434481D01*
X25544260Y-157441000D01*
X25455740Y-157441000D01*
X25389557Y-157434481D01*
X25323373Y-157427963D01*
X25153534Y-157376443D01*
X24997009Y-157292778D01*
X24961271Y-157263448D01*
X24859814Y-157180186D01*
X24776552Y-157078729D01*
X24747222Y-157042991D01*
X24663557Y-156886466D01*
X24612037Y-156716627D01*
X24594641Y-156540000D01*
X24612037Y-156363373D01*
X24663557Y-156193534D01*
X24747222Y-156037009D01*
X24776552Y-156001271D01*
X24859814Y-155899814D01*
X24961271Y-155816552D01*
X24997009Y-155787222D01*
X25153534Y-155703557D01*
X25323373Y-155652037D01*
X25389557Y-155645519D01*
X25455740Y-155639000D01*
X25544260Y-155639000D01*
X25610443Y-155645519D01*
X25610443Y-155645519D01*
G37*
G36*
X26401000Y-154901000D02*
G01*
X24599000Y-154901000D01*
X24599000Y-153099000D01*
X26401000Y-153099000D01*
X26401000Y-154901000D01*
X26401000Y-154901000D01*
G37*
G36*
X31151000Y-154901000D02*
G01*
X29349000Y-154901000D01*
X29349000Y-153099000D01*
X31151000Y-153099000D01*
X31151000Y-154901000D01*
X31151000Y-154901000D01*
G37*
G36*
X35991000Y-154901000D02*
G01*
X34189000Y-154901000D01*
X34189000Y-153099000D01*
X35991000Y-153099000D01*
X35991000Y-154901000D01*
X35991000Y-154901000D01*
G37*
G36*
X40901000Y-154901000D02*
G01*
X39099000Y-154901000D01*
X39099000Y-153099000D01*
X40901000Y-153099000D01*
X40901000Y-154901000D01*
X40901000Y-154901000D01*
G37*
M02*
