G04 #@! TF.GenerationSoftware,KiCad,Pcbnew,5.1.4*
G04 #@! TF.CreationDate,2019-10-08T23:19:43+02:00*
G04 #@! TF.ProjectId,rc-29f001,72632d32-3966-4303-9031-2e6b69636164,rev?*
G04 #@! TF.SameCoordinates,Original*
G04 #@! TF.FileFunction,Legend,Top*
G04 #@! TF.FilePolarity,Positive*
%FSLAX46Y46*%
G04 Gerber Fmt 4.6, Leading zero omitted, Abs format (unit mm)*
G04 Created by KiCad (PCBNEW 5.1.4) date 2019-10-08 23:19:43*
%MOMM*%
%LPD*%
G04 APERTURE LIST*
%ADD10C,0.150000*%
%ADD11C,0.120000*%
G04 APERTURE END LIST*
D10*
X38559523Y-151916666D02*
X39035714Y-151916666D01*
X38464285Y-152202380D02*
X38797619Y-151202380D01*
X39130952Y-152202380D01*
X39988095Y-152202380D02*
X39416666Y-152202380D01*
X39702380Y-152202380D02*
X39702380Y-151202380D01*
X39607142Y-151345238D01*
X39511904Y-151440476D01*
X39416666Y-151488095D01*
X40321428Y-151202380D02*
X40940476Y-151202380D01*
X40607142Y-151583333D01*
X40750000Y-151583333D01*
X40845238Y-151630952D01*
X40892857Y-151678571D01*
X40940476Y-151773809D01*
X40940476Y-152011904D01*
X40892857Y-152107142D01*
X40845238Y-152154761D01*
X40750000Y-152202380D01*
X40464285Y-152202380D01*
X40369047Y-152154761D01*
X40321428Y-152107142D01*
X33809523Y-151916666D02*
X34285714Y-151916666D01*
X33714285Y-152202380D02*
X34047619Y-151202380D01*
X34380952Y-152202380D01*
X35238095Y-152202380D02*
X34666666Y-152202380D01*
X34952380Y-152202380D02*
X34952380Y-151202380D01*
X34857142Y-151345238D01*
X34761904Y-151440476D01*
X34666666Y-151488095D01*
X36095238Y-151535714D02*
X36095238Y-152202380D01*
X35857142Y-151154761D02*
X35619047Y-151869047D01*
X36238095Y-151869047D01*
X29059523Y-151916666D02*
X29535714Y-151916666D01*
X28964285Y-152202380D02*
X29297619Y-151202380D01*
X29630952Y-152202380D01*
X30488095Y-152202380D02*
X29916666Y-152202380D01*
X30202380Y-152202380D02*
X30202380Y-151202380D01*
X30107142Y-151345238D01*
X30011904Y-151440476D01*
X29916666Y-151488095D01*
X31392857Y-151202380D02*
X30916666Y-151202380D01*
X30869047Y-151678571D01*
X30916666Y-151630952D01*
X31011904Y-151583333D01*
X31250000Y-151583333D01*
X31345238Y-151630952D01*
X31392857Y-151678571D01*
X31440476Y-151773809D01*
X31440476Y-152011904D01*
X31392857Y-152107142D01*
X31345238Y-152154761D01*
X31250000Y-152202380D01*
X31011904Y-152202380D01*
X30916666Y-152154761D01*
X30869047Y-152107142D01*
X24309523Y-151916666D02*
X24785714Y-151916666D01*
X24214285Y-152202380D02*
X24547619Y-151202380D01*
X24880952Y-152202380D01*
X25738095Y-152202380D02*
X25166666Y-152202380D01*
X25452380Y-152202380D02*
X25452380Y-151202380D01*
X25357142Y-151345238D01*
X25261904Y-151440476D01*
X25166666Y-151488095D01*
X26595238Y-151202380D02*
X26404761Y-151202380D01*
X26309523Y-151250000D01*
X26261904Y-151297619D01*
X26166666Y-151440476D01*
X26119047Y-151630952D01*
X26119047Y-152011904D01*
X26166666Y-152107142D01*
X26214285Y-152154761D01*
X26309523Y-152202380D01*
X26500000Y-152202380D01*
X26595238Y-152154761D01*
X26642857Y-152107142D01*
X26690476Y-152011904D01*
X26690476Y-151773809D01*
X26642857Y-151678571D01*
X26595238Y-151630952D01*
X26500000Y-151583333D01*
X26309523Y-151583333D01*
X26214285Y-151630952D01*
X26166666Y-151678571D01*
X26119047Y-151773809D01*
X54071428Y-155785714D02*
X54452380Y-155785714D01*
X54214285Y-155452380D02*
X54214285Y-156309523D01*
X54261904Y-156404761D01*
X54357142Y-156452380D01*
X54452380Y-156452380D01*
X54785714Y-156452380D02*
X54785714Y-155452380D01*
X54785714Y-155833333D02*
X54880952Y-155785714D01*
X55071428Y-155785714D01*
X55166666Y-155833333D01*
X55214285Y-155880952D01*
X55261904Y-155976190D01*
X55261904Y-156261904D01*
X55214285Y-156357142D01*
X55166666Y-156404761D01*
X55071428Y-156452380D01*
X54880952Y-156452380D01*
X54785714Y-156404761D01*
X55642857Y-156404761D02*
X55738095Y-156452380D01*
X55928571Y-156452380D01*
X56023809Y-156404761D01*
X56071428Y-156309523D01*
X56071428Y-156261904D01*
X56023809Y-156166666D01*
X55928571Y-156119047D01*
X55785714Y-156119047D01*
X55690476Y-156071428D01*
X55642857Y-155976190D01*
X55642857Y-155928571D01*
X55690476Y-155833333D01*
X55785714Y-155785714D01*
X55928571Y-155785714D01*
X56023809Y-155833333D01*
X56500000Y-155785714D02*
X56500000Y-156785714D01*
X56500000Y-155833333D02*
X56595238Y-155785714D01*
X56785714Y-155785714D01*
X56880952Y-155833333D01*
X56928571Y-155880952D01*
X56976190Y-155976190D01*
X56976190Y-156261904D01*
X56928571Y-156357142D01*
X56880952Y-156404761D01*
X56785714Y-156452380D01*
X56595238Y-156452380D01*
X56500000Y-156404761D01*
X57833333Y-156452380D02*
X57833333Y-155928571D01*
X57785714Y-155833333D01*
X57690476Y-155785714D01*
X57500000Y-155785714D01*
X57404761Y-155833333D01*
X57833333Y-156404761D02*
X57738095Y-156452380D01*
X57500000Y-156452380D01*
X57404761Y-156404761D01*
X57357142Y-156309523D01*
X57357142Y-156214285D01*
X57404761Y-156119047D01*
X57500000Y-156071428D01*
X57738095Y-156071428D01*
X57833333Y-156023809D01*
X58738095Y-156404761D02*
X58642857Y-156452380D01*
X58452380Y-156452380D01*
X58357142Y-156404761D01*
X58309523Y-156357142D01*
X58261904Y-156261904D01*
X58261904Y-155976190D01*
X58309523Y-155880952D01*
X58357142Y-155833333D01*
X58452380Y-155785714D01*
X58642857Y-155785714D01*
X58738095Y-155833333D01*
X59547619Y-156404761D02*
X59452380Y-156452380D01*
X59261904Y-156452380D01*
X59166666Y-156404761D01*
X59119047Y-156309523D01*
X59119047Y-155928571D01*
X59166666Y-155833333D01*
X59261904Y-155785714D01*
X59452380Y-155785714D01*
X59547619Y-155833333D01*
X59595238Y-155928571D01*
X59595238Y-156023809D01*
X59119047Y-156119047D01*
X60023809Y-156357142D02*
X60071428Y-156404761D01*
X60023809Y-156452380D01*
X59976190Y-156404761D01*
X60023809Y-156357142D01*
X60023809Y-156452380D01*
X60928571Y-156452380D02*
X60928571Y-155452380D01*
X60928571Y-156404761D02*
X60833333Y-156452380D01*
X60642857Y-156452380D01*
X60547619Y-156404761D01*
X60500000Y-156357142D01*
X60452380Y-156261904D01*
X60452380Y-155976190D01*
X60500000Y-155880952D01*
X60547619Y-155833333D01*
X60642857Y-155785714D01*
X60833333Y-155785714D01*
X60928571Y-155833333D01*
X61785714Y-156404761D02*
X61690476Y-156452380D01*
X61500000Y-156452380D01*
X61404761Y-156404761D01*
X61357142Y-156309523D01*
X61357142Y-155928571D01*
X61404761Y-155833333D01*
X61500000Y-155785714D01*
X61690476Y-155785714D01*
X61785714Y-155833333D01*
X61833333Y-155928571D01*
X61833333Y-156023809D01*
X61357142Y-156119047D01*
X50642857Y-153452380D02*
X51214285Y-153452380D01*
X50928571Y-154452380D02*
X50928571Y-153452380D01*
X51690476Y-154452380D02*
X51595238Y-154404761D01*
X51547619Y-154357142D01*
X51500000Y-154261904D01*
X51500000Y-153976190D01*
X51547619Y-153880952D01*
X51595238Y-153833333D01*
X51690476Y-153785714D01*
X51833333Y-153785714D01*
X51928571Y-153833333D01*
X51976190Y-153880952D01*
X52023809Y-153976190D01*
X52023809Y-154261904D01*
X51976190Y-154357142D01*
X51928571Y-154404761D01*
X51833333Y-154452380D01*
X51690476Y-154452380D01*
X52452380Y-154452380D02*
X52452380Y-153452380D01*
X52452380Y-153833333D02*
X52547619Y-153785714D01*
X52738095Y-153785714D01*
X52833333Y-153833333D01*
X52880952Y-153880952D01*
X52928571Y-153976190D01*
X52928571Y-154261904D01*
X52880952Y-154357142D01*
X52833333Y-154404761D01*
X52738095Y-154452380D01*
X52547619Y-154452380D01*
X52452380Y-154404761D01*
X53357142Y-154452380D02*
X53357142Y-153785714D01*
X53357142Y-153452380D02*
X53309523Y-153500000D01*
X53357142Y-153547619D01*
X53404761Y-153500000D01*
X53357142Y-153452380D01*
X53357142Y-153547619D01*
X54261904Y-154452380D02*
X54261904Y-153928571D01*
X54214285Y-153833333D01*
X54119047Y-153785714D01*
X53928571Y-153785714D01*
X53833333Y-153833333D01*
X54261904Y-154404761D02*
X54166666Y-154452380D01*
X53928571Y-154452380D01*
X53833333Y-154404761D01*
X53785714Y-154309523D01*
X53785714Y-154214285D01*
X53833333Y-154119047D01*
X53928571Y-154071428D01*
X54166666Y-154071428D01*
X54261904Y-154023809D01*
X54690476Y-154404761D02*
X54785714Y-154452380D01*
X54976190Y-154452380D01*
X55071428Y-154404761D01*
X55119047Y-154309523D01*
X55119047Y-154261904D01*
X55071428Y-154166666D01*
X54976190Y-154119047D01*
X54833333Y-154119047D01*
X54738095Y-154071428D01*
X54690476Y-153976190D01*
X54690476Y-153928571D01*
X54738095Y-153833333D01*
X54833333Y-153785714D01*
X54976190Y-153785714D01*
X55071428Y-153833333D01*
X56309523Y-154452380D02*
X56309523Y-153452380D01*
X56642857Y-154166666D01*
X56976190Y-153452380D01*
X56976190Y-154452380D01*
X57880952Y-154452380D02*
X57880952Y-153928571D01*
X57833333Y-153833333D01*
X57738095Y-153785714D01*
X57547619Y-153785714D01*
X57452380Y-153833333D01*
X57880952Y-154404761D02*
X57785714Y-154452380D01*
X57547619Y-154452380D01*
X57452380Y-154404761D01*
X57404761Y-154309523D01*
X57404761Y-154214285D01*
X57452380Y-154119047D01*
X57547619Y-154071428D01*
X57785714Y-154071428D01*
X57880952Y-154023809D01*
X57452380Y-153452380D02*
X57500000Y-153500000D01*
X57452380Y-153547619D01*
X57404761Y-153500000D01*
X57452380Y-153452380D01*
X57452380Y-153547619D01*
X57833333Y-153452380D02*
X57880952Y-153500000D01*
X57833333Y-153547619D01*
X57785714Y-153500000D01*
X57833333Y-153452380D01*
X57833333Y-153547619D01*
X58785714Y-154452380D02*
X58785714Y-153452380D01*
X58785714Y-154404761D02*
X58690476Y-154452380D01*
X58500000Y-154452380D01*
X58404761Y-154404761D01*
X58357142Y-154357142D01*
X58309523Y-154261904D01*
X58309523Y-153976190D01*
X58357142Y-153880952D01*
X58404761Y-153833333D01*
X58500000Y-153785714D01*
X58690476Y-153785714D01*
X58785714Y-153833333D01*
X59642857Y-154404761D02*
X59547619Y-154452380D01*
X59357142Y-154452380D01*
X59261904Y-154404761D01*
X59214285Y-154309523D01*
X59214285Y-153928571D01*
X59261904Y-153833333D01*
X59357142Y-153785714D01*
X59547619Y-153785714D01*
X59642857Y-153833333D01*
X59690476Y-153928571D01*
X59690476Y-154023809D01*
X59214285Y-154119047D01*
X60261904Y-154452380D02*
X60166666Y-154404761D01*
X60119047Y-154309523D01*
X60119047Y-153452380D01*
X60690476Y-154404761D02*
X60690476Y-154452380D01*
X60642857Y-154547619D01*
X60595238Y-154595238D01*
X61833333Y-153547619D02*
X61880952Y-153500000D01*
X61976190Y-153452380D01*
X62214285Y-153452380D01*
X62309523Y-153500000D01*
X62357142Y-153547619D01*
X62404761Y-153642857D01*
X62404761Y-153738095D01*
X62357142Y-153880952D01*
X61785714Y-154452380D01*
X62404761Y-154452380D01*
X63023809Y-153452380D02*
X63119047Y-153452380D01*
X63214285Y-153500000D01*
X63261904Y-153547619D01*
X63309523Y-153642857D01*
X63357142Y-153833333D01*
X63357142Y-154071428D01*
X63309523Y-154261904D01*
X63261904Y-154357142D01*
X63214285Y-154404761D01*
X63119047Y-154452380D01*
X63023809Y-154452380D01*
X62928571Y-154404761D01*
X62880952Y-154357142D01*
X62833333Y-154261904D01*
X62785714Y-154071428D01*
X62785714Y-153833333D01*
X62833333Y-153642857D01*
X62880952Y-153547619D01*
X62928571Y-153500000D01*
X63023809Y-153452380D01*
X64309523Y-154452380D02*
X63738095Y-154452380D01*
X64023809Y-154452380D02*
X64023809Y-153452380D01*
X63928571Y-153595238D01*
X63833333Y-153690476D01*
X63738095Y-153738095D01*
X64785714Y-154452380D02*
X64976190Y-154452380D01*
X65071428Y-154404761D01*
X65119047Y-154357142D01*
X65214285Y-154214285D01*
X65261904Y-154023809D01*
X65261904Y-153642857D01*
X65214285Y-153547619D01*
X65166666Y-153500000D01*
X65071428Y-153452380D01*
X64880952Y-153452380D01*
X64785714Y-153500000D01*
X64738095Y-153547619D01*
X64690476Y-153642857D01*
X64690476Y-153880952D01*
X64738095Y-153976190D01*
X64785714Y-154023809D01*
X64880952Y-154071428D01*
X65071428Y-154071428D01*
X65166666Y-154023809D01*
X65214285Y-153976190D01*
X65261904Y-153880952D01*
X50238095Y-152702380D02*
X50238095Y-151702380D01*
X50571428Y-152416666D01*
X50904761Y-151702380D01*
X50904761Y-152702380D01*
X51285714Y-151702380D02*
X51952380Y-152702380D01*
X51952380Y-151702380D02*
X51285714Y-152702380D01*
X52285714Y-151797619D02*
X52333333Y-151750000D01*
X52428571Y-151702380D01*
X52666666Y-151702380D01*
X52761904Y-151750000D01*
X52809523Y-151797619D01*
X52857142Y-151892857D01*
X52857142Y-151988095D01*
X52809523Y-152130952D01*
X52238095Y-152702380D01*
X52857142Y-152702380D01*
X53333333Y-152702380D02*
X53523809Y-152702380D01*
X53619047Y-152654761D01*
X53666666Y-152607142D01*
X53761904Y-152464285D01*
X53809523Y-152273809D01*
X53809523Y-151892857D01*
X53761904Y-151797619D01*
X53714285Y-151750000D01*
X53619047Y-151702380D01*
X53428571Y-151702380D01*
X53333333Y-151750000D01*
X53285714Y-151797619D01*
X53238095Y-151892857D01*
X53238095Y-152130952D01*
X53285714Y-152226190D01*
X53333333Y-152273809D01*
X53428571Y-152321428D01*
X53619047Y-152321428D01*
X53714285Y-152273809D01*
X53761904Y-152226190D01*
X53809523Y-152130952D01*
X54571428Y-152178571D02*
X54238095Y-152178571D01*
X54238095Y-152702380D02*
X54238095Y-151702380D01*
X54714285Y-151702380D01*
X55285714Y-151702380D02*
X55380952Y-151702380D01*
X55476190Y-151750000D01*
X55523809Y-151797619D01*
X55571428Y-151892857D01*
X55619047Y-152083333D01*
X55619047Y-152321428D01*
X55571428Y-152511904D01*
X55523809Y-152607142D01*
X55476190Y-152654761D01*
X55380952Y-152702380D01*
X55285714Y-152702380D01*
X55190476Y-152654761D01*
X55142857Y-152607142D01*
X55095238Y-152511904D01*
X55047619Y-152321428D01*
X55047619Y-152083333D01*
X55095238Y-151892857D01*
X55142857Y-151797619D01*
X55190476Y-151750000D01*
X55285714Y-151702380D01*
X56238095Y-151702380D02*
X56333333Y-151702380D01*
X56428571Y-151750000D01*
X56476190Y-151797619D01*
X56523809Y-151892857D01*
X56571428Y-152083333D01*
X56571428Y-152321428D01*
X56523809Y-152511904D01*
X56476190Y-152607142D01*
X56428571Y-152654761D01*
X56333333Y-152702380D01*
X56238095Y-152702380D01*
X56142857Y-152654761D01*
X56095238Y-152607142D01*
X56047619Y-152511904D01*
X56000000Y-152321428D01*
X56000000Y-152083333D01*
X56047619Y-151892857D01*
X56095238Y-151797619D01*
X56142857Y-151750000D01*
X56238095Y-151702380D01*
X57523809Y-152702380D02*
X56952380Y-152702380D01*
X57238095Y-152702380D02*
X57238095Y-151702380D01*
X57142857Y-151845238D01*
X57047619Y-151940476D01*
X56952380Y-151988095D01*
X58285714Y-152178571D02*
X58428571Y-152226190D01*
X58476190Y-152273809D01*
X58523809Y-152369047D01*
X58523809Y-152511904D01*
X58476190Y-152607142D01*
X58428571Y-152654761D01*
X58333333Y-152702380D01*
X57952380Y-152702380D01*
X57952380Y-151702380D01*
X58285714Y-151702380D01*
X58380952Y-151750000D01*
X58428571Y-151797619D01*
X58476190Y-151892857D01*
X58476190Y-151988095D01*
X58428571Y-152083333D01*
X58380952Y-152130952D01*
X58285714Y-152178571D01*
X57952380Y-152178571D01*
X59857142Y-152130952D02*
X59761904Y-152083333D01*
X59714285Y-152035714D01*
X59666666Y-151940476D01*
X59666666Y-151892857D01*
X59714285Y-151797619D01*
X59761904Y-151750000D01*
X59857142Y-151702380D01*
X60047619Y-151702380D01*
X60142857Y-151750000D01*
X60190476Y-151797619D01*
X60238095Y-151892857D01*
X60238095Y-151940476D01*
X60190476Y-152035714D01*
X60142857Y-152083333D01*
X60047619Y-152130952D01*
X59857142Y-152130952D01*
X59761904Y-152178571D01*
X59714285Y-152226190D01*
X59666666Y-152321428D01*
X59666666Y-152511904D01*
X59714285Y-152607142D01*
X59761904Y-152654761D01*
X59857142Y-152702380D01*
X60047619Y-152702380D01*
X60142857Y-152654761D01*
X60190476Y-152607142D01*
X60238095Y-152511904D01*
X60238095Y-152321428D01*
X60190476Y-152226190D01*
X60142857Y-152178571D01*
X60047619Y-152130952D01*
X60666666Y-152702380D02*
X60666666Y-151702380D01*
X60761904Y-152321428D02*
X61047619Y-152702380D01*
X61047619Y-152035714D02*
X60666666Y-152416666D01*
X62571428Y-152178571D02*
X62238095Y-152178571D01*
X62238095Y-152702380D02*
X62238095Y-151702380D01*
X62714285Y-151702380D01*
X63238095Y-152702380D02*
X63142857Y-152654761D01*
X63095238Y-152559523D01*
X63095238Y-151702380D01*
X64047619Y-152702380D02*
X64047619Y-152178571D01*
X64000000Y-152083333D01*
X63904761Y-152035714D01*
X63714285Y-152035714D01*
X63619047Y-152083333D01*
X64047619Y-152654761D02*
X63952380Y-152702380D01*
X63714285Y-152702380D01*
X63619047Y-152654761D01*
X63571428Y-152559523D01*
X63571428Y-152464285D01*
X63619047Y-152369047D01*
X63714285Y-152321428D01*
X63952380Y-152321428D01*
X64047619Y-152273809D01*
X64476190Y-152654761D02*
X64571428Y-152702380D01*
X64761904Y-152702380D01*
X64857142Y-152654761D01*
X64904761Y-152559523D01*
X64904761Y-152511904D01*
X64857142Y-152416666D01*
X64761904Y-152369047D01*
X64619047Y-152369047D01*
X64523809Y-152321428D01*
X64476190Y-152226190D01*
X64476190Y-152178571D01*
X64523809Y-152083333D01*
X64619047Y-152035714D01*
X64761904Y-152035714D01*
X64857142Y-152083333D01*
X65333333Y-152702380D02*
X65333333Y-151702380D01*
X65761904Y-152702380D02*
X65761904Y-152178571D01*
X65714285Y-152083333D01*
X65619047Y-152035714D01*
X65476190Y-152035714D01*
X65380952Y-152083333D01*
X65333333Y-152130952D01*
D11*
X47170000Y-167130000D02*
G75*
G02X47170000Y-169130000I0J-1000000D01*
G01*
X47170000Y-169130000D02*
X47170000Y-174190000D01*
X47170000Y-174190000D02*
X87930000Y-174190000D01*
X87930000Y-174190000D02*
X87930000Y-162070000D01*
X87930000Y-162070000D02*
X47170000Y-162070000D01*
X47170000Y-162070000D02*
X47170000Y-167130000D01*
X47110000Y-177190000D02*
X87990000Y-177190000D01*
X87990000Y-177190000D02*
X87990000Y-159070000D01*
X87990000Y-159070000D02*
X47110000Y-159070000D01*
X47110000Y-159070000D02*
X47110000Y-177190000D01*
X42080000Y-173060000D02*
G75*
G02X42080000Y-171060000I0J1000000D01*
G01*
X42080000Y-171060000D02*
X42080000Y-169810000D01*
X42080000Y-169810000D02*
X24180000Y-169810000D01*
X24180000Y-169810000D02*
X24180000Y-174310000D01*
X24180000Y-174310000D02*
X42080000Y-174310000D01*
X42080000Y-174310000D02*
X42080000Y-173060000D01*
X42140000Y-166810000D02*
X24120000Y-166810000D01*
X24120000Y-166810000D02*
X24120000Y-177310000D01*
X24120000Y-177310000D02*
X42140000Y-177310000D01*
X42140000Y-177310000D02*
X42140000Y-166810000D01*
X38670000Y-160410000D02*
X41330000Y-160410000D01*
X38670000Y-155270000D02*
X38670000Y-160410000D01*
X41330000Y-155270000D02*
X41330000Y-160410000D01*
X38670000Y-155270000D02*
X41330000Y-155270000D01*
X38670000Y-154000000D02*
X38670000Y-152670000D01*
X38670000Y-152670000D02*
X40000000Y-152670000D01*
X33760000Y-160410000D02*
X36420000Y-160410000D01*
X33760000Y-155270000D02*
X33760000Y-160410000D01*
X36420000Y-155270000D02*
X36420000Y-160410000D01*
X33760000Y-155270000D02*
X36420000Y-155270000D01*
X33760000Y-154000000D02*
X33760000Y-152670000D01*
X33760000Y-152670000D02*
X35090000Y-152670000D01*
X28920000Y-160410000D02*
X31580000Y-160410000D01*
X28920000Y-155270000D02*
X28920000Y-160410000D01*
X31580000Y-155270000D02*
X31580000Y-160410000D01*
X28920000Y-155270000D02*
X31580000Y-155270000D01*
X28920000Y-154000000D02*
X28920000Y-152670000D01*
X28920000Y-152670000D02*
X30250000Y-152670000D01*
X24170000Y-160410000D02*
X26830000Y-160410000D01*
X24170000Y-155270000D02*
X24170000Y-160410000D01*
X26830000Y-155270000D02*
X26830000Y-160410000D01*
X24170000Y-155270000D02*
X26830000Y-155270000D01*
X24170000Y-154000000D02*
X24170000Y-152670000D01*
X24170000Y-152670000D02*
X25500000Y-152670000D01*
X39000000Y-180600000D02*
X40000000Y-180600000D01*
X40000000Y-178900000D02*
X39000000Y-178900000D01*
X73000000Y-167400000D02*
X72000000Y-167400000D01*
X72000000Y-169100000D02*
X73000000Y-169100000D01*
X20730000Y-189580000D02*
X20730000Y-188250000D01*
X22060000Y-189580000D02*
X20730000Y-189580000D01*
X23330000Y-189580000D02*
X23330000Y-186920000D01*
X23330000Y-186920000D02*
X119910000Y-186920000D01*
X23330000Y-189580000D02*
X119910000Y-189580000D01*
X119910000Y-189580000D02*
X119910000Y-186920000D01*
D10*
X45452380Y-169011904D02*
X46261904Y-169011904D01*
X46357142Y-168964285D01*
X46404761Y-168916666D01*
X46452380Y-168821428D01*
X46452380Y-168630952D01*
X46404761Y-168535714D01*
X46357142Y-168488095D01*
X46261904Y-168440476D01*
X45452380Y-168440476D01*
X45547619Y-168011904D02*
X45500000Y-167964285D01*
X45452380Y-167869047D01*
X45452380Y-167630952D01*
X45500000Y-167535714D01*
X45547619Y-167488095D01*
X45642857Y-167440476D01*
X45738095Y-167440476D01*
X45880952Y-167488095D01*
X46452380Y-168059523D01*
X46452380Y-167440476D01*
X39452380Y-172761904D02*
X40261904Y-172761904D01*
X40357142Y-172714285D01*
X40404761Y-172666666D01*
X40452380Y-172571428D01*
X40452380Y-172380952D01*
X40404761Y-172285714D01*
X40357142Y-172238095D01*
X40261904Y-172190476D01*
X39452380Y-172190476D01*
X40452380Y-171190476D02*
X40452380Y-171761904D01*
X40452380Y-171476190D02*
X39452380Y-171476190D01*
X39595238Y-171571428D01*
X39690476Y-171666666D01*
X39738095Y-171761904D01*
X39333333Y-181857142D02*
X39285714Y-181904761D01*
X39142857Y-181952380D01*
X39047619Y-181952380D01*
X38904761Y-181904761D01*
X38809523Y-181809523D01*
X38761904Y-181714285D01*
X38714285Y-181523809D01*
X38714285Y-181380952D01*
X38761904Y-181190476D01*
X38809523Y-181095238D01*
X38904761Y-181000000D01*
X39047619Y-180952380D01*
X39142857Y-180952380D01*
X39285714Y-181000000D01*
X39333333Y-181047619D01*
X39714285Y-181047619D02*
X39761904Y-181000000D01*
X39857142Y-180952380D01*
X40095238Y-180952380D01*
X40190476Y-181000000D01*
X40238095Y-181047619D01*
X40285714Y-181142857D01*
X40285714Y-181238095D01*
X40238095Y-181380952D01*
X39666666Y-181952380D01*
X40285714Y-181952380D01*
X72333333Y-166857142D02*
X72285714Y-166904761D01*
X72142857Y-166952380D01*
X72047619Y-166952380D01*
X71904761Y-166904761D01*
X71809523Y-166809523D01*
X71761904Y-166714285D01*
X71714285Y-166523809D01*
X71714285Y-166380952D01*
X71761904Y-166190476D01*
X71809523Y-166095238D01*
X71904761Y-166000000D01*
X72047619Y-165952380D01*
X72142857Y-165952380D01*
X72285714Y-166000000D01*
X72333333Y-166047619D01*
X73285714Y-166952380D02*
X72714285Y-166952380D01*
X73000000Y-166952380D02*
X73000000Y-165952380D01*
X72904761Y-166095238D01*
X72809523Y-166190476D01*
X72714285Y-166238095D01*
X19182380Y-188583333D02*
X19896666Y-188583333D01*
X20039523Y-188630952D01*
X20134761Y-188726190D01*
X20182380Y-188869047D01*
X20182380Y-188964285D01*
X20182380Y-187583333D02*
X20182380Y-188154761D01*
X20182380Y-187869047D02*
X19182380Y-187869047D01*
X19325238Y-187964285D01*
X19420476Y-188059523D01*
X19468095Y-188154761D01*
M02*
