G04 #@! TF.GenerationSoftware,KiCad,Pcbnew,5.1.4*
G04 #@! TF.CreationDate,2019-10-08T23:19:43+02:00*
G04 #@! TF.ProjectId,rc-29f001,72632d32-3966-4303-9031-2e6b69636164,rev?*
G04 #@! TF.SameCoordinates,Original*
G04 #@! TF.FileFunction,Copper,L2,Bot*
G04 #@! TF.FilePolarity,Positive*
%FSLAX46Y46*%
G04 Gerber Fmt 4.6, Leading zero omitted, Abs format (unit mm)*
G04 Created by KiCad (PCBNEW 5.1.4) date 2019-10-08 23:19:43*
%MOMM*%
%LPD*%
G04 APERTURE LIST*
%ADD10R,1.600000X2.400000*%
%ADD11O,1.600000X2.400000*%
%ADD12R,1.700000X1.700000*%
%ADD13O,1.700000X1.700000*%
%ADD14C,0.800000*%
%ADD15C,0.200000*%
%ADD16C,1.000000*%
%ADD17C,0.250000*%
%ADD18C,0.254000*%
G04 APERTURE END LIST*
D10*
X48500000Y-175750000D03*
D11*
X86600000Y-160510000D03*
X51040000Y-175750000D03*
X84060000Y-160510000D03*
X53580000Y-175750000D03*
X81520000Y-160510000D03*
X56120000Y-175750000D03*
X78980000Y-160510000D03*
X58660000Y-175750000D03*
X76440000Y-160510000D03*
X61200000Y-175750000D03*
X73900000Y-160510000D03*
X63740000Y-175750000D03*
X71360000Y-160510000D03*
X66280000Y-175750000D03*
X68820000Y-160510000D03*
X68820000Y-175750000D03*
X66280000Y-160510000D03*
X71360000Y-175750000D03*
X63740000Y-160510000D03*
X73900000Y-175750000D03*
X61200000Y-160510000D03*
X76440000Y-175750000D03*
X58660000Y-160510000D03*
X78980000Y-175750000D03*
X56120000Y-160510000D03*
X81520000Y-175750000D03*
X53580000Y-160510000D03*
X84060000Y-175750000D03*
X51040000Y-160510000D03*
X86600000Y-175750000D03*
X48500000Y-160510000D03*
D10*
X40750000Y-168250000D03*
D11*
X25510000Y-175870000D03*
X38210000Y-168250000D03*
X28050000Y-175870000D03*
X35670000Y-168250000D03*
X30590000Y-175870000D03*
X33130000Y-168250000D03*
X33130000Y-175870000D03*
X30590000Y-168250000D03*
X35670000Y-175870000D03*
X28050000Y-168250000D03*
X38210000Y-175870000D03*
X25510000Y-168250000D03*
X40750000Y-175870000D03*
D12*
X40000000Y-154000000D03*
D13*
X40000000Y-156540000D03*
X40000000Y-159080000D03*
D12*
X35090000Y-154000000D03*
D13*
X35090000Y-156540000D03*
X35090000Y-159080000D03*
D12*
X30250000Y-154000000D03*
D13*
X30250000Y-156540000D03*
X30250000Y-159080000D03*
D12*
X25500000Y-154000000D03*
D13*
X25500000Y-156540000D03*
X25500000Y-159080000D03*
X118580000Y-188250000D03*
X116040000Y-188250000D03*
X113500000Y-188250000D03*
X110960000Y-188250000D03*
X108420000Y-188250000D03*
X105880000Y-188250000D03*
X103340000Y-188250000D03*
X100800000Y-188250000D03*
X98260000Y-188250000D03*
X95720000Y-188250000D03*
X93180000Y-188250000D03*
X90640000Y-188250000D03*
X88100000Y-188250000D03*
X85560000Y-188250000D03*
X83020000Y-188250000D03*
X80480000Y-188250000D03*
X77940000Y-188250000D03*
X75400000Y-188250000D03*
X72860000Y-188250000D03*
X70320000Y-188250000D03*
X67780000Y-188250000D03*
X65240000Y-188250000D03*
X62700000Y-188250000D03*
X60160000Y-188250000D03*
X57620000Y-188250000D03*
X55080000Y-188250000D03*
X52540000Y-188250000D03*
X50000000Y-188250000D03*
X47460000Y-188250000D03*
X44920000Y-188250000D03*
X42380000Y-188250000D03*
X39840000Y-188250000D03*
X37300000Y-188250000D03*
X34760000Y-188250000D03*
X32220000Y-188250000D03*
X29680000Y-188250000D03*
X27140000Y-188250000D03*
X24600000Y-188250000D03*
D12*
X22060000Y-188250000D03*
D14*
X78250000Y-194250000D03*
X84250000Y-186000000D03*
X23250000Y-164000000D03*
X34750000Y-181500000D03*
X59750000Y-153750000D03*
X71500000Y-154750000D03*
X108750000Y-154250000D03*
X115250000Y-154250000D03*
X75750000Y-168250000D03*
X85000000Y-186500000D03*
X84250000Y-186750000D03*
X52000000Y-171500000D03*
X45500000Y-173500000D03*
X31750000Y-174225000D03*
X42500000Y-163000000D03*
X31000000Y-185750000D03*
X55000000Y-170000000D03*
X60750000Y-164750000D03*
X71250000Y-165000000D03*
X50000000Y-170750000D03*
X45323002Y-165500000D03*
X54250000Y-164750000D03*
X43250000Y-182900000D03*
X43000000Y-169500000D03*
X46000000Y-166500000D03*
X46000000Y-166500000D03*
X46000000Y-166500000D03*
X55250000Y-165500000D03*
X45750000Y-164000000D03*
X45750000Y-164000000D03*
D15*
X51040000Y-175350000D02*
X51040000Y-175750000D01*
X32960000Y-164000000D02*
X39690000Y-164000000D01*
X39690000Y-164000000D02*
X51040000Y-175350000D01*
X25500000Y-156540000D02*
X32960000Y-164000000D01*
X53580000Y-175350000D02*
X53580000Y-175750000D01*
X52580000Y-174350000D02*
X53580000Y-175350000D01*
X35759999Y-157929999D02*
X52180000Y-174350000D01*
X52180000Y-174350000D02*
X52580000Y-174350000D01*
X31639999Y-157929999D02*
X35759999Y-157929999D01*
X30250000Y-156540000D02*
X31639999Y-157929999D01*
D16*
X40750000Y-178070000D02*
X44680000Y-182000000D01*
X40750000Y-175870000D02*
X40750000Y-178070000D01*
X58990000Y-182000000D02*
X65240000Y-188250000D01*
X44680000Y-182000000D02*
X58990000Y-182000000D01*
D17*
X83020000Y-188250000D02*
X83020000Y-184270000D01*
X77854990Y-179104990D02*
X77854990Y-173895010D01*
X83020000Y-184270000D02*
X77854990Y-179104990D01*
X77854990Y-173895010D02*
X75459980Y-171500000D01*
X75459980Y-171500000D02*
X52000000Y-171500000D01*
X45500000Y-173500000D02*
X30750000Y-173500000D01*
X30590000Y-173660000D02*
X30590000Y-175870000D01*
X30750000Y-173500000D02*
X30590000Y-173660000D01*
X43000000Y-174000000D02*
X31750000Y-174000000D01*
X47250000Y-178250000D02*
X43000000Y-174000000D01*
X77940000Y-188250000D02*
X77940000Y-187047919D01*
X72500000Y-178250000D02*
X47250000Y-178250000D01*
X77750000Y-183500000D02*
X72500000Y-178250000D01*
X31750000Y-174000000D02*
X31750000Y-174225000D01*
X77940000Y-187047919D02*
X77750000Y-186857919D01*
X77750000Y-186857919D02*
X77750000Y-183500000D01*
X61200000Y-161960000D02*
X60160000Y-163000000D01*
X61200000Y-160510000D02*
X61200000Y-161960000D01*
X60160000Y-163000000D02*
X42500000Y-163000000D01*
X37340000Y-185750000D02*
X39840000Y-188250000D01*
X31000000Y-185750000D02*
X37340000Y-185750000D01*
X55565685Y-170000000D02*
X60750000Y-164815685D01*
X55000000Y-170000000D02*
X55565685Y-170000000D01*
X60750000Y-164815685D02*
X60750000Y-164750000D01*
X71250000Y-165000000D02*
X71250000Y-168250000D01*
X71250000Y-168250000D02*
X68750000Y-170750000D01*
X68750000Y-170750000D02*
X50000000Y-170750000D01*
X45323002Y-165500000D02*
X53500000Y-165500000D01*
X53500000Y-165500000D02*
X54250000Y-164750000D01*
X42850001Y-183299999D02*
X42850001Y-183649999D01*
X29680000Y-185570000D02*
X29680000Y-188250000D01*
X30500000Y-184750000D02*
X29680000Y-185570000D01*
X41750000Y-184750000D02*
X30500000Y-184750000D01*
X43250000Y-182900000D02*
X42850001Y-183299999D01*
X42850001Y-183649999D02*
X41750000Y-184750000D01*
X40750000Y-168650000D02*
X37150000Y-172250000D01*
X40750000Y-168250000D02*
X40750000Y-168650000D01*
X37150000Y-172250000D02*
X25000000Y-172250000D01*
X25000000Y-172250000D02*
X23750000Y-173500000D01*
X23750000Y-184860000D02*
X27140000Y-188250000D01*
X23750000Y-173500000D02*
X23750000Y-184860000D01*
X38210000Y-168650000D02*
X38210000Y-168250000D01*
X35110000Y-171750000D02*
X38210000Y-168650000D01*
X23000000Y-173250000D02*
X24500000Y-171750000D01*
X24600000Y-188250000D02*
X24600000Y-187047919D01*
X24600000Y-187047919D02*
X24500000Y-186947919D01*
X24500000Y-171750000D02*
X35110000Y-171750000D01*
X24500000Y-186947919D02*
X24447919Y-186947919D01*
X23000000Y-185500000D02*
X23000000Y-173250000D01*
X24447919Y-186947919D02*
X23000000Y-185500000D01*
X30590000Y-169700000D02*
X30500000Y-169790000D01*
X30590000Y-168250000D02*
X30590000Y-169700000D01*
X30500000Y-169790000D02*
X30500000Y-171000000D01*
X30500000Y-171000000D02*
X22250000Y-171000000D01*
X22060000Y-171190000D02*
X22060000Y-188250000D01*
X22250000Y-171000000D02*
X22060000Y-171190000D01*
D15*
X53700001Y-157690001D02*
X56120000Y-160110000D01*
X56120000Y-160110000D02*
X56120000Y-160510000D01*
X36240001Y-157690001D02*
X53700001Y-157690001D01*
X35090000Y-156540000D02*
X36240001Y-157690001D01*
X41202081Y-156540000D02*
X41242081Y-156500000D01*
X40000000Y-156540000D02*
X41202081Y-156540000D01*
X58660000Y-160110000D02*
X58660000Y-160510000D01*
X55050000Y-156500000D02*
X58660000Y-160110000D01*
X41242081Y-156500000D02*
X55050000Y-156500000D01*
D17*
X25510000Y-174420000D02*
X25500000Y-174410000D01*
X25510000Y-175870000D02*
X25510000Y-174420000D01*
X25500000Y-174410000D02*
X25500000Y-172750000D01*
X25500000Y-172750000D02*
X38500000Y-172750000D01*
X39750000Y-171500000D02*
X39750000Y-171000000D01*
X38500000Y-172750000D02*
X39750000Y-171500000D01*
X39750000Y-171000000D02*
X40750000Y-170000000D01*
X40750000Y-170000000D02*
X42500000Y-170000000D01*
X42500000Y-170000000D02*
X43000000Y-169500000D01*
X46000000Y-166500000D02*
X54250000Y-166500000D01*
X54250000Y-166500000D02*
X55250000Y-165500000D01*
X34620000Y-168250000D02*
X33130000Y-168250000D01*
X35670000Y-168250000D02*
X34620000Y-168250000D01*
X73900000Y-160910000D02*
X73900000Y-160510000D01*
X70810000Y-164000000D02*
X73900000Y-160910000D01*
X45750000Y-164000000D02*
X70810000Y-164000000D01*
D18*
G36*
X62827000Y-188123000D02*
G01*
X62847000Y-188123000D01*
X62847000Y-188377000D01*
X62827000Y-188377000D01*
X62827000Y-188397000D01*
X62573000Y-188397000D01*
X62573000Y-188377000D01*
X62553000Y-188377000D01*
X62553000Y-188123000D01*
X62573000Y-188123000D01*
X62573000Y-188103000D01*
X62827000Y-188103000D01*
X62827000Y-188123000D01*
X62827000Y-188123000D01*
G37*
X62827000Y-188123000D02*
X62847000Y-188123000D01*
X62847000Y-188377000D01*
X62827000Y-188377000D01*
X62827000Y-188397000D01*
X62573000Y-188397000D01*
X62573000Y-188377000D01*
X62553000Y-188377000D01*
X62553000Y-188123000D01*
X62573000Y-188123000D01*
X62573000Y-188103000D01*
X62827000Y-188103000D01*
X62827000Y-188123000D01*
G36*
X119340001Y-186972406D02*
G01*
X119151034Y-186871401D01*
X118871111Y-186786487D01*
X118652950Y-186765000D01*
X118507050Y-186765000D01*
X118288889Y-186786487D01*
X118008966Y-186871401D01*
X117750986Y-187009294D01*
X117524866Y-187194866D01*
X117339294Y-187420986D01*
X117310000Y-187475791D01*
X117280706Y-187420986D01*
X117095134Y-187194866D01*
X116869014Y-187009294D01*
X116611034Y-186871401D01*
X116331111Y-186786487D01*
X116112950Y-186765000D01*
X115967050Y-186765000D01*
X115748889Y-186786487D01*
X115468966Y-186871401D01*
X115210986Y-187009294D01*
X114984866Y-187194866D01*
X114799294Y-187420986D01*
X114770000Y-187475791D01*
X114740706Y-187420986D01*
X114555134Y-187194866D01*
X114329014Y-187009294D01*
X114071034Y-186871401D01*
X113791111Y-186786487D01*
X113572950Y-186765000D01*
X113427050Y-186765000D01*
X113208889Y-186786487D01*
X112928966Y-186871401D01*
X112670986Y-187009294D01*
X112444866Y-187194866D01*
X112259294Y-187420986D01*
X112230000Y-187475791D01*
X112200706Y-187420986D01*
X112015134Y-187194866D01*
X111789014Y-187009294D01*
X111531034Y-186871401D01*
X111251111Y-186786487D01*
X111032950Y-186765000D01*
X110887050Y-186765000D01*
X110668889Y-186786487D01*
X110388966Y-186871401D01*
X110130986Y-187009294D01*
X109904866Y-187194866D01*
X109719294Y-187420986D01*
X109690000Y-187475791D01*
X109660706Y-187420986D01*
X109475134Y-187194866D01*
X109249014Y-187009294D01*
X108991034Y-186871401D01*
X108711111Y-186786487D01*
X108492950Y-186765000D01*
X108347050Y-186765000D01*
X108128889Y-186786487D01*
X107848966Y-186871401D01*
X107590986Y-187009294D01*
X107364866Y-187194866D01*
X107179294Y-187420986D01*
X107150000Y-187475791D01*
X107120706Y-187420986D01*
X106935134Y-187194866D01*
X106709014Y-187009294D01*
X106451034Y-186871401D01*
X106171111Y-186786487D01*
X105952950Y-186765000D01*
X105807050Y-186765000D01*
X105588889Y-186786487D01*
X105308966Y-186871401D01*
X105050986Y-187009294D01*
X104824866Y-187194866D01*
X104639294Y-187420986D01*
X104610000Y-187475791D01*
X104580706Y-187420986D01*
X104395134Y-187194866D01*
X104169014Y-187009294D01*
X103911034Y-186871401D01*
X103631111Y-186786487D01*
X103412950Y-186765000D01*
X103267050Y-186765000D01*
X103048889Y-186786487D01*
X102768966Y-186871401D01*
X102510986Y-187009294D01*
X102284866Y-187194866D01*
X102099294Y-187420986D01*
X102070000Y-187475791D01*
X102040706Y-187420986D01*
X101855134Y-187194866D01*
X101629014Y-187009294D01*
X101371034Y-186871401D01*
X101091111Y-186786487D01*
X100872950Y-186765000D01*
X100727050Y-186765000D01*
X100508889Y-186786487D01*
X100228966Y-186871401D01*
X99970986Y-187009294D01*
X99744866Y-187194866D01*
X99559294Y-187420986D01*
X99530000Y-187475791D01*
X99500706Y-187420986D01*
X99315134Y-187194866D01*
X99089014Y-187009294D01*
X98831034Y-186871401D01*
X98551111Y-186786487D01*
X98332950Y-186765000D01*
X98187050Y-186765000D01*
X97968889Y-186786487D01*
X97688966Y-186871401D01*
X97430986Y-187009294D01*
X97204866Y-187194866D01*
X97019294Y-187420986D01*
X96990000Y-187475791D01*
X96960706Y-187420986D01*
X96775134Y-187194866D01*
X96549014Y-187009294D01*
X96291034Y-186871401D01*
X96011111Y-186786487D01*
X95792950Y-186765000D01*
X95647050Y-186765000D01*
X95428889Y-186786487D01*
X95148966Y-186871401D01*
X94890986Y-187009294D01*
X94664866Y-187194866D01*
X94479294Y-187420986D01*
X94450000Y-187475791D01*
X94420706Y-187420986D01*
X94235134Y-187194866D01*
X94009014Y-187009294D01*
X93751034Y-186871401D01*
X93471111Y-186786487D01*
X93252950Y-186765000D01*
X93107050Y-186765000D01*
X92888889Y-186786487D01*
X92608966Y-186871401D01*
X92350986Y-187009294D01*
X92124866Y-187194866D01*
X91939294Y-187420986D01*
X91910000Y-187475791D01*
X91880706Y-187420986D01*
X91695134Y-187194866D01*
X91469014Y-187009294D01*
X91211034Y-186871401D01*
X90931111Y-186786487D01*
X90712950Y-186765000D01*
X90567050Y-186765000D01*
X90348889Y-186786487D01*
X90068966Y-186871401D01*
X89810986Y-187009294D01*
X89584866Y-187194866D01*
X89399294Y-187420986D01*
X89370000Y-187475791D01*
X89340706Y-187420986D01*
X89155134Y-187194866D01*
X88929014Y-187009294D01*
X88671034Y-186871401D01*
X88391111Y-186786487D01*
X88172950Y-186765000D01*
X88027050Y-186765000D01*
X87808889Y-186786487D01*
X87528966Y-186871401D01*
X87270986Y-187009294D01*
X87044866Y-187194866D01*
X86859294Y-187420986D01*
X86830000Y-187475791D01*
X86800706Y-187420986D01*
X86615134Y-187194866D01*
X86389014Y-187009294D01*
X86131034Y-186871401D01*
X85851111Y-186786487D01*
X85632950Y-186765000D01*
X85487050Y-186765000D01*
X85268889Y-186786487D01*
X84988966Y-186871401D01*
X84730986Y-187009294D01*
X84504866Y-187194866D01*
X84319294Y-187420986D01*
X84290000Y-187475791D01*
X84260706Y-187420986D01*
X84075134Y-187194866D01*
X83849014Y-187009294D01*
X83780000Y-186972405D01*
X83780000Y-184307322D01*
X83783676Y-184269999D01*
X83780000Y-184232676D01*
X83780000Y-184232667D01*
X83769003Y-184121014D01*
X83725546Y-183977753D01*
X83654974Y-183845724D01*
X83560001Y-183729999D01*
X83531003Y-183706201D01*
X78614990Y-178790189D01*
X78614990Y-177538846D01*
X78698692Y-177564236D01*
X78980000Y-177591943D01*
X79261309Y-177564236D01*
X79531808Y-177482182D01*
X79781101Y-177348932D01*
X79999608Y-177169608D01*
X80178932Y-176951101D01*
X80250000Y-176818142D01*
X80321068Y-176951101D01*
X80500393Y-177169608D01*
X80718900Y-177348932D01*
X80968193Y-177482182D01*
X81238692Y-177564236D01*
X81520000Y-177591943D01*
X81801309Y-177564236D01*
X82071808Y-177482182D01*
X82321101Y-177348932D01*
X82539608Y-177169608D01*
X82718932Y-176951101D01*
X82790000Y-176818142D01*
X82861068Y-176951101D01*
X83040393Y-177169608D01*
X83258900Y-177348932D01*
X83508193Y-177482182D01*
X83778692Y-177564236D01*
X84060000Y-177591943D01*
X84341309Y-177564236D01*
X84611808Y-177482182D01*
X84861101Y-177348932D01*
X85079608Y-177169608D01*
X85258932Y-176951101D01*
X85327265Y-176823259D01*
X85477399Y-177052839D01*
X85675105Y-177254500D01*
X85908354Y-177413715D01*
X86168182Y-177524367D01*
X86250961Y-177541904D01*
X86473000Y-177419915D01*
X86473000Y-175877000D01*
X86727000Y-175877000D01*
X86727000Y-177419915D01*
X86949039Y-177541904D01*
X87031818Y-177524367D01*
X87291646Y-177413715D01*
X87524895Y-177254500D01*
X87722601Y-177052839D01*
X87877166Y-176816483D01*
X87982650Y-176554514D01*
X88035000Y-176277000D01*
X88035000Y-175877000D01*
X86727000Y-175877000D01*
X86473000Y-175877000D01*
X86453000Y-175877000D01*
X86453000Y-175623000D01*
X86473000Y-175623000D01*
X86473000Y-174080085D01*
X86727000Y-174080085D01*
X86727000Y-175623000D01*
X88035000Y-175623000D01*
X88035000Y-175223000D01*
X87982650Y-174945486D01*
X87877166Y-174683517D01*
X87722601Y-174447161D01*
X87524895Y-174245500D01*
X87291646Y-174086285D01*
X87031818Y-173975633D01*
X86949039Y-173958096D01*
X86727000Y-174080085D01*
X86473000Y-174080085D01*
X86250961Y-173958096D01*
X86168182Y-173975633D01*
X85908354Y-174086285D01*
X85675105Y-174245500D01*
X85477399Y-174447161D01*
X85327265Y-174676741D01*
X85258932Y-174548899D01*
X85079607Y-174330392D01*
X84861100Y-174151068D01*
X84611807Y-174017818D01*
X84341308Y-173935764D01*
X84060000Y-173908057D01*
X83778691Y-173935764D01*
X83508192Y-174017818D01*
X83258899Y-174151068D01*
X83040392Y-174330393D01*
X82861068Y-174548900D01*
X82790000Y-174681858D01*
X82718932Y-174548899D01*
X82539607Y-174330392D01*
X82321100Y-174151068D01*
X82071807Y-174017818D01*
X81801308Y-173935764D01*
X81520000Y-173908057D01*
X81238691Y-173935764D01*
X80968192Y-174017818D01*
X80718899Y-174151068D01*
X80500392Y-174330393D01*
X80321068Y-174548900D01*
X80250000Y-174681858D01*
X80178932Y-174548899D01*
X79999607Y-174330392D01*
X79781100Y-174151068D01*
X79531807Y-174017818D01*
X79261308Y-173935764D01*
X78980000Y-173908057D01*
X78698691Y-173935764D01*
X78614990Y-173961154D01*
X78614990Y-173932343D01*
X78618667Y-173895010D01*
X78603993Y-173746024D01*
X78560536Y-173602763D01*
X78489964Y-173470734D01*
X78418789Y-173384007D01*
X78394991Y-173355009D01*
X78365993Y-173331211D01*
X76023784Y-170989003D01*
X75999981Y-170959999D01*
X75884256Y-170865026D01*
X75752227Y-170794454D01*
X75608966Y-170750997D01*
X75497313Y-170740000D01*
X75497302Y-170740000D01*
X75459980Y-170736324D01*
X75422658Y-170740000D01*
X69834801Y-170740000D01*
X71761003Y-168813799D01*
X71790001Y-168790001D01*
X71847046Y-168720492D01*
X71884974Y-168674277D01*
X71955546Y-168542247D01*
X71968053Y-168501015D01*
X71999003Y-168398986D01*
X72010000Y-168287333D01*
X72010000Y-168287323D01*
X72013676Y-168250000D01*
X72010000Y-168212677D01*
X72010000Y-165703711D01*
X72053937Y-165659774D01*
X72167205Y-165490256D01*
X72245226Y-165301898D01*
X72285000Y-165101939D01*
X72285000Y-164898061D01*
X72245226Y-164698102D01*
X72167205Y-164509744D01*
X72053937Y-164340226D01*
X71909774Y-164196063D01*
X71777273Y-164107529D01*
X73574094Y-162310708D01*
X73618692Y-162324236D01*
X73900000Y-162351943D01*
X74181309Y-162324236D01*
X74451808Y-162242182D01*
X74701101Y-162108932D01*
X74919608Y-161929608D01*
X75098932Y-161711101D01*
X75170000Y-161578142D01*
X75241068Y-161711101D01*
X75420393Y-161929608D01*
X75638900Y-162108932D01*
X75888193Y-162242182D01*
X76158692Y-162324236D01*
X76440000Y-162351943D01*
X76721309Y-162324236D01*
X76991808Y-162242182D01*
X77241101Y-162108932D01*
X77459608Y-161929608D01*
X77638932Y-161711101D01*
X77710000Y-161578142D01*
X77781068Y-161711101D01*
X77960393Y-161929608D01*
X78178900Y-162108932D01*
X78428193Y-162242182D01*
X78698692Y-162324236D01*
X78980000Y-162351943D01*
X79261309Y-162324236D01*
X79531808Y-162242182D01*
X79781101Y-162108932D01*
X79999608Y-161929608D01*
X80178932Y-161711101D01*
X80250000Y-161578142D01*
X80321068Y-161711101D01*
X80500393Y-161929608D01*
X80718900Y-162108932D01*
X80968193Y-162242182D01*
X81238692Y-162324236D01*
X81520000Y-162351943D01*
X81801309Y-162324236D01*
X82071808Y-162242182D01*
X82321101Y-162108932D01*
X82539608Y-161929608D01*
X82718932Y-161711101D01*
X82790000Y-161578142D01*
X82861068Y-161711101D01*
X83040393Y-161929608D01*
X83258900Y-162108932D01*
X83508193Y-162242182D01*
X83778692Y-162324236D01*
X84060000Y-162351943D01*
X84341309Y-162324236D01*
X84611808Y-162242182D01*
X84861101Y-162108932D01*
X85079608Y-161929608D01*
X85258932Y-161711101D01*
X85330000Y-161578142D01*
X85401068Y-161711101D01*
X85580393Y-161929608D01*
X85798900Y-162108932D01*
X86048193Y-162242182D01*
X86318692Y-162324236D01*
X86600000Y-162351943D01*
X86881309Y-162324236D01*
X87151808Y-162242182D01*
X87401101Y-162108932D01*
X87619608Y-161929608D01*
X87798932Y-161711101D01*
X87932182Y-161461808D01*
X88014236Y-161191309D01*
X88035000Y-160980491D01*
X88035000Y-160039508D01*
X88014236Y-159828691D01*
X87932182Y-159558192D01*
X87798932Y-159308899D01*
X87619607Y-159090392D01*
X87401100Y-158911068D01*
X87151807Y-158777818D01*
X86881308Y-158695764D01*
X86600000Y-158668057D01*
X86318691Y-158695764D01*
X86048192Y-158777818D01*
X85798899Y-158911068D01*
X85580392Y-159090393D01*
X85401068Y-159308900D01*
X85330000Y-159441858D01*
X85258932Y-159308899D01*
X85079607Y-159090392D01*
X84861100Y-158911068D01*
X84611807Y-158777818D01*
X84341308Y-158695764D01*
X84060000Y-158668057D01*
X83778691Y-158695764D01*
X83508192Y-158777818D01*
X83258899Y-158911068D01*
X83040392Y-159090393D01*
X82861068Y-159308900D01*
X82790000Y-159441858D01*
X82718932Y-159308899D01*
X82539607Y-159090392D01*
X82321100Y-158911068D01*
X82071807Y-158777818D01*
X81801308Y-158695764D01*
X81520000Y-158668057D01*
X81238691Y-158695764D01*
X80968192Y-158777818D01*
X80718899Y-158911068D01*
X80500392Y-159090393D01*
X80321068Y-159308900D01*
X80250000Y-159441858D01*
X80178932Y-159308899D01*
X79999607Y-159090392D01*
X79781100Y-158911068D01*
X79531807Y-158777818D01*
X79261308Y-158695764D01*
X78980000Y-158668057D01*
X78698691Y-158695764D01*
X78428192Y-158777818D01*
X78178899Y-158911068D01*
X77960392Y-159090393D01*
X77781068Y-159308900D01*
X77710000Y-159441858D01*
X77638932Y-159308899D01*
X77459607Y-159090392D01*
X77241100Y-158911068D01*
X76991807Y-158777818D01*
X76721308Y-158695764D01*
X76440000Y-158668057D01*
X76158691Y-158695764D01*
X75888192Y-158777818D01*
X75638899Y-158911068D01*
X75420392Y-159090393D01*
X75241068Y-159308900D01*
X75170000Y-159441858D01*
X75098932Y-159308899D01*
X74919607Y-159090392D01*
X74701100Y-158911068D01*
X74451807Y-158777818D01*
X74181308Y-158695764D01*
X73900000Y-158668057D01*
X73618691Y-158695764D01*
X73348192Y-158777818D01*
X73098899Y-158911068D01*
X72880392Y-159090393D01*
X72701068Y-159308900D01*
X72630000Y-159441858D01*
X72558932Y-159308899D01*
X72379607Y-159090392D01*
X72161100Y-158911068D01*
X71911807Y-158777818D01*
X71641308Y-158695764D01*
X71360000Y-158668057D01*
X71078691Y-158695764D01*
X70808192Y-158777818D01*
X70558899Y-158911068D01*
X70340392Y-159090393D01*
X70161068Y-159308900D01*
X70090000Y-159441858D01*
X70018932Y-159308899D01*
X69839607Y-159090392D01*
X69621100Y-158911068D01*
X69371807Y-158777818D01*
X69101308Y-158695764D01*
X68820000Y-158668057D01*
X68538691Y-158695764D01*
X68268192Y-158777818D01*
X68018899Y-158911068D01*
X67800392Y-159090393D01*
X67621068Y-159308900D01*
X67550000Y-159441858D01*
X67478932Y-159308899D01*
X67299607Y-159090392D01*
X67081100Y-158911068D01*
X66831807Y-158777818D01*
X66561308Y-158695764D01*
X66280000Y-158668057D01*
X65998691Y-158695764D01*
X65728192Y-158777818D01*
X65478899Y-158911068D01*
X65260392Y-159090393D01*
X65081068Y-159308900D01*
X65010000Y-159441858D01*
X64938932Y-159308899D01*
X64759607Y-159090392D01*
X64541100Y-158911068D01*
X64291807Y-158777818D01*
X64021308Y-158695764D01*
X63740000Y-158668057D01*
X63458691Y-158695764D01*
X63188192Y-158777818D01*
X62938899Y-158911068D01*
X62720392Y-159090393D01*
X62541068Y-159308900D01*
X62470000Y-159441858D01*
X62398932Y-159308899D01*
X62219607Y-159090392D01*
X62001100Y-158911068D01*
X61751807Y-158777818D01*
X61481308Y-158695764D01*
X61200000Y-158668057D01*
X60918691Y-158695764D01*
X60648192Y-158777818D01*
X60398899Y-158911068D01*
X60180392Y-159090393D01*
X60001068Y-159308900D01*
X59930000Y-159441858D01*
X59858932Y-159308899D01*
X59679607Y-159090392D01*
X59461100Y-158911068D01*
X59211807Y-158777818D01*
X58941308Y-158695764D01*
X58660000Y-158668057D01*
X58378691Y-158695764D01*
X58306968Y-158717521D01*
X55595259Y-156005813D01*
X55572238Y-155977762D01*
X55460320Y-155885913D01*
X55332633Y-155817663D01*
X55194085Y-155775635D01*
X55086105Y-155765000D01*
X55050000Y-155761444D01*
X55013895Y-155765000D01*
X41278186Y-155765000D01*
X41269099Y-155764105D01*
X41240706Y-155710986D01*
X41055134Y-155484866D01*
X41025313Y-155460393D01*
X41094180Y-155439502D01*
X41204494Y-155380537D01*
X41301185Y-155301185D01*
X41380537Y-155204494D01*
X41439502Y-155094180D01*
X41475812Y-154974482D01*
X41488072Y-154850000D01*
X41488072Y-153150000D01*
X41475812Y-153025518D01*
X41439502Y-152905820D01*
X41380537Y-152795506D01*
X41301185Y-152698815D01*
X41204494Y-152619463D01*
X41094180Y-152560498D01*
X40974482Y-152524188D01*
X40850000Y-152511928D01*
X39150000Y-152511928D01*
X39025518Y-152524188D01*
X38905820Y-152560498D01*
X38795506Y-152619463D01*
X38698815Y-152698815D01*
X38619463Y-152795506D01*
X38560498Y-152905820D01*
X38524188Y-153025518D01*
X38511928Y-153150000D01*
X38511928Y-154850000D01*
X38524188Y-154974482D01*
X38560498Y-155094180D01*
X38619463Y-155204494D01*
X38698815Y-155301185D01*
X38795506Y-155380537D01*
X38905820Y-155439502D01*
X38974687Y-155460393D01*
X38944866Y-155484866D01*
X38759294Y-155710986D01*
X38621401Y-155968966D01*
X38536487Y-156248889D01*
X38507815Y-156540000D01*
X38536487Y-156831111D01*
X38574069Y-156955001D01*
X36544448Y-156955001D01*
X36522568Y-156933122D01*
X36553513Y-156831111D01*
X36582185Y-156540000D01*
X36553513Y-156248889D01*
X36468599Y-155968966D01*
X36330706Y-155710986D01*
X36145134Y-155484866D01*
X36115313Y-155460393D01*
X36184180Y-155439502D01*
X36294494Y-155380537D01*
X36391185Y-155301185D01*
X36470537Y-155204494D01*
X36529502Y-155094180D01*
X36565812Y-154974482D01*
X36578072Y-154850000D01*
X36578072Y-153150000D01*
X36565812Y-153025518D01*
X36529502Y-152905820D01*
X36470537Y-152795506D01*
X36391185Y-152698815D01*
X36294494Y-152619463D01*
X36184180Y-152560498D01*
X36064482Y-152524188D01*
X35940000Y-152511928D01*
X34240000Y-152511928D01*
X34115518Y-152524188D01*
X33995820Y-152560498D01*
X33885506Y-152619463D01*
X33788815Y-152698815D01*
X33709463Y-152795506D01*
X33650498Y-152905820D01*
X33614188Y-153025518D01*
X33601928Y-153150000D01*
X33601928Y-154850000D01*
X33614188Y-154974482D01*
X33650498Y-155094180D01*
X33709463Y-155204494D01*
X33788815Y-155301185D01*
X33885506Y-155380537D01*
X33995820Y-155439502D01*
X34064687Y-155460393D01*
X34034866Y-155484866D01*
X33849294Y-155710986D01*
X33711401Y-155968966D01*
X33626487Y-156248889D01*
X33597815Y-156540000D01*
X33626487Y-156831111D01*
X33711401Y-157111034D01*
X33756281Y-157194999D01*
X31944446Y-157194999D01*
X31682568Y-156933122D01*
X31713513Y-156831111D01*
X31742185Y-156540000D01*
X31713513Y-156248889D01*
X31628599Y-155968966D01*
X31490706Y-155710986D01*
X31305134Y-155484866D01*
X31275313Y-155460393D01*
X31344180Y-155439502D01*
X31454494Y-155380537D01*
X31551185Y-155301185D01*
X31630537Y-155204494D01*
X31689502Y-155094180D01*
X31725812Y-154974482D01*
X31738072Y-154850000D01*
X31738072Y-153150000D01*
X31725812Y-153025518D01*
X31689502Y-152905820D01*
X31630537Y-152795506D01*
X31551185Y-152698815D01*
X31454494Y-152619463D01*
X31344180Y-152560498D01*
X31224482Y-152524188D01*
X31100000Y-152511928D01*
X29400000Y-152511928D01*
X29275518Y-152524188D01*
X29155820Y-152560498D01*
X29045506Y-152619463D01*
X28948815Y-152698815D01*
X28869463Y-152795506D01*
X28810498Y-152905820D01*
X28774188Y-153025518D01*
X28761928Y-153150000D01*
X28761928Y-154850000D01*
X28774188Y-154974482D01*
X28810498Y-155094180D01*
X28869463Y-155204494D01*
X28948815Y-155301185D01*
X29045506Y-155380537D01*
X29155820Y-155439502D01*
X29224687Y-155460393D01*
X29194866Y-155484866D01*
X29009294Y-155710986D01*
X28871401Y-155968966D01*
X28786487Y-156248889D01*
X28757815Y-156540000D01*
X28786487Y-156831111D01*
X28871401Y-157111034D01*
X29009294Y-157369014D01*
X29194866Y-157595134D01*
X29420986Y-157780706D01*
X29485523Y-157815201D01*
X29368645Y-157884822D01*
X29152412Y-158079731D01*
X28978359Y-158313080D01*
X28853175Y-158575901D01*
X28808524Y-158723110D01*
X28904589Y-158905143D01*
X26932568Y-156933122D01*
X26963513Y-156831111D01*
X26992185Y-156540000D01*
X26963513Y-156248889D01*
X26878599Y-155968966D01*
X26740706Y-155710986D01*
X26555134Y-155484866D01*
X26525313Y-155460393D01*
X26594180Y-155439502D01*
X26704494Y-155380537D01*
X26801185Y-155301185D01*
X26880537Y-155204494D01*
X26939502Y-155094180D01*
X26975812Y-154974482D01*
X26988072Y-154850000D01*
X26988072Y-153150000D01*
X26975812Y-153025518D01*
X26939502Y-152905820D01*
X26880537Y-152795506D01*
X26801185Y-152698815D01*
X26704494Y-152619463D01*
X26594180Y-152560498D01*
X26474482Y-152524188D01*
X26350000Y-152511928D01*
X24650000Y-152511928D01*
X24525518Y-152524188D01*
X24405820Y-152560498D01*
X24295506Y-152619463D01*
X24198815Y-152698815D01*
X24119463Y-152795506D01*
X24060498Y-152905820D01*
X24024188Y-153025518D01*
X24011928Y-153150000D01*
X24011928Y-154850000D01*
X24024188Y-154974482D01*
X24060498Y-155094180D01*
X24119463Y-155204494D01*
X24198815Y-155301185D01*
X24295506Y-155380537D01*
X24405820Y-155439502D01*
X24474687Y-155460393D01*
X24444866Y-155484866D01*
X24259294Y-155710986D01*
X24121401Y-155968966D01*
X24036487Y-156248889D01*
X24007815Y-156540000D01*
X24036487Y-156831111D01*
X24121401Y-157111034D01*
X24259294Y-157369014D01*
X24444866Y-157595134D01*
X24670986Y-157780706D01*
X24735523Y-157815201D01*
X24618645Y-157884822D01*
X24402412Y-158079731D01*
X24228359Y-158313080D01*
X24103175Y-158575901D01*
X24058524Y-158723110D01*
X24179845Y-158953000D01*
X25373000Y-158953000D01*
X25373000Y-158933000D01*
X25627000Y-158933000D01*
X25627000Y-158953000D01*
X26820155Y-158953000D01*
X26838601Y-158918047D01*
X32414746Y-164494193D01*
X32437762Y-164522238D01*
X32549680Y-164614087D01*
X32677367Y-164682337D01*
X32761156Y-164707754D01*
X32815914Y-164724365D01*
X32830132Y-164725765D01*
X32923895Y-164735000D01*
X32923902Y-164735000D01*
X32959999Y-164738555D01*
X32996096Y-164735000D01*
X39385554Y-164735000D01*
X41062482Y-166411928D01*
X39950000Y-166411928D01*
X39825518Y-166424188D01*
X39705820Y-166460498D01*
X39595506Y-166519463D01*
X39498815Y-166598815D01*
X39419463Y-166695506D01*
X39360498Y-166805820D01*
X39324188Y-166925518D01*
X39322419Y-166943482D01*
X39229608Y-166830392D01*
X39011101Y-166651068D01*
X38761808Y-166517818D01*
X38491309Y-166435764D01*
X38210000Y-166408057D01*
X37928692Y-166435764D01*
X37658193Y-166517818D01*
X37408900Y-166651068D01*
X37190393Y-166830392D01*
X37011068Y-167048899D01*
X36940000Y-167181858D01*
X36868932Y-167048899D01*
X36689608Y-166830392D01*
X36471101Y-166651068D01*
X36221808Y-166517818D01*
X35951309Y-166435764D01*
X35670000Y-166408057D01*
X35388692Y-166435764D01*
X35118193Y-166517818D01*
X34868900Y-166651068D01*
X34650393Y-166830392D01*
X34471068Y-167048899D01*
X34400000Y-167181858D01*
X34328932Y-167048899D01*
X34149608Y-166830392D01*
X33931101Y-166651068D01*
X33681808Y-166517818D01*
X33411309Y-166435764D01*
X33130000Y-166408057D01*
X32848692Y-166435764D01*
X32578193Y-166517818D01*
X32328900Y-166651068D01*
X32110393Y-166830392D01*
X31931068Y-167048899D01*
X31860000Y-167181858D01*
X31788932Y-167048899D01*
X31609608Y-166830392D01*
X31391101Y-166651068D01*
X31141808Y-166517818D01*
X30871309Y-166435764D01*
X30590000Y-166408057D01*
X30308692Y-166435764D01*
X30038193Y-166517818D01*
X29788900Y-166651068D01*
X29570393Y-166830392D01*
X29391068Y-167048899D01*
X29320000Y-167181858D01*
X29248932Y-167048899D01*
X29069608Y-166830392D01*
X28851101Y-166651068D01*
X28601808Y-166517818D01*
X28331309Y-166435764D01*
X28050000Y-166408057D01*
X27768692Y-166435764D01*
X27498193Y-166517818D01*
X27248900Y-166651068D01*
X27030393Y-166830392D01*
X26851068Y-167048899D01*
X26782735Y-167176741D01*
X26632601Y-166947161D01*
X26434895Y-166745500D01*
X26201646Y-166586285D01*
X25941818Y-166475633D01*
X25859039Y-166458096D01*
X25637000Y-166580085D01*
X25637000Y-168123000D01*
X25657000Y-168123000D01*
X25657000Y-168377000D01*
X25637000Y-168377000D01*
X25637000Y-169919915D01*
X25859039Y-170041904D01*
X25941818Y-170024367D01*
X26201646Y-169913715D01*
X26434895Y-169754500D01*
X26632601Y-169552839D01*
X26782735Y-169323258D01*
X26851068Y-169451100D01*
X27030392Y-169669607D01*
X27248899Y-169848932D01*
X27498192Y-169982182D01*
X27768691Y-170064236D01*
X28050000Y-170091943D01*
X28331308Y-170064236D01*
X28601807Y-169982182D01*
X28851100Y-169848932D01*
X29069607Y-169669608D01*
X29248932Y-169451101D01*
X29320000Y-169318142D01*
X29391068Y-169451100D01*
X29570392Y-169669607D01*
X29738015Y-169807173D01*
X29740000Y-169827323D01*
X29740000Y-170240000D01*
X22287333Y-170240000D01*
X22250000Y-170236323D01*
X22212667Y-170240000D01*
X22101014Y-170250997D01*
X21957753Y-170294454D01*
X21825724Y-170365026D01*
X21709999Y-170459999D01*
X21686196Y-170489003D01*
X21549003Y-170626196D01*
X21519999Y-170649999D01*
X21482196Y-170696063D01*
X21425026Y-170765724D01*
X21404601Y-170803937D01*
X21354454Y-170897754D01*
X21310997Y-171041015D01*
X21300000Y-171152668D01*
X21300000Y-171152678D01*
X21296324Y-171190000D01*
X21300000Y-171227322D01*
X21300001Y-186761928D01*
X21210000Y-186761928D01*
X21085518Y-186774188D01*
X20965820Y-186810498D01*
X20855506Y-186869463D01*
X20758815Y-186948815D01*
X20679463Y-187045506D01*
X20660000Y-187081918D01*
X20660000Y-168377000D01*
X24075000Y-168377000D01*
X24075000Y-168777000D01*
X24127350Y-169054514D01*
X24232834Y-169316483D01*
X24387399Y-169552839D01*
X24585105Y-169754500D01*
X24818354Y-169913715D01*
X25078182Y-170024367D01*
X25160961Y-170041904D01*
X25383000Y-169919915D01*
X25383000Y-168377000D01*
X24075000Y-168377000D01*
X20660000Y-168377000D01*
X20660000Y-167723000D01*
X24075000Y-167723000D01*
X24075000Y-168123000D01*
X25383000Y-168123000D01*
X25383000Y-166580085D01*
X25160961Y-166458096D01*
X25078182Y-166475633D01*
X24818354Y-166586285D01*
X24585105Y-166745500D01*
X24387399Y-166947161D01*
X24232834Y-167183517D01*
X24127350Y-167445486D01*
X24075000Y-167723000D01*
X20660000Y-167723000D01*
X20660000Y-159436890D01*
X24058524Y-159436890D01*
X24103175Y-159584099D01*
X24228359Y-159846920D01*
X24402412Y-160080269D01*
X24618645Y-160275178D01*
X24868748Y-160424157D01*
X25143109Y-160521481D01*
X25373000Y-160400814D01*
X25373000Y-159207000D01*
X25627000Y-159207000D01*
X25627000Y-160400814D01*
X25856891Y-160521481D01*
X26131252Y-160424157D01*
X26381355Y-160275178D01*
X26597588Y-160080269D01*
X26771641Y-159846920D01*
X26896825Y-159584099D01*
X26941476Y-159436890D01*
X26820155Y-159207000D01*
X25627000Y-159207000D01*
X25373000Y-159207000D01*
X24179845Y-159207000D01*
X24058524Y-159436890D01*
X20660000Y-159436890D01*
X20660000Y-150660000D01*
X119340000Y-150660000D01*
X119340001Y-186972406D01*
X119340001Y-186972406D01*
G37*
X119340001Y-186972406D02*
X119151034Y-186871401D01*
X118871111Y-186786487D01*
X118652950Y-186765000D01*
X118507050Y-186765000D01*
X118288889Y-186786487D01*
X118008966Y-186871401D01*
X117750986Y-187009294D01*
X117524866Y-187194866D01*
X117339294Y-187420986D01*
X117310000Y-187475791D01*
X117280706Y-187420986D01*
X117095134Y-187194866D01*
X116869014Y-187009294D01*
X116611034Y-186871401D01*
X116331111Y-186786487D01*
X116112950Y-186765000D01*
X115967050Y-186765000D01*
X115748889Y-186786487D01*
X115468966Y-186871401D01*
X115210986Y-187009294D01*
X114984866Y-187194866D01*
X114799294Y-187420986D01*
X114770000Y-187475791D01*
X114740706Y-187420986D01*
X114555134Y-187194866D01*
X114329014Y-187009294D01*
X114071034Y-186871401D01*
X113791111Y-186786487D01*
X113572950Y-186765000D01*
X113427050Y-186765000D01*
X113208889Y-186786487D01*
X112928966Y-186871401D01*
X112670986Y-187009294D01*
X112444866Y-187194866D01*
X112259294Y-187420986D01*
X112230000Y-187475791D01*
X112200706Y-187420986D01*
X112015134Y-187194866D01*
X111789014Y-187009294D01*
X111531034Y-186871401D01*
X111251111Y-186786487D01*
X111032950Y-186765000D01*
X110887050Y-186765000D01*
X110668889Y-186786487D01*
X110388966Y-186871401D01*
X110130986Y-187009294D01*
X109904866Y-187194866D01*
X109719294Y-187420986D01*
X109690000Y-187475791D01*
X109660706Y-187420986D01*
X109475134Y-187194866D01*
X109249014Y-187009294D01*
X108991034Y-186871401D01*
X108711111Y-186786487D01*
X108492950Y-186765000D01*
X108347050Y-186765000D01*
X108128889Y-186786487D01*
X107848966Y-186871401D01*
X107590986Y-187009294D01*
X107364866Y-187194866D01*
X107179294Y-187420986D01*
X107150000Y-187475791D01*
X107120706Y-187420986D01*
X106935134Y-187194866D01*
X106709014Y-187009294D01*
X106451034Y-186871401D01*
X106171111Y-186786487D01*
X105952950Y-186765000D01*
X105807050Y-186765000D01*
X105588889Y-186786487D01*
X105308966Y-186871401D01*
X105050986Y-187009294D01*
X104824866Y-187194866D01*
X104639294Y-187420986D01*
X104610000Y-187475791D01*
X104580706Y-187420986D01*
X104395134Y-187194866D01*
X104169014Y-187009294D01*
X103911034Y-186871401D01*
X103631111Y-186786487D01*
X103412950Y-186765000D01*
X103267050Y-186765000D01*
X103048889Y-186786487D01*
X102768966Y-186871401D01*
X102510986Y-187009294D01*
X102284866Y-187194866D01*
X102099294Y-187420986D01*
X102070000Y-187475791D01*
X102040706Y-187420986D01*
X101855134Y-187194866D01*
X101629014Y-187009294D01*
X101371034Y-186871401D01*
X101091111Y-186786487D01*
X100872950Y-186765000D01*
X100727050Y-186765000D01*
X100508889Y-186786487D01*
X100228966Y-186871401D01*
X99970986Y-187009294D01*
X99744866Y-187194866D01*
X99559294Y-187420986D01*
X99530000Y-187475791D01*
X99500706Y-187420986D01*
X99315134Y-187194866D01*
X99089014Y-187009294D01*
X98831034Y-186871401D01*
X98551111Y-186786487D01*
X98332950Y-186765000D01*
X98187050Y-186765000D01*
X97968889Y-186786487D01*
X97688966Y-186871401D01*
X97430986Y-187009294D01*
X97204866Y-187194866D01*
X97019294Y-187420986D01*
X96990000Y-187475791D01*
X96960706Y-187420986D01*
X96775134Y-187194866D01*
X96549014Y-187009294D01*
X96291034Y-186871401D01*
X96011111Y-186786487D01*
X95792950Y-186765000D01*
X95647050Y-186765000D01*
X95428889Y-186786487D01*
X95148966Y-186871401D01*
X94890986Y-187009294D01*
X94664866Y-187194866D01*
X94479294Y-187420986D01*
X94450000Y-187475791D01*
X94420706Y-187420986D01*
X94235134Y-187194866D01*
X94009014Y-187009294D01*
X93751034Y-186871401D01*
X93471111Y-186786487D01*
X93252950Y-186765000D01*
X93107050Y-186765000D01*
X92888889Y-186786487D01*
X92608966Y-186871401D01*
X92350986Y-187009294D01*
X92124866Y-187194866D01*
X91939294Y-187420986D01*
X91910000Y-187475791D01*
X91880706Y-187420986D01*
X91695134Y-187194866D01*
X91469014Y-187009294D01*
X91211034Y-186871401D01*
X90931111Y-186786487D01*
X90712950Y-186765000D01*
X90567050Y-186765000D01*
X90348889Y-186786487D01*
X90068966Y-186871401D01*
X89810986Y-187009294D01*
X89584866Y-187194866D01*
X89399294Y-187420986D01*
X89370000Y-187475791D01*
X89340706Y-187420986D01*
X89155134Y-187194866D01*
X88929014Y-187009294D01*
X88671034Y-186871401D01*
X88391111Y-186786487D01*
X88172950Y-186765000D01*
X88027050Y-186765000D01*
X87808889Y-186786487D01*
X87528966Y-186871401D01*
X87270986Y-187009294D01*
X87044866Y-187194866D01*
X86859294Y-187420986D01*
X86830000Y-187475791D01*
X86800706Y-187420986D01*
X86615134Y-187194866D01*
X86389014Y-187009294D01*
X86131034Y-186871401D01*
X85851111Y-186786487D01*
X85632950Y-186765000D01*
X85487050Y-186765000D01*
X85268889Y-186786487D01*
X84988966Y-186871401D01*
X84730986Y-187009294D01*
X84504866Y-187194866D01*
X84319294Y-187420986D01*
X84290000Y-187475791D01*
X84260706Y-187420986D01*
X84075134Y-187194866D01*
X83849014Y-187009294D01*
X83780000Y-186972405D01*
X83780000Y-184307322D01*
X83783676Y-184269999D01*
X83780000Y-184232676D01*
X83780000Y-184232667D01*
X83769003Y-184121014D01*
X83725546Y-183977753D01*
X83654974Y-183845724D01*
X83560001Y-183729999D01*
X83531003Y-183706201D01*
X78614990Y-178790189D01*
X78614990Y-177538846D01*
X78698692Y-177564236D01*
X78980000Y-177591943D01*
X79261309Y-177564236D01*
X79531808Y-177482182D01*
X79781101Y-177348932D01*
X79999608Y-177169608D01*
X80178932Y-176951101D01*
X80250000Y-176818142D01*
X80321068Y-176951101D01*
X80500393Y-177169608D01*
X80718900Y-177348932D01*
X80968193Y-177482182D01*
X81238692Y-177564236D01*
X81520000Y-177591943D01*
X81801309Y-177564236D01*
X82071808Y-177482182D01*
X82321101Y-177348932D01*
X82539608Y-177169608D01*
X82718932Y-176951101D01*
X82790000Y-176818142D01*
X82861068Y-176951101D01*
X83040393Y-177169608D01*
X83258900Y-177348932D01*
X83508193Y-177482182D01*
X83778692Y-177564236D01*
X84060000Y-177591943D01*
X84341309Y-177564236D01*
X84611808Y-177482182D01*
X84861101Y-177348932D01*
X85079608Y-177169608D01*
X85258932Y-176951101D01*
X85327265Y-176823259D01*
X85477399Y-177052839D01*
X85675105Y-177254500D01*
X85908354Y-177413715D01*
X86168182Y-177524367D01*
X86250961Y-177541904D01*
X86473000Y-177419915D01*
X86473000Y-175877000D01*
X86727000Y-175877000D01*
X86727000Y-177419915D01*
X86949039Y-177541904D01*
X87031818Y-177524367D01*
X87291646Y-177413715D01*
X87524895Y-177254500D01*
X87722601Y-177052839D01*
X87877166Y-176816483D01*
X87982650Y-176554514D01*
X88035000Y-176277000D01*
X88035000Y-175877000D01*
X86727000Y-175877000D01*
X86473000Y-175877000D01*
X86453000Y-175877000D01*
X86453000Y-175623000D01*
X86473000Y-175623000D01*
X86473000Y-174080085D01*
X86727000Y-174080085D01*
X86727000Y-175623000D01*
X88035000Y-175623000D01*
X88035000Y-175223000D01*
X87982650Y-174945486D01*
X87877166Y-174683517D01*
X87722601Y-174447161D01*
X87524895Y-174245500D01*
X87291646Y-174086285D01*
X87031818Y-173975633D01*
X86949039Y-173958096D01*
X86727000Y-174080085D01*
X86473000Y-174080085D01*
X86250961Y-173958096D01*
X86168182Y-173975633D01*
X85908354Y-174086285D01*
X85675105Y-174245500D01*
X85477399Y-174447161D01*
X85327265Y-174676741D01*
X85258932Y-174548899D01*
X85079607Y-174330392D01*
X84861100Y-174151068D01*
X84611807Y-174017818D01*
X84341308Y-173935764D01*
X84060000Y-173908057D01*
X83778691Y-173935764D01*
X83508192Y-174017818D01*
X83258899Y-174151068D01*
X83040392Y-174330393D01*
X82861068Y-174548900D01*
X82790000Y-174681858D01*
X82718932Y-174548899D01*
X82539607Y-174330392D01*
X82321100Y-174151068D01*
X82071807Y-174017818D01*
X81801308Y-173935764D01*
X81520000Y-173908057D01*
X81238691Y-173935764D01*
X80968192Y-174017818D01*
X80718899Y-174151068D01*
X80500392Y-174330393D01*
X80321068Y-174548900D01*
X80250000Y-174681858D01*
X80178932Y-174548899D01*
X79999607Y-174330392D01*
X79781100Y-174151068D01*
X79531807Y-174017818D01*
X79261308Y-173935764D01*
X78980000Y-173908057D01*
X78698691Y-173935764D01*
X78614990Y-173961154D01*
X78614990Y-173932343D01*
X78618667Y-173895010D01*
X78603993Y-173746024D01*
X78560536Y-173602763D01*
X78489964Y-173470734D01*
X78418789Y-173384007D01*
X78394991Y-173355009D01*
X78365993Y-173331211D01*
X76023784Y-170989003D01*
X75999981Y-170959999D01*
X75884256Y-170865026D01*
X75752227Y-170794454D01*
X75608966Y-170750997D01*
X75497313Y-170740000D01*
X75497302Y-170740000D01*
X75459980Y-170736324D01*
X75422658Y-170740000D01*
X69834801Y-170740000D01*
X71761003Y-168813799D01*
X71790001Y-168790001D01*
X71847046Y-168720492D01*
X71884974Y-168674277D01*
X71955546Y-168542247D01*
X71968053Y-168501015D01*
X71999003Y-168398986D01*
X72010000Y-168287333D01*
X72010000Y-168287323D01*
X72013676Y-168250000D01*
X72010000Y-168212677D01*
X72010000Y-165703711D01*
X72053937Y-165659774D01*
X72167205Y-165490256D01*
X72245226Y-165301898D01*
X72285000Y-165101939D01*
X72285000Y-164898061D01*
X72245226Y-164698102D01*
X72167205Y-164509744D01*
X72053937Y-164340226D01*
X71909774Y-164196063D01*
X71777273Y-164107529D01*
X73574094Y-162310708D01*
X73618692Y-162324236D01*
X73900000Y-162351943D01*
X74181309Y-162324236D01*
X74451808Y-162242182D01*
X74701101Y-162108932D01*
X74919608Y-161929608D01*
X75098932Y-161711101D01*
X75170000Y-161578142D01*
X75241068Y-161711101D01*
X75420393Y-161929608D01*
X75638900Y-162108932D01*
X75888193Y-162242182D01*
X76158692Y-162324236D01*
X76440000Y-162351943D01*
X76721309Y-162324236D01*
X76991808Y-162242182D01*
X77241101Y-162108932D01*
X77459608Y-161929608D01*
X77638932Y-161711101D01*
X77710000Y-161578142D01*
X77781068Y-161711101D01*
X77960393Y-161929608D01*
X78178900Y-162108932D01*
X78428193Y-162242182D01*
X78698692Y-162324236D01*
X78980000Y-162351943D01*
X79261309Y-162324236D01*
X79531808Y-162242182D01*
X79781101Y-162108932D01*
X79999608Y-161929608D01*
X80178932Y-161711101D01*
X80250000Y-161578142D01*
X80321068Y-161711101D01*
X80500393Y-161929608D01*
X80718900Y-162108932D01*
X80968193Y-162242182D01*
X81238692Y-162324236D01*
X81520000Y-162351943D01*
X81801309Y-162324236D01*
X82071808Y-162242182D01*
X82321101Y-162108932D01*
X82539608Y-161929608D01*
X82718932Y-161711101D01*
X82790000Y-161578142D01*
X82861068Y-161711101D01*
X83040393Y-161929608D01*
X83258900Y-162108932D01*
X83508193Y-162242182D01*
X83778692Y-162324236D01*
X84060000Y-162351943D01*
X84341309Y-162324236D01*
X84611808Y-162242182D01*
X84861101Y-162108932D01*
X85079608Y-161929608D01*
X85258932Y-161711101D01*
X85330000Y-161578142D01*
X85401068Y-161711101D01*
X85580393Y-161929608D01*
X85798900Y-162108932D01*
X86048193Y-162242182D01*
X86318692Y-162324236D01*
X86600000Y-162351943D01*
X86881309Y-162324236D01*
X87151808Y-162242182D01*
X87401101Y-162108932D01*
X87619608Y-161929608D01*
X87798932Y-161711101D01*
X87932182Y-161461808D01*
X88014236Y-161191309D01*
X88035000Y-160980491D01*
X88035000Y-160039508D01*
X88014236Y-159828691D01*
X87932182Y-159558192D01*
X87798932Y-159308899D01*
X87619607Y-159090392D01*
X87401100Y-158911068D01*
X87151807Y-158777818D01*
X86881308Y-158695764D01*
X86600000Y-158668057D01*
X86318691Y-158695764D01*
X86048192Y-158777818D01*
X85798899Y-158911068D01*
X85580392Y-159090393D01*
X85401068Y-159308900D01*
X85330000Y-159441858D01*
X85258932Y-159308899D01*
X85079607Y-159090392D01*
X84861100Y-158911068D01*
X84611807Y-158777818D01*
X84341308Y-158695764D01*
X84060000Y-158668057D01*
X83778691Y-158695764D01*
X83508192Y-158777818D01*
X83258899Y-158911068D01*
X83040392Y-159090393D01*
X82861068Y-159308900D01*
X82790000Y-159441858D01*
X82718932Y-159308899D01*
X82539607Y-159090392D01*
X82321100Y-158911068D01*
X82071807Y-158777818D01*
X81801308Y-158695764D01*
X81520000Y-158668057D01*
X81238691Y-158695764D01*
X80968192Y-158777818D01*
X80718899Y-158911068D01*
X80500392Y-159090393D01*
X80321068Y-159308900D01*
X80250000Y-159441858D01*
X80178932Y-159308899D01*
X79999607Y-159090392D01*
X79781100Y-158911068D01*
X79531807Y-158777818D01*
X79261308Y-158695764D01*
X78980000Y-158668057D01*
X78698691Y-158695764D01*
X78428192Y-158777818D01*
X78178899Y-158911068D01*
X77960392Y-159090393D01*
X77781068Y-159308900D01*
X77710000Y-159441858D01*
X77638932Y-159308899D01*
X77459607Y-159090392D01*
X77241100Y-158911068D01*
X76991807Y-158777818D01*
X76721308Y-158695764D01*
X76440000Y-158668057D01*
X76158691Y-158695764D01*
X75888192Y-158777818D01*
X75638899Y-158911068D01*
X75420392Y-159090393D01*
X75241068Y-159308900D01*
X75170000Y-159441858D01*
X75098932Y-159308899D01*
X74919607Y-159090392D01*
X74701100Y-158911068D01*
X74451807Y-158777818D01*
X74181308Y-158695764D01*
X73900000Y-158668057D01*
X73618691Y-158695764D01*
X73348192Y-158777818D01*
X73098899Y-158911068D01*
X72880392Y-159090393D01*
X72701068Y-159308900D01*
X72630000Y-159441858D01*
X72558932Y-159308899D01*
X72379607Y-159090392D01*
X72161100Y-158911068D01*
X71911807Y-158777818D01*
X71641308Y-158695764D01*
X71360000Y-158668057D01*
X71078691Y-158695764D01*
X70808192Y-158777818D01*
X70558899Y-158911068D01*
X70340392Y-159090393D01*
X70161068Y-159308900D01*
X70090000Y-159441858D01*
X70018932Y-159308899D01*
X69839607Y-159090392D01*
X69621100Y-158911068D01*
X69371807Y-158777818D01*
X69101308Y-158695764D01*
X68820000Y-158668057D01*
X68538691Y-158695764D01*
X68268192Y-158777818D01*
X68018899Y-158911068D01*
X67800392Y-159090393D01*
X67621068Y-159308900D01*
X67550000Y-159441858D01*
X67478932Y-159308899D01*
X67299607Y-159090392D01*
X67081100Y-158911068D01*
X66831807Y-158777818D01*
X66561308Y-158695764D01*
X66280000Y-158668057D01*
X65998691Y-158695764D01*
X65728192Y-158777818D01*
X65478899Y-158911068D01*
X65260392Y-159090393D01*
X65081068Y-159308900D01*
X65010000Y-159441858D01*
X64938932Y-159308899D01*
X64759607Y-159090392D01*
X64541100Y-158911068D01*
X64291807Y-158777818D01*
X64021308Y-158695764D01*
X63740000Y-158668057D01*
X63458691Y-158695764D01*
X63188192Y-158777818D01*
X62938899Y-158911068D01*
X62720392Y-159090393D01*
X62541068Y-159308900D01*
X62470000Y-159441858D01*
X62398932Y-159308899D01*
X62219607Y-159090392D01*
X62001100Y-158911068D01*
X61751807Y-158777818D01*
X61481308Y-158695764D01*
X61200000Y-158668057D01*
X60918691Y-158695764D01*
X60648192Y-158777818D01*
X60398899Y-158911068D01*
X60180392Y-159090393D01*
X60001068Y-159308900D01*
X59930000Y-159441858D01*
X59858932Y-159308899D01*
X59679607Y-159090392D01*
X59461100Y-158911068D01*
X59211807Y-158777818D01*
X58941308Y-158695764D01*
X58660000Y-158668057D01*
X58378691Y-158695764D01*
X58306968Y-158717521D01*
X55595259Y-156005813D01*
X55572238Y-155977762D01*
X55460320Y-155885913D01*
X55332633Y-155817663D01*
X55194085Y-155775635D01*
X55086105Y-155765000D01*
X55050000Y-155761444D01*
X55013895Y-155765000D01*
X41278186Y-155765000D01*
X41269099Y-155764105D01*
X41240706Y-155710986D01*
X41055134Y-155484866D01*
X41025313Y-155460393D01*
X41094180Y-155439502D01*
X41204494Y-155380537D01*
X41301185Y-155301185D01*
X41380537Y-155204494D01*
X41439502Y-155094180D01*
X41475812Y-154974482D01*
X41488072Y-154850000D01*
X41488072Y-153150000D01*
X41475812Y-153025518D01*
X41439502Y-152905820D01*
X41380537Y-152795506D01*
X41301185Y-152698815D01*
X41204494Y-152619463D01*
X41094180Y-152560498D01*
X40974482Y-152524188D01*
X40850000Y-152511928D01*
X39150000Y-152511928D01*
X39025518Y-152524188D01*
X38905820Y-152560498D01*
X38795506Y-152619463D01*
X38698815Y-152698815D01*
X38619463Y-152795506D01*
X38560498Y-152905820D01*
X38524188Y-153025518D01*
X38511928Y-153150000D01*
X38511928Y-154850000D01*
X38524188Y-154974482D01*
X38560498Y-155094180D01*
X38619463Y-155204494D01*
X38698815Y-155301185D01*
X38795506Y-155380537D01*
X38905820Y-155439502D01*
X38974687Y-155460393D01*
X38944866Y-155484866D01*
X38759294Y-155710986D01*
X38621401Y-155968966D01*
X38536487Y-156248889D01*
X38507815Y-156540000D01*
X38536487Y-156831111D01*
X38574069Y-156955001D01*
X36544448Y-156955001D01*
X36522568Y-156933122D01*
X36553513Y-156831111D01*
X36582185Y-156540000D01*
X36553513Y-156248889D01*
X36468599Y-155968966D01*
X36330706Y-155710986D01*
X36145134Y-155484866D01*
X36115313Y-155460393D01*
X36184180Y-155439502D01*
X36294494Y-155380537D01*
X36391185Y-155301185D01*
X36470537Y-155204494D01*
X36529502Y-155094180D01*
X36565812Y-154974482D01*
X36578072Y-154850000D01*
X36578072Y-153150000D01*
X36565812Y-153025518D01*
X36529502Y-152905820D01*
X36470537Y-152795506D01*
X36391185Y-152698815D01*
X36294494Y-152619463D01*
X36184180Y-152560498D01*
X36064482Y-152524188D01*
X35940000Y-152511928D01*
X34240000Y-152511928D01*
X34115518Y-152524188D01*
X33995820Y-152560498D01*
X33885506Y-152619463D01*
X33788815Y-152698815D01*
X33709463Y-152795506D01*
X33650498Y-152905820D01*
X33614188Y-153025518D01*
X33601928Y-153150000D01*
X33601928Y-154850000D01*
X33614188Y-154974482D01*
X33650498Y-155094180D01*
X33709463Y-155204494D01*
X33788815Y-155301185D01*
X33885506Y-155380537D01*
X33995820Y-155439502D01*
X34064687Y-155460393D01*
X34034866Y-155484866D01*
X33849294Y-155710986D01*
X33711401Y-155968966D01*
X33626487Y-156248889D01*
X33597815Y-156540000D01*
X33626487Y-156831111D01*
X33711401Y-157111034D01*
X33756281Y-157194999D01*
X31944446Y-157194999D01*
X31682568Y-156933122D01*
X31713513Y-156831111D01*
X31742185Y-156540000D01*
X31713513Y-156248889D01*
X31628599Y-155968966D01*
X31490706Y-155710986D01*
X31305134Y-155484866D01*
X31275313Y-155460393D01*
X31344180Y-155439502D01*
X31454494Y-155380537D01*
X31551185Y-155301185D01*
X31630537Y-155204494D01*
X31689502Y-155094180D01*
X31725812Y-154974482D01*
X31738072Y-154850000D01*
X31738072Y-153150000D01*
X31725812Y-153025518D01*
X31689502Y-152905820D01*
X31630537Y-152795506D01*
X31551185Y-152698815D01*
X31454494Y-152619463D01*
X31344180Y-152560498D01*
X31224482Y-152524188D01*
X31100000Y-152511928D01*
X29400000Y-152511928D01*
X29275518Y-152524188D01*
X29155820Y-152560498D01*
X29045506Y-152619463D01*
X28948815Y-152698815D01*
X28869463Y-152795506D01*
X28810498Y-152905820D01*
X28774188Y-153025518D01*
X28761928Y-153150000D01*
X28761928Y-154850000D01*
X28774188Y-154974482D01*
X28810498Y-155094180D01*
X28869463Y-155204494D01*
X28948815Y-155301185D01*
X29045506Y-155380537D01*
X29155820Y-155439502D01*
X29224687Y-155460393D01*
X29194866Y-155484866D01*
X29009294Y-155710986D01*
X28871401Y-155968966D01*
X28786487Y-156248889D01*
X28757815Y-156540000D01*
X28786487Y-156831111D01*
X28871401Y-157111034D01*
X29009294Y-157369014D01*
X29194866Y-157595134D01*
X29420986Y-157780706D01*
X29485523Y-157815201D01*
X29368645Y-157884822D01*
X29152412Y-158079731D01*
X28978359Y-158313080D01*
X28853175Y-158575901D01*
X28808524Y-158723110D01*
X28904589Y-158905143D01*
X26932568Y-156933122D01*
X26963513Y-156831111D01*
X26992185Y-156540000D01*
X26963513Y-156248889D01*
X26878599Y-155968966D01*
X26740706Y-155710986D01*
X26555134Y-155484866D01*
X26525313Y-155460393D01*
X26594180Y-155439502D01*
X26704494Y-155380537D01*
X26801185Y-155301185D01*
X26880537Y-155204494D01*
X26939502Y-155094180D01*
X26975812Y-154974482D01*
X26988072Y-154850000D01*
X26988072Y-153150000D01*
X26975812Y-153025518D01*
X26939502Y-152905820D01*
X26880537Y-152795506D01*
X26801185Y-152698815D01*
X26704494Y-152619463D01*
X26594180Y-152560498D01*
X26474482Y-152524188D01*
X26350000Y-152511928D01*
X24650000Y-152511928D01*
X24525518Y-152524188D01*
X24405820Y-152560498D01*
X24295506Y-152619463D01*
X24198815Y-152698815D01*
X24119463Y-152795506D01*
X24060498Y-152905820D01*
X24024188Y-153025518D01*
X24011928Y-153150000D01*
X24011928Y-154850000D01*
X24024188Y-154974482D01*
X24060498Y-155094180D01*
X24119463Y-155204494D01*
X24198815Y-155301185D01*
X24295506Y-155380537D01*
X24405820Y-155439502D01*
X24474687Y-155460393D01*
X24444866Y-155484866D01*
X24259294Y-155710986D01*
X24121401Y-155968966D01*
X24036487Y-156248889D01*
X24007815Y-156540000D01*
X24036487Y-156831111D01*
X24121401Y-157111034D01*
X24259294Y-157369014D01*
X24444866Y-157595134D01*
X24670986Y-157780706D01*
X24735523Y-157815201D01*
X24618645Y-157884822D01*
X24402412Y-158079731D01*
X24228359Y-158313080D01*
X24103175Y-158575901D01*
X24058524Y-158723110D01*
X24179845Y-158953000D01*
X25373000Y-158953000D01*
X25373000Y-158933000D01*
X25627000Y-158933000D01*
X25627000Y-158953000D01*
X26820155Y-158953000D01*
X26838601Y-158918047D01*
X32414746Y-164494193D01*
X32437762Y-164522238D01*
X32549680Y-164614087D01*
X32677367Y-164682337D01*
X32761156Y-164707754D01*
X32815914Y-164724365D01*
X32830132Y-164725765D01*
X32923895Y-164735000D01*
X32923902Y-164735000D01*
X32959999Y-164738555D01*
X32996096Y-164735000D01*
X39385554Y-164735000D01*
X41062482Y-166411928D01*
X39950000Y-166411928D01*
X39825518Y-166424188D01*
X39705820Y-166460498D01*
X39595506Y-166519463D01*
X39498815Y-166598815D01*
X39419463Y-166695506D01*
X39360498Y-166805820D01*
X39324188Y-166925518D01*
X39322419Y-166943482D01*
X39229608Y-166830392D01*
X39011101Y-166651068D01*
X38761808Y-166517818D01*
X38491309Y-166435764D01*
X38210000Y-166408057D01*
X37928692Y-166435764D01*
X37658193Y-166517818D01*
X37408900Y-166651068D01*
X37190393Y-166830392D01*
X37011068Y-167048899D01*
X36940000Y-167181858D01*
X36868932Y-167048899D01*
X36689608Y-166830392D01*
X36471101Y-166651068D01*
X36221808Y-166517818D01*
X35951309Y-166435764D01*
X35670000Y-166408057D01*
X35388692Y-166435764D01*
X35118193Y-166517818D01*
X34868900Y-166651068D01*
X34650393Y-166830392D01*
X34471068Y-167048899D01*
X34400000Y-167181858D01*
X34328932Y-167048899D01*
X34149608Y-166830392D01*
X33931101Y-166651068D01*
X33681808Y-166517818D01*
X33411309Y-166435764D01*
X33130000Y-166408057D01*
X32848692Y-166435764D01*
X32578193Y-166517818D01*
X32328900Y-166651068D01*
X32110393Y-166830392D01*
X31931068Y-167048899D01*
X31860000Y-167181858D01*
X31788932Y-167048899D01*
X31609608Y-166830392D01*
X31391101Y-166651068D01*
X31141808Y-166517818D01*
X30871309Y-166435764D01*
X30590000Y-166408057D01*
X30308692Y-166435764D01*
X30038193Y-166517818D01*
X29788900Y-166651068D01*
X29570393Y-166830392D01*
X29391068Y-167048899D01*
X29320000Y-167181858D01*
X29248932Y-167048899D01*
X29069608Y-166830392D01*
X28851101Y-166651068D01*
X28601808Y-166517818D01*
X28331309Y-166435764D01*
X28050000Y-166408057D01*
X27768692Y-166435764D01*
X27498193Y-166517818D01*
X27248900Y-166651068D01*
X27030393Y-166830392D01*
X26851068Y-167048899D01*
X26782735Y-167176741D01*
X26632601Y-166947161D01*
X26434895Y-166745500D01*
X26201646Y-166586285D01*
X25941818Y-166475633D01*
X25859039Y-166458096D01*
X25637000Y-166580085D01*
X25637000Y-168123000D01*
X25657000Y-168123000D01*
X25657000Y-168377000D01*
X25637000Y-168377000D01*
X25637000Y-169919915D01*
X25859039Y-170041904D01*
X25941818Y-170024367D01*
X26201646Y-169913715D01*
X26434895Y-169754500D01*
X26632601Y-169552839D01*
X26782735Y-169323258D01*
X26851068Y-169451100D01*
X27030392Y-169669607D01*
X27248899Y-169848932D01*
X27498192Y-169982182D01*
X27768691Y-170064236D01*
X28050000Y-170091943D01*
X28331308Y-170064236D01*
X28601807Y-169982182D01*
X28851100Y-169848932D01*
X29069607Y-169669608D01*
X29248932Y-169451101D01*
X29320000Y-169318142D01*
X29391068Y-169451100D01*
X29570392Y-169669607D01*
X29738015Y-169807173D01*
X29740000Y-169827323D01*
X29740000Y-170240000D01*
X22287333Y-170240000D01*
X22250000Y-170236323D01*
X22212667Y-170240000D01*
X22101014Y-170250997D01*
X21957753Y-170294454D01*
X21825724Y-170365026D01*
X21709999Y-170459999D01*
X21686196Y-170489003D01*
X21549003Y-170626196D01*
X21519999Y-170649999D01*
X21482196Y-170696063D01*
X21425026Y-170765724D01*
X21404601Y-170803937D01*
X21354454Y-170897754D01*
X21310997Y-171041015D01*
X21300000Y-171152668D01*
X21300000Y-171152678D01*
X21296324Y-171190000D01*
X21300000Y-171227322D01*
X21300001Y-186761928D01*
X21210000Y-186761928D01*
X21085518Y-186774188D01*
X20965820Y-186810498D01*
X20855506Y-186869463D01*
X20758815Y-186948815D01*
X20679463Y-187045506D01*
X20660000Y-187081918D01*
X20660000Y-168377000D01*
X24075000Y-168377000D01*
X24075000Y-168777000D01*
X24127350Y-169054514D01*
X24232834Y-169316483D01*
X24387399Y-169552839D01*
X24585105Y-169754500D01*
X24818354Y-169913715D01*
X25078182Y-170024367D01*
X25160961Y-170041904D01*
X25383000Y-169919915D01*
X25383000Y-168377000D01*
X24075000Y-168377000D01*
X20660000Y-168377000D01*
X20660000Y-167723000D01*
X24075000Y-167723000D01*
X24075000Y-168123000D01*
X25383000Y-168123000D01*
X25383000Y-166580085D01*
X25160961Y-166458096D01*
X25078182Y-166475633D01*
X24818354Y-166586285D01*
X24585105Y-166745500D01*
X24387399Y-166947161D01*
X24232834Y-167183517D01*
X24127350Y-167445486D01*
X24075000Y-167723000D01*
X20660000Y-167723000D01*
X20660000Y-159436890D01*
X24058524Y-159436890D01*
X24103175Y-159584099D01*
X24228359Y-159846920D01*
X24402412Y-160080269D01*
X24618645Y-160275178D01*
X24868748Y-160424157D01*
X25143109Y-160521481D01*
X25373000Y-160400814D01*
X25373000Y-159207000D01*
X25627000Y-159207000D01*
X25627000Y-160400814D01*
X25856891Y-160521481D01*
X26131252Y-160424157D01*
X26381355Y-160275178D01*
X26597588Y-160080269D01*
X26771641Y-159846920D01*
X26896825Y-159584099D01*
X26941476Y-159436890D01*
X26820155Y-159207000D01*
X25627000Y-159207000D01*
X25373000Y-159207000D01*
X24179845Y-159207000D01*
X24058524Y-159436890D01*
X20660000Y-159436890D01*
X20660000Y-150660000D01*
X119340000Y-150660000D01*
X119340001Y-186972406D01*
G36*
X35797000Y-175743000D02*
G01*
X38083000Y-175743000D01*
X38083000Y-175723000D01*
X38337000Y-175723000D01*
X38337000Y-175743000D01*
X38357000Y-175743000D01*
X38357000Y-175997000D01*
X38337000Y-175997000D01*
X38337000Y-177539915D01*
X38559039Y-177661904D01*
X38641818Y-177644367D01*
X38901646Y-177533715D01*
X39134895Y-177374500D01*
X39332601Y-177172839D01*
X39482735Y-176943258D01*
X39551068Y-177071100D01*
X39615001Y-177149002D01*
X39615001Y-178014239D01*
X39609509Y-178070000D01*
X39631423Y-178292498D01*
X39696324Y-178506446D01*
X39696325Y-178506447D01*
X39801717Y-178703623D01*
X39943552Y-178876449D01*
X39986860Y-178911991D01*
X42974409Y-181899541D01*
X42948102Y-181904774D01*
X42759744Y-181982795D01*
X42590226Y-182096063D01*
X42446063Y-182240226D01*
X42332795Y-182409744D01*
X42254774Y-182598102D01*
X42215000Y-182798061D01*
X42215000Y-182875774D01*
X42176243Y-182948283D01*
X42144455Y-183007753D01*
X42100998Y-183151014D01*
X42090001Y-183262667D01*
X42090001Y-183262677D01*
X42086325Y-183299999D01*
X42089811Y-183335388D01*
X41435199Y-183990000D01*
X30537322Y-183990000D01*
X30499999Y-183986324D01*
X30462676Y-183990000D01*
X30462667Y-183990000D01*
X30351014Y-184000997D01*
X30222433Y-184040001D01*
X30207753Y-184044454D01*
X30075723Y-184115026D01*
X30019702Y-184161002D01*
X29959999Y-184209999D01*
X29936201Y-184238998D01*
X29169002Y-185006197D01*
X29139999Y-185029999D01*
X29084871Y-185097174D01*
X29045026Y-185145724D01*
X29011870Y-185207754D01*
X28974454Y-185277754D01*
X28930997Y-185421015D01*
X28920000Y-185532668D01*
X28920000Y-185532678D01*
X28916324Y-185570000D01*
X28920000Y-185607323D01*
X28920001Y-186972405D01*
X28850986Y-187009294D01*
X28624866Y-187194866D01*
X28439294Y-187420986D01*
X28410000Y-187475791D01*
X28380706Y-187420986D01*
X28195134Y-187194866D01*
X27969014Y-187009294D01*
X27711034Y-186871401D01*
X27431111Y-186786487D01*
X27212950Y-186765000D01*
X27067050Y-186765000D01*
X26848889Y-186786487D01*
X26774005Y-186809203D01*
X24510000Y-184545199D01*
X24510000Y-177305699D01*
X24708899Y-177468932D01*
X24958192Y-177602182D01*
X25228691Y-177684236D01*
X25510000Y-177711943D01*
X25791308Y-177684236D01*
X26061807Y-177602182D01*
X26311100Y-177468932D01*
X26529607Y-177289608D01*
X26708932Y-177071101D01*
X26780000Y-176938142D01*
X26851068Y-177071100D01*
X27030392Y-177289607D01*
X27248899Y-177468932D01*
X27498192Y-177602182D01*
X27768691Y-177684236D01*
X28050000Y-177711943D01*
X28331308Y-177684236D01*
X28601807Y-177602182D01*
X28851100Y-177468932D01*
X29069607Y-177289608D01*
X29248932Y-177071101D01*
X29320000Y-176938142D01*
X29391068Y-177071100D01*
X29570392Y-177289607D01*
X29788899Y-177468932D01*
X30038192Y-177602182D01*
X30308691Y-177684236D01*
X30590000Y-177711943D01*
X30871308Y-177684236D01*
X31141807Y-177602182D01*
X31391100Y-177468932D01*
X31609607Y-177289608D01*
X31788932Y-177071101D01*
X31860000Y-176938142D01*
X31931068Y-177071100D01*
X32110392Y-177289607D01*
X32328899Y-177468932D01*
X32578192Y-177602182D01*
X32848691Y-177684236D01*
X33130000Y-177711943D01*
X33411308Y-177684236D01*
X33681807Y-177602182D01*
X33931100Y-177468932D01*
X34149607Y-177289608D01*
X34328932Y-177071101D01*
X34397265Y-176943259D01*
X34547399Y-177172839D01*
X34745105Y-177374500D01*
X34978354Y-177533715D01*
X35238182Y-177644367D01*
X35320961Y-177661904D01*
X35543000Y-177539915D01*
X35543000Y-175997000D01*
X35797000Y-175997000D01*
X35797000Y-177539915D01*
X36019039Y-177661904D01*
X36101818Y-177644367D01*
X36361646Y-177533715D01*
X36594895Y-177374500D01*
X36792601Y-177172839D01*
X36940000Y-176947441D01*
X37087399Y-177172839D01*
X37285105Y-177374500D01*
X37518354Y-177533715D01*
X37778182Y-177644367D01*
X37860961Y-177661904D01*
X38083000Y-177539915D01*
X38083000Y-175997000D01*
X35797000Y-175997000D01*
X35543000Y-175997000D01*
X35523000Y-175997000D01*
X35523000Y-175743000D01*
X35543000Y-175743000D01*
X35543000Y-175723000D01*
X35797000Y-175723000D01*
X35797000Y-175743000D01*
X35797000Y-175743000D01*
G37*
X35797000Y-175743000D02*
X38083000Y-175743000D01*
X38083000Y-175723000D01*
X38337000Y-175723000D01*
X38337000Y-175743000D01*
X38357000Y-175743000D01*
X38357000Y-175997000D01*
X38337000Y-175997000D01*
X38337000Y-177539915D01*
X38559039Y-177661904D01*
X38641818Y-177644367D01*
X38901646Y-177533715D01*
X39134895Y-177374500D01*
X39332601Y-177172839D01*
X39482735Y-176943258D01*
X39551068Y-177071100D01*
X39615001Y-177149002D01*
X39615001Y-178014239D01*
X39609509Y-178070000D01*
X39631423Y-178292498D01*
X39696324Y-178506446D01*
X39696325Y-178506447D01*
X39801717Y-178703623D01*
X39943552Y-178876449D01*
X39986860Y-178911991D01*
X42974409Y-181899541D01*
X42948102Y-181904774D01*
X42759744Y-181982795D01*
X42590226Y-182096063D01*
X42446063Y-182240226D01*
X42332795Y-182409744D01*
X42254774Y-182598102D01*
X42215000Y-182798061D01*
X42215000Y-182875774D01*
X42176243Y-182948283D01*
X42144455Y-183007753D01*
X42100998Y-183151014D01*
X42090001Y-183262667D01*
X42090001Y-183262677D01*
X42086325Y-183299999D01*
X42089811Y-183335388D01*
X41435199Y-183990000D01*
X30537322Y-183990000D01*
X30499999Y-183986324D01*
X30462676Y-183990000D01*
X30462667Y-183990000D01*
X30351014Y-184000997D01*
X30222433Y-184040001D01*
X30207753Y-184044454D01*
X30075723Y-184115026D01*
X30019702Y-184161002D01*
X29959999Y-184209999D01*
X29936201Y-184238998D01*
X29169002Y-185006197D01*
X29139999Y-185029999D01*
X29084871Y-185097174D01*
X29045026Y-185145724D01*
X29011870Y-185207754D01*
X28974454Y-185277754D01*
X28930997Y-185421015D01*
X28920000Y-185532668D01*
X28920000Y-185532678D01*
X28916324Y-185570000D01*
X28920000Y-185607323D01*
X28920001Y-186972405D01*
X28850986Y-187009294D01*
X28624866Y-187194866D01*
X28439294Y-187420986D01*
X28410000Y-187475791D01*
X28380706Y-187420986D01*
X28195134Y-187194866D01*
X27969014Y-187009294D01*
X27711034Y-186871401D01*
X27431111Y-186786487D01*
X27212950Y-186765000D01*
X27067050Y-186765000D01*
X26848889Y-186786487D01*
X26774005Y-186809203D01*
X24510000Y-184545199D01*
X24510000Y-177305699D01*
X24708899Y-177468932D01*
X24958192Y-177602182D01*
X25228691Y-177684236D01*
X25510000Y-177711943D01*
X25791308Y-177684236D01*
X26061807Y-177602182D01*
X26311100Y-177468932D01*
X26529607Y-177289608D01*
X26708932Y-177071101D01*
X26780000Y-176938142D01*
X26851068Y-177071100D01*
X27030392Y-177289607D01*
X27248899Y-177468932D01*
X27498192Y-177602182D01*
X27768691Y-177684236D01*
X28050000Y-177711943D01*
X28331308Y-177684236D01*
X28601807Y-177602182D01*
X28851100Y-177468932D01*
X29069607Y-177289608D01*
X29248932Y-177071101D01*
X29320000Y-176938142D01*
X29391068Y-177071100D01*
X29570392Y-177289607D01*
X29788899Y-177468932D01*
X30038192Y-177602182D01*
X30308691Y-177684236D01*
X30590000Y-177711943D01*
X30871308Y-177684236D01*
X31141807Y-177602182D01*
X31391100Y-177468932D01*
X31609607Y-177289608D01*
X31788932Y-177071101D01*
X31860000Y-176938142D01*
X31931068Y-177071100D01*
X32110392Y-177289607D01*
X32328899Y-177468932D01*
X32578192Y-177602182D01*
X32848691Y-177684236D01*
X33130000Y-177711943D01*
X33411308Y-177684236D01*
X33681807Y-177602182D01*
X33931100Y-177468932D01*
X34149607Y-177289608D01*
X34328932Y-177071101D01*
X34397265Y-176943259D01*
X34547399Y-177172839D01*
X34745105Y-177374500D01*
X34978354Y-177533715D01*
X35238182Y-177644367D01*
X35320961Y-177661904D01*
X35543000Y-177539915D01*
X35543000Y-175997000D01*
X35797000Y-175997000D01*
X35797000Y-177539915D01*
X36019039Y-177661904D01*
X36101818Y-177644367D01*
X36361646Y-177533715D01*
X36594895Y-177374500D01*
X36792601Y-177172839D01*
X36940000Y-176947441D01*
X37087399Y-177172839D01*
X37285105Y-177374500D01*
X37518354Y-177533715D01*
X37778182Y-177644367D01*
X37860961Y-177661904D01*
X38083000Y-177539915D01*
X38083000Y-175997000D01*
X35797000Y-175997000D01*
X35543000Y-175997000D01*
X35523000Y-175997000D01*
X35523000Y-175743000D01*
X35543000Y-175743000D01*
X35543000Y-175723000D01*
X35797000Y-175723000D01*
X35797000Y-175743000D01*
G36*
X33648524Y-158723110D02*
G01*
X33769845Y-158953000D01*
X34963000Y-158953000D01*
X34963000Y-158933000D01*
X35217000Y-158933000D01*
X35217000Y-158953000D01*
X35237000Y-158953000D01*
X35237000Y-159207000D01*
X35217000Y-159207000D01*
X35217000Y-160400814D01*
X35446891Y-160521481D01*
X35721252Y-160424157D01*
X35971355Y-160275178D01*
X36187588Y-160080269D01*
X36361641Y-159846920D01*
X36450634Y-159660080D01*
X50733852Y-173943299D01*
X50686968Y-173957521D01*
X40235259Y-163505813D01*
X40212238Y-163477762D01*
X40100320Y-163385913D01*
X39972633Y-163317663D01*
X39834085Y-163275635D01*
X39726105Y-163265000D01*
X39690000Y-163261444D01*
X39653895Y-163265000D01*
X33264447Y-163265000D01*
X30425958Y-160426512D01*
X30606891Y-160521481D01*
X30881252Y-160424157D01*
X31131355Y-160275178D01*
X31347588Y-160080269D01*
X31521641Y-159846920D01*
X31646825Y-159584099D01*
X31691476Y-159436890D01*
X33648524Y-159436890D01*
X33693175Y-159584099D01*
X33818359Y-159846920D01*
X33992412Y-160080269D01*
X34208645Y-160275178D01*
X34458748Y-160424157D01*
X34733109Y-160521481D01*
X34963000Y-160400814D01*
X34963000Y-159207000D01*
X33769845Y-159207000D01*
X33648524Y-159436890D01*
X31691476Y-159436890D01*
X31570155Y-159207000D01*
X30377000Y-159207000D01*
X30377000Y-159227000D01*
X30123000Y-159227000D01*
X30123000Y-159207000D01*
X30103000Y-159207000D01*
X30103000Y-158953000D01*
X30123000Y-158953000D01*
X30123000Y-158933000D01*
X30377000Y-158933000D01*
X30377000Y-158953000D01*
X31570155Y-158953000D01*
X31691476Y-158723110D01*
X31673915Y-158665213D01*
X31676093Y-158664999D01*
X33666150Y-158664999D01*
X33648524Y-158723110D01*
X33648524Y-158723110D01*
G37*
X33648524Y-158723110D02*
X33769845Y-158953000D01*
X34963000Y-158953000D01*
X34963000Y-158933000D01*
X35217000Y-158933000D01*
X35217000Y-158953000D01*
X35237000Y-158953000D01*
X35237000Y-159207000D01*
X35217000Y-159207000D01*
X35217000Y-160400814D01*
X35446891Y-160521481D01*
X35721252Y-160424157D01*
X35971355Y-160275178D01*
X36187588Y-160080269D01*
X36361641Y-159846920D01*
X36450634Y-159660080D01*
X50733852Y-173943299D01*
X50686968Y-173957521D01*
X40235259Y-163505813D01*
X40212238Y-163477762D01*
X40100320Y-163385913D01*
X39972633Y-163317663D01*
X39834085Y-163275635D01*
X39726105Y-163265000D01*
X39690000Y-163261444D01*
X39653895Y-163265000D01*
X33264447Y-163265000D01*
X30425958Y-160426512D01*
X30606891Y-160521481D01*
X30881252Y-160424157D01*
X31131355Y-160275178D01*
X31347588Y-160080269D01*
X31521641Y-159846920D01*
X31646825Y-159584099D01*
X31691476Y-159436890D01*
X33648524Y-159436890D01*
X33693175Y-159584099D01*
X33818359Y-159846920D01*
X33992412Y-160080269D01*
X34208645Y-160275178D01*
X34458748Y-160424157D01*
X34733109Y-160521481D01*
X34963000Y-160400814D01*
X34963000Y-159207000D01*
X33769845Y-159207000D01*
X33648524Y-159436890D01*
X31691476Y-159436890D01*
X31570155Y-159207000D01*
X30377000Y-159207000D01*
X30377000Y-159227000D01*
X30123000Y-159227000D01*
X30123000Y-159207000D01*
X30103000Y-159207000D01*
X30103000Y-158953000D01*
X30123000Y-158953000D01*
X30123000Y-158933000D01*
X30377000Y-158933000D01*
X30377000Y-158953000D01*
X31570155Y-158953000D01*
X31691476Y-158723110D01*
X31673915Y-158665213D01*
X31676093Y-158664999D01*
X33666150Y-158664999D01*
X33648524Y-158723110D01*
G36*
X38603175Y-158575901D02*
G01*
X38558524Y-158723110D01*
X38679845Y-158953000D01*
X39873000Y-158953000D01*
X39873000Y-158933000D01*
X40127000Y-158933000D01*
X40127000Y-158953000D01*
X41320155Y-158953000D01*
X41441476Y-158723110D01*
X41396825Y-158575901D01*
X41324950Y-158425001D01*
X53395555Y-158425001D01*
X53645014Y-158674460D01*
X53580000Y-158668057D01*
X53298691Y-158695764D01*
X53028192Y-158777818D01*
X52778899Y-158911068D01*
X52560392Y-159090393D01*
X52381068Y-159308900D01*
X52310000Y-159441858D01*
X52238932Y-159308899D01*
X52059607Y-159090392D01*
X51841100Y-158911068D01*
X51591807Y-158777818D01*
X51321308Y-158695764D01*
X51040000Y-158668057D01*
X50758691Y-158695764D01*
X50488192Y-158777818D01*
X50238899Y-158911068D01*
X50020392Y-159090393D01*
X49841068Y-159308900D01*
X49770000Y-159441858D01*
X49698932Y-159308899D01*
X49519607Y-159090392D01*
X49301100Y-158911068D01*
X49051807Y-158777818D01*
X48781308Y-158695764D01*
X48500000Y-158668057D01*
X48218691Y-158695764D01*
X47948192Y-158777818D01*
X47698899Y-158911068D01*
X47480392Y-159090393D01*
X47301068Y-159308900D01*
X47167818Y-159558193D01*
X47085764Y-159828692D01*
X47065000Y-160039509D01*
X47065000Y-160980492D01*
X47085764Y-161191309D01*
X47167818Y-161461808D01*
X47301068Y-161711101D01*
X47480393Y-161929608D01*
X47698900Y-162108932D01*
X47944111Y-162240000D01*
X43203711Y-162240000D01*
X43159774Y-162196063D01*
X42990256Y-162082795D01*
X42801898Y-162004774D01*
X42601939Y-161965000D01*
X42398061Y-161965000D01*
X42198102Y-162004774D01*
X42009744Y-162082795D01*
X41840226Y-162196063D01*
X41696063Y-162340226D01*
X41582795Y-162509744D01*
X41523160Y-162653714D01*
X39182898Y-160313451D01*
X39368748Y-160424157D01*
X39643109Y-160521481D01*
X39873000Y-160400814D01*
X39873000Y-159207000D01*
X40127000Y-159207000D01*
X40127000Y-160400814D01*
X40356891Y-160521481D01*
X40631252Y-160424157D01*
X40881355Y-160275178D01*
X41097588Y-160080269D01*
X41271641Y-159846920D01*
X41396825Y-159584099D01*
X41441476Y-159436890D01*
X41320155Y-159207000D01*
X40127000Y-159207000D01*
X39873000Y-159207000D01*
X38679845Y-159207000D01*
X38558524Y-159436890D01*
X38603175Y-159584099D01*
X38728359Y-159846920D01*
X38763562Y-159894116D01*
X37294447Y-158425001D01*
X38675050Y-158425001D01*
X38603175Y-158575901D01*
X38603175Y-158575901D01*
G37*
X38603175Y-158575901D02*
X38558524Y-158723110D01*
X38679845Y-158953000D01*
X39873000Y-158953000D01*
X39873000Y-158933000D01*
X40127000Y-158933000D01*
X40127000Y-158953000D01*
X41320155Y-158953000D01*
X41441476Y-158723110D01*
X41396825Y-158575901D01*
X41324950Y-158425001D01*
X53395555Y-158425001D01*
X53645014Y-158674460D01*
X53580000Y-158668057D01*
X53298691Y-158695764D01*
X53028192Y-158777818D01*
X52778899Y-158911068D01*
X52560392Y-159090393D01*
X52381068Y-159308900D01*
X52310000Y-159441858D01*
X52238932Y-159308899D01*
X52059607Y-159090392D01*
X51841100Y-158911068D01*
X51591807Y-158777818D01*
X51321308Y-158695764D01*
X51040000Y-158668057D01*
X50758691Y-158695764D01*
X50488192Y-158777818D01*
X50238899Y-158911068D01*
X50020392Y-159090393D01*
X49841068Y-159308900D01*
X49770000Y-159441858D01*
X49698932Y-159308899D01*
X49519607Y-159090392D01*
X49301100Y-158911068D01*
X49051807Y-158777818D01*
X48781308Y-158695764D01*
X48500000Y-158668057D01*
X48218691Y-158695764D01*
X47948192Y-158777818D01*
X47698899Y-158911068D01*
X47480392Y-159090393D01*
X47301068Y-159308900D01*
X47167818Y-159558193D01*
X47085764Y-159828692D01*
X47065000Y-160039509D01*
X47065000Y-160980492D01*
X47085764Y-161191309D01*
X47167818Y-161461808D01*
X47301068Y-161711101D01*
X47480393Y-161929608D01*
X47698900Y-162108932D01*
X47944111Y-162240000D01*
X43203711Y-162240000D01*
X43159774Y-162196063D01*
X42990256Y-162082795D01*
X42801898Y-162004774D01*
X42601939Y-161965000D01*
X42398061Y-161965000D01*
X42198102Y-162004774D01*
X42009744Y-162082795D01*
X41840226Y-162196063D01*
X41696063Y-162340226D01*
X41582795Y-162509744D01*
X41523160Y-162653714D01*
X39182898Y-160313451D01*
X39368748Y-160424157D01*
X39643109Y-160521481D01*
X39873000Y-160400814D01*
X39873000Y-159207000D01*
X40127000Y-159207000D01*
X40127000Y-160400814D01*
X40356891Y-160521481D01*
X40631252Y-160424157D01*
X40881355Y-160275178D01*
X41097588Y-160080269D01*
X41271641Y-159846920D01*
X41396825Y-159584099D01*
X41441476Y-159436890D01*
X41320155Y-159207000D01*
X40127000Y-159207000D01*
X39873000Y-159207000D01*
X38679845Y-159207000D01*
X38558524Y-159436890D01*
X38603175Y-159584099D01*
X38728359Y-159846920D01*
X38763562Y-159894116D01*
X37294447Y-158425001D01*
X38675050Y-158425001D01*
X38603175Y-158575901D01*
M02*
