M48
; DRILL file {KiCad 5.1.4} date Di 08 Okt 2019 23:19:45 CEST
; FORMAT={-:-/ absolute / inch / decimal}
; #@! TF.CreationDate,2019-10-08T23:19:45+02:00
; #@! TF.GenerationSoftware,Kicad,Pcbnew,5.1.4
; #@! TF.FileFunction,Plated,1,2,PTH
FMAT,2
INCH
T1C0.0157
T2C0.0315
T3C0.0394
%
G90
G05
T1
X0.9154Y-6.4567
X1.2205Y-7.313
X1.25Y-6.8593
X1.3681Y-7.1457
X1.6732Y-6.4173
X1.6929Y-6.6732
X1.7028Y-7.2008
X1.7844Y-6.5157
X1.7913Y-6.8307
X1.8012Y-6.4567
X1.8012Y-6.4567
X1.811Y-6.5551
X1.811Y-6.5551
X1.811Y-6.5551
X1.9685Y-6.7224
X2.0472Y-6.752
X2.1358Y-6.4862
X2.1654Y-6.6929
X2.1752Y-6.5157
X2.3524Y-6.0531
X2.3917Y-6.4862
X2.8051Y-6.4961
X2.815Y-6.0925
X2.9823Y-6.624
X3.0807Y-7.6476
X3.3169Y-7.3228
X3.3169Y-7.3524
X3.3465Y-7.3425
X4.2815Y-6.0728
X4.5374Y-6.0728
T2
X1.9094Y-6.3193
X1.9094Y-6.9193
X2.0094Y-6.3193
X2.0094Y-6.9193
X2.1094Y-6.3193
X2.1094Y-6.9193
X2.2094Y-6.3193
X2.2094Y-6.9193
X2.3094Y-6.3193
X2.3094Y-6.9193
X2.4094Y-6.3193
X2.4094Y-6.9193
X2.5094Y-6.3193
X2.5094Y-6.9193
X2.6094Y-6.3193
X2.6094Y-6.9193
X2.7094Y-6.3193
X2.7094Y-6.9193
X2.8094Y-6.3193
X2.8094Y-6.9193
X2.9094Y-6.3193
X2.9094Y-6.9193
X3.0094Y-6.3193
X3.0094Y-6.9193
X3.1094Y-6.3193
X3.1094Y-6.9193
X3.2094Y-6.3193
X3.2094Y-6.9193
X3.3094Y-6.3193
X3.3094Y-6.9193
X3.4094Y-6.3193
X3.4094Y-6.9193
X1.0043Y-6.624
X1.0043Y-6.924
X1.1043Y-6.624
X1.1043Y-6.924
X1.2043Y-6.624
X1.2043Y-6.924
X1.3043Y-6.624
X1.3043Y-6.924
X1.4043Y-6.624
X1.4043Y-6.924
X1.5043Y-6.624
X1.5043Y-6.924
X1.6043Y-6.624
X1.6043Y-6.924
T3
X1.0039Y-6.063
X1.0039Y-6.163
X1.0039Y-6.263
X1.1909Y-6.063
X1.1909Y-6.163
X1.1909Y-6.263
X0.8685Y-7.4114
X0.9685Y-7.4114
X1.0685Y-7.4114
X1.1685Y-7.4114
X1.2685Y-7.4114
X1.3685Y-7.4114
X1.4685Y-7.4114
X1.5685Y-7.4114
X1.6685Y-7.4114
X1.7685Y-7.4114
X1.8685Y-7.4114
X1.9685Y-7.4114
X2.0685Y-7.4114
X2.1685Y-7.4114
X2.2685Y-7.4114
X2.3685Y-7.4114
X2.4685Y-7.4114
X2.5685Y-7.4114
X2.6685Y-7.4114
X2.7685Y-7.4114
X2.8685Y-7.4114
X2.9685Y-7.4114
X3.0685Y-7.4114
X3.1685Y-7.4114
X3.2685Y-7.4114
X3.3685Y-7.4114
X3.4685Y-7.4114
X3.5685Y-7.4114
X3.6685Y-7.4114
X3.7685Y-7.4114
X3.8685Y-7.4114
X3.9685Y-7.4114
X4.0685Y-7.4114
X4.1685Y-7.4114
X4.2685Y-7.4114
X4.3685Y-7.4114
X4.4685Y-7.4114
X4.5685Y-7.4114
X4.6685Y-7.4114
X1.5748Y-6.063
X1.5748Y-6.163
X1.5748Y-6.263
X1.3815Y-6.063
X1.3815Y-6.163
X1.3815Y-6.263
T0
M30
